<svg width="840" height="1024" viewBox="0 0 840 1024" fill="none" xmlns="http://www.w3.org/2000/svg">
<rect width="840" height="1024" fill="#2C2E2D"/>
<g clip-path="url(#clip0_8590_17188)" filter="url(#filter0_d_8590_17188)">
<rect width="1440" height="1024" fill="white"/>
<g filter="url(#filter1_dd_8590_17188)">
<rect width="1478" height="1044" rx="416" transform="matrix(-1 0 0 1 836 -11)" fill="url(#paint0_linear_8590_17188)" fill-opacity="0.5" shape-rendering="crispEdges"/>
</g>
<g filter="url(#filter2_dd_8590_17188)">
<rect width="1476" height="1044" rx="416" transform="matrix(-1 0 0 1 670 -11)" fill="url(#paint1_linear_8590_17188)" fill-opacity="0.75" shape-rendering="crispEdges"/>
</g>
<g filter="url(#filter3_dd_8590_17188)">
<rect width="1477" height="1044" rx="416" transform="matrix(-1 0 0 1 473 -11)" fill="url(#paint2_linear_8590_17188)"/>
</g>
<circle cx="52" cy="52" r="47" transform="matrix(-1 0 0 1 636 181)" stroke="white" stroke-opacity="0.51" stroke-width="10"/>
<path d="M293 941C266.951 941 246 961.686 246 987C246 1012.31 266.951 1033 293 1033C319.049 1033 340 1012.31 340 987C340 961.686 319.049 941 293 941Z" stroke="white" stroke-opacity="0.51" stroke-width="10"/>
<ellipse cx="33.5" cy="33" rx="33.5" ry="33" transform="matrix(-1 0 0 1 14 605)" fill="white" fill-opacity="0.3"/>
<circle cx="33.5" cy="33.5" r="33.5" transform="matrix(-1 0 0 1 274 41)" fill="white" fill-opacity="0.3"/>
<circle cx="33.5" cy="33.5" r="33.5" transform="matrix(-1 0 0 1 703 89)" fill="url(#paint3_linear_8590_17188)" fill-opacity="0.3"/>
<circle cx="26.5" cy="26.5" r="26.5" transform="matrix(-1 0 0 1 500 638)" fill="url(#paint4_linear_8590_17188)" fill-opacity="0.5"/>
<g filter="url(#filter4_dd_8590_17188)">
<rect x="107" y="411" width="200" height="200" rx="60" fill="white" fill-opacity="0.3" shape-rendering="crispEdges"/>
<rect x="107.5" y="411.5" width="199" height="199" rx="59.5" stroke="#EFE3E3" shape-rendering="crispEdges"/>
<path d="M213.68 457.281C221.618 457.281 229.632 457.281 237.545 457.281C242.496 457.281 245.508 460.384 245.202 464.795C245.17 465.656 244.965 466.502 244.599 467.28C244.232 468.059 243.713 468.755 243.07 469.326C242.428 469.896 241.678 470.33 240.864 470.601C240.05 470.871 239.19 470.973 238.336 470.899C224.706 470.899 211.076 470.899 197.497 470.899C193.376 470.788 189.256 471.158 185.22 472.002C180.818 473.098 176.912 475.653 174.133 479.255C171.354 482.857 169.865 487.295 169.906 491.852C169.906 499.546 169.906 507.035 169.906 514.6C169.913 516.175 169.423 517.711 168.505 518.988C167.588 520.265 166.291 521.216 164.801 521.704C163.48 522.149 162.053 522.162 160.724 521.743C159.394 521.324 158.231 520.494 157.399 519.371C156.564 518.273 156.067 516.953 155.97 515.575C155.97 506.445 155.383 497.264 156.174 488.21C156.939 481.014 159.959 474.247 164.799 468.886C169.638 463.526 176.048 459.848 183.102 458.384C187.163 457.656 191.279 457.287 195.404 457.281C201.556 457.281 207.579 457.281 213.68 457.281Z" fill="#333333"/>
<path d="M200.228 563.893C192.57 563.893 184.913 563.893 177.103 563.893C175.111 563.819 173.178 563.198 171.513 562.098C170.448 561.196 169.689 559.983 169.34 558.628C168.991 557.274 169.071 555.843 169.567 554.536C170.063 553.228 170.952 552.108 172.11 551.331C173.269 550.554 174.639 550.158 176.031 550.198H216.869C221.424 550.403 225.963 549.524 230.116 547.633C234.369 545.703 237.955 542.547 240.418 538.565C242.881 534.583 244.111 529.955 243.95 525.269C243.95 519.576 243.95 513.857 243.95 508.163C243.907 506.697 243.993 505.229 244.205 503.778C244.561 502.309 245.4 501.004 246.586 500.073C247.771 499.142 249.235 498.64 250.74 498.649C252.297 498.587 253.823 499.093 255.038 500.073C256.253 501.053 257.074 502.442 257.35 503.983C257.886 514.395 258.78 524.91 256.661 535.195C254.752 542.839 250.512 549.693 244.535 554.797C238.558 559.901 231.143 563.001 223.327 563.662C215.67 564.047 208.012 563.662 200.202 563.662L200.228 563.893Z" fill="#333333"/>
<path d="M239.103 480.363C240.301 480.237 241.511 480.419 242.619 480.893C243.727 481.367 244.697 482.116 245.438 483.07C246.178 484.024 246.665 485.152 246.851 486.348C247.038 487.543 246.919 488.767 246.505 489.903C246.116 491.071 245.373 492.088 244.379 492.81C243.386 493.532 242.193 493.924 240.967 493.93C234.462 494.715 228.388 497.604 223.661 502.162C220.45 505.378 217.6 508.938 215.162 512.78C210.44 519.807 205.82 526.885 198.954 532.117C191.978 537.615 183.826 541.408 175.14 543.196C173.385 543.603 171.542 543.309 169.999 542.376C168.456 541.443 167.334 539.944 166.87 538.195C166.572 537.279 166.481 536.308 166.605 535.352C166.728 534.397 167.063 533.481 167.584 532.672C168.105 531.863 168.8 531.182 169.617 530.677C170.434 530.173 171.353 529.859 172.307 529.757C177.79 528.58 182.98 526.304 187.567 523.065C192.154 519.826 196.044 515.691 199.005 510.907C200.945 507.804 202.885 504.675 205.003 501.7C212.389 490.875 223.642 483.325 236.423 480.619C236.895 480.509 237.372 480.423 237.853 480.363H239.103Z" fill="#5C5C5C"/>
</g>
</g>
<rect x="-414" y="-260" width="6935" height="1544" rx="82" stroke="#16C098" stroke-width="20"/>
<defs>
<filter id="filter0_d_8590_17188" x="-85" y="-72" width="1592" height="1176" filterUnits="userSpaceOnUse" color-interpolation-filters="sRGB">
<feFlood flood-opacity="0" result="BackgroundImageFix"/>
<feColorMatrix in="SourceAlpha" type="matrix" values="0 0 0 0 0 0 0 0 0 0 0 0 0 0 0 0 0 0 127 0" result="hardAlpha"/>
<feOffset dx="-9" dy="4"/>
<feGaussianBlur stdDeviation="38"/>
<feComposite in2="hardAlpha" operator="out"/>
<feColorMatrix type="matrix" values="0 0 0 0 0 0 0 0 0 0 0 0 0 0 0 0 0 0 0.25 0"/>
<feBlend mode="normal" in2="BackgroundImageFix" result="effect1_dropShadow_8590_17188"/>
<feBlend mode="normal" in="SourceGraphic" in2="effect1_dropShadow_8590_17188" result="shape"/>
</filter>
<filter id="filter1_dd_8590_17188" x="-646" y="-11" width="1486" height="1052" filterUnits="userSpaceOnUse" color-interpolation-filters="sRGB">
<feFlood flood-opacity="0" result="BackgroundImageFix"/>
<feColorMatrix in="SourceAlpha" type="matrix" values="0 0 0 0 0 0 0 0 0 0 0 0 0 0 0 0 0 0 127 0" result="hardAlpha"/>
<feOffset dy="4"/>
<feGaussianBlur stdDeviation="2"/>
<feComposite in2="hardAlpha" operator="out"/>
<feColorMatrix type="matrix" values="0 0 0 0 0 0 0 0 0 0 0 0 0 0 0 0 0 0 0.25 0"/>
<feBlend mode="normal" in2="BackgroundImageFix" result="effect1_dropShadow_8590_17188"/>
<feColorMatrix in="SourceAlpha" type="matrix" values="0 0 0 0 0 0 0 0 0 0 0 0 0 0 0 0 0 0 127 0" result="hardAlpha"/>
<feOffset dy="4"/>
<feGaussianBlur stdDeviation="2"/>
<feComposite in2="hardAlpha" operator="out"/>
<feColorMatrix type="matrix" values="0 0 0 0 0 0 0 0 0 0 0 0 0 0 0 0 0 0 0.25 0"/>
<feBlend mode="normal" in2="effect1_dropShadow_8590_17188" result="effect2_dropShadow_8590_17188"/>
<feBlend mode="normal" in="SourceGraphic" in2="effect2_dropShadow_8590_17188" result="shape"/>
</filter>
<filter id="filter2_dd_8590_17188" x="-810" y="-11" width="1484" height="1052" filterUnits="userSpaceOnUse" color-interpolation-filters="sRGB">
<feFlood flood-opacity="0" result="BackgroundImageFix"/>
<feColorMatrix in="SourceAlpha" type="matrix" values="0 0 0 0 0 0 0 0 0 0 0 0 0 0 0 0 0 0 127 0" result="hardAlpha"/>
<feOffset dy="4"/>
<feGaussianBlur stdDeviation="2"/>
<feComposite in2="hardAlpha" operator="out"/>
<feColorMatrix type="matrix" values="0 0 0 0 0 0 0 0 0 0 0 0 0 0 0 0 0 0 0.25 0"/>
<feBlend mode="normal" in2="BackgroundImageFix" result="effect1_dropShadow_8590_17188"/>
<feColorMatrix in="SourceAlpha" type="matrix" values="0 0 0 0 0 0 0 0 0 0 0 0 0 0 0 0 0 0 127 0" result="hardAlpha"/>
<feOffset dy="4"/>
<feGaussianBlur stdDeviation="2"/>
<feComposite in2="hardAlpha" operator="out"/>
<feColorMatrix type="matrix" values="0 0 0 0 0 0 0 0 0 0 0 0 0 0 0 0 0 0 0.25 0"/>
<feBlend mode="normal" in2="effect1_dropShadow_8590_17188" result="effect2_dropShadow_8590_17188"/>
<feBlend mode="normal" in="SourceGraphic" in2="effect2_dropShadow_8590_17188" result="shape"/>
</filter>
<filter id="filter3_dd_8590_17188" x="-1008" y="-11" width="1485" height="1052" filterUnits="userSpaceOnUse" color-interpolation-filters="sRGB">
<feFlood flood-opacity="0" result="BackgroundImageFix"/>
<feColorMatrix in="SourceAlpha" type="matrix" values="0 0 0 0 0 0 0 0 0 0 0 0 0 0 0 0 0 0 127 0" result="hardAlpha"/>
<feOffset dy="4"/>
<feGaussianBlur stdDeviation="2"/>
<feComposite in2="hardAlpha" operator="out"/>
<feColorMatrix type="matrix" values="0 0 0 0 0 0 0 0 0 0 0 0 0 0 0 0 0 0 0.25 0"/>
<feBlend mode="normal" in2="BackgroundImageFix" result="effect1_dropShadow_8590_17188"/>
<feColorMatrix in="SourceAlpha" type="matrix" values="0 0 0 0 0 0 0 0 0 0 0 0 0 0 0 0 0 0 127 0" result="hardAlpha"/>
<feOffset dy="4"/>
<feGaussianBlur stdDeviation="2"/>
<feComposite in2="hardAlpha" operator="out"/>
<feColorMatrix type="matrix" values="0 0 0 0 0 0 0 0 0 0 0 0 0 0 0 0 0 0 0.25 0"/>
<feBlend mode="normal" in2="effect1_dropShadow_8590_17188" result="effect2_dropShadow_8590_17188"/>
<feBlend mode="normal" in="SourceGraphic" in2="effect2_dropShadow_8590_17188" result="shape"/>
</filter>
<filter id="filter4_dd_8590_17188" x="87" y="399" width="240" height="240" filterUnits="userSpaceOnUse" color-interpolation-filters="sRGB">
<feFlood flood-opacity="0" result="BackgroundImageFix"/>
<feColorMatrix in="SourceAlpha" type="matrix" values="0 0 0 0 0 0 0 0 0 0 0 0 0 0 0 0 0 0 127 0" result="hardAlpha"/>
<feOffset dy="8"/>
<feGaussianBlur stdDeviation="10"/>
<feComposite in2="hardAlpha" operator="out"/>
<feColorMatrix type="matrix" values="0 0 0 0 0 0 0 0 0 0 0 0 0 0 0 0 0 0 0.1 0"/>
<feBlend mode="normal" in2="BackgroundImageFix" result="effect1_dropShadow_8590_17188"/>
<feColorMatrix in="SourceAlpha" type="matrix" values="0 0 0 0 0 0 0 0 0 0 0 0 0 0 0 0 0 0 127 0" result="hardAlpha"/>
<feOffset dy="4"/>
<feGaussianBlur stdDeviation="2"/>
<feComposite in2="hardAlpha" operator="out"/>
<feColorMatrix type="matrix" values="0 0 0 0 0 0 0 0 0 0 0 0 0 0 0 0 0 0 0.25 0"/>
<feBlend mode="normal" in2="effect1_dropShadow_8590_17188" result="effect2_dropShadow_8590_17188"/>
<feBlend mode="normal" in="SourceGraphic" in2="effect2_dropShadow_8590_17188" result="shape"/>
</filter>
<linearGradient id="paint0_linear_8590_17188" x1="3.1532e-07" y1="525.966" x2="1477.91" y2="510.069" gradientUnits="userSpaceOnUse">
<stop stop-color="#674EFF"/>
<stop offset="0.239347" stop-color="#A669FD"/>
</linearGradient>
<linearGradient id="paint1_linear_8590_17188" x1="3.14893e-07" y1="525.966" x2="1475.91" y2="510.112" gradientUnits="userSpaceOnUse">
<stop stop-color="#674EFF"/>
<stop offset="0.211736" stop-color="#A669FD"/>
</linearGradient>
<linearGradient id="paint2_linear_8590_17188" x1="3.15106e-07" y1="525.966" x2="1476.91" y2="510.09" gradientUnits="userSpaceOnUse">
<stop stop-color="#674EFF"/>
<stop offset="0.430934" stop-color="#A669FD"/>
</linearGradient>
<linearGradient id="paint3_linear_8590_17188" x1="1.42939e-08" y1="33.7545" x2="67" y2="33.2455" gradientUnits="userSpaceOnUse">
<stop stop-color="#674EFF"/>
<stop offset="1" stop-color="#A669FD"/>
</linearGradient>
<linearGradient id="paint4_linear_8590_17188" x1="1.13071e-08" y1="26.7014" x2="53" y2="26.2986" gradientUnits="userSpaceOnUse">
<stop stop-color="#674EFF"/>
<stop offset="1" stop-color="#A669FD"/>
</linearGradient>
<clipPath id="clip0_8590_17188">
<rect width="1440" height="1024" fill="white"/>
</clipPath>
</defs>
</svg>
