<svg width="320" height="290" viewBox="0 0 320 290" fill="none" xmlns="http://www.w3.org/2000/svg">
<rect x="235.133" width="537" height="379" rx="189.5" transform="rotate(38.3457 235.133 0)" fill="url(#paint0_linear_9127_7)" fill-opacity="0.5"/>
<rect x="282.188" y="37.2246" width="537" height="379" rx="189.5" transform="rotate(38.3457 282.188 37.2246)" fill="url(#paint1_linear_9127_7)" fill-opacity="0.75"/>
<path d="M221.09 230.515C286.02 148.434 405.196 134.53 487.278 199.46L611.194 297.484C693.276 362.414 707.179 481.591 642.249 563.672V563.672C577.319 645.753 458.142 659.657 376.061 594.727L252.145 496.703C170.063 431.773 156.159 312.596 221.09 230.515V230.515Z" fill="url(#paint2_linear_9127_7)"/>
<path d="M140.752 224.709C146.916 229.585 147.905 238.233 143.357 243.983C138.809 249.732 130.165 250.76 124.002 245.885C117.838 241.009 116.849 232.361 121.397 226.611C125.945 220.862 134.589 219.834 140.752 224.709Z" stroke="white" stroke-opacity="0.51" stroke-width="10"/>
<ellipse cx="295.249" cy="168.166" rx="12.5" ry="12" transform="rotate(38.3457 295.249 168.166)" fill="white" fill-opacity="0.3"/>
<circle cx="185.346" cy="108.345" r="9.5" transform="rotate(38.3457 185.346 108.345)" fill="url(#paint3_linear_9127_7)" fill-opacity="0.5"/>
<defs>
<linearGradient id="paint0_linear_9127_7" x1="235.133" y1="190.94" x2="772.102" y2="185.159" gradientUnits="userSpaceOnUse">
<stop stop-color="#674EFF"/>
<stop offset="0.239347" stop-color="#A669FD"/>
</linearGradient>
<linearGradient id="paint1_linear_9127_7" x1="282.188" y1="228.164" x2="819.156" y2="222.384" gradientUnits="userSpaceOnUse">
<stop stop-color="#674EFF"/>
<stop offset="0.211736" stop-color="#A669FD"/>
</linearGradient>
<linearGradient id="paint2_linear_9127_7" x1="220.196" y1="231.644" x2="644.918" y2="560.248" gradientUnits="userSpaceOnUse">
<stop stop-color="#674EFF"/>
<stop offset="0.430934" stop-color="#A669FD"/>
</linearGradient>
<linearGradient id="paint3_linear_9127_7" x1="175.846" y1="108.417" x2="194.846" y2="108.272" gradientUnits="userSpaceOnUse">
<stop stop-color="#674EFF"/>
<stop offset="1" stop-color="#A669FD"/>
</linearGradient>
</defs>
</svg>
