<svg width="30" height="43" viewBox="0 0 30 43" fill="none" xmlns="http://www.w3.org/2000/svg">
<path d="M15.002 0.406299C13.154 0.401402 11.3232 0.761715 9.61489 1.46654C7.90595 2.17162 6.35323 3.20755 5.04601 4.51476C3.7388 5.82198 2.70287 7.3747 1.99779 9.08364C1.29297 10.792 0.932652 12.6228 0.937549 14.4708C0.937549 20.0622 3.80964 23.8091 5.24569 24.9836C5.37438 25.1051 5.50529 25.2278 5.63757 25.3517C6.46499 26.127 7.34599 26.9526 8.0732 27.8523C8.93088 28.9134 9.37505 29.8439 9.37505 30.6407V32.75C9.37505 33.5267 10.0046 34.1563 10.7813 34.1563C11.558 34.1563 12.1876 33.5267 12.1876 32.75V30.6407C12.1876 28.8623 11.2408 27.2971 10.2605 26.0843C9.39984 25.0195 8.35923 24.046 7.54063 23.2802L7.53905 23.2787C7.4123 23.1601 7.29087 23.0465 7.17629 22.9384C5.01192 20.8953 3.75005 17.8052 3.75005 14.4688L3.75004 14.4649C3.74592 12.9869 4.034 11.5226 4.5977 10.1563C5.16141 8.79002 5.98964 7.54862 7.03475 6.5035C8.07987 5.45838 9.32127 4.63016 10.6876 4.06645C12.0539 3.50275 13.5181 3.21467 14.9961 3.21879L15.0001 3.2188C21.2767 3.2188 26.25 8.21248 26.25 14.4688C26.25 17.9331 25.0505 20.8097 22.8174 22.9445C22.6883 23.068 22.5503 23.1985 22.4061 23.3348C21.5944 24.1026 20.5767 25.0651 19.7356 26.1064C18.759 27.3155 17.8126 28.8735 17.8126 30.6407V32.75C17.8126 33.5267 18.4421 34.1563 19.2188 34.1563C19.9955 34.1563 20.6251 33.5267 20.6251 32.75V30.6407C20.6251 29.859 21.0646 28.9372 21.9236 27.8736C22.6352 26.9926 23.4925 26.1804 24.3083 25.4076L24.3125 25.4036C24.4638 25.2603 24.6136 25.1183 24.7608 24.9775C27.5972 22.266 29.0625 18.6317 29.0625 14.4688C29.0625 6.66328 22.8344 0.407347 15.002 0.406299Z" fill="#333333"/>
<path d="M10.7813 41.1875C10.7813 40.4109 11.4109 39.7812 12.1875 39.7812H17.8125C18.5892 39.7812 19.2188 40.4109 19.2188 41.1875C19.2188 41.9641 18.5892 42.5938 17.8125 42.5938H12.1875C11.4109 42.5938 10.7813 41.9641 10.7813 41.1875Z" fill="#333333"/>
<path d="M10.7813 35.5625C10.0046 35.5625 9.375 36.1921 9.375 36.9688C9.375 37.7454 10.0046 38.375 10.7813 38.375H19.2188C19.9954 38.375 20.625 37.7454 20.625 36.9688C20.625 36.1921 19.9954 35.5625 19.2188 35.5625H10.7813Z" fill="#333333"/>
<path d="M16.4063 22.665C17.2582 22.4006 18.2165 21.9208 19.1748 21.2363C19.7021 20.8596 19.9218 20.0498 19.5703 19.4346C19.413 19.1594 18.999 18.6875 18.3837 18.6875C17.9516 18.6875 17.7846 18.7895 17.5645 18.924C17.2251 19.1313 16.7594 19.4158 14.9999 19.5225C13.2405 19.4158 12.7747 19.1313 12.4354 18.924C12.2153 18.7895 12.0483 18.6875 11.6161 18.6875C11.0009 18.6875 10.5868 19.1594 10.4296 19.4346C10.078 20.0498 10.2978 20.8596 10.8251 21.2363C11.7834 21.9208 12.7417 22.4006 13.5938 22.6651V32.75C13.5938 33.5266 14.2234 34.1562 15 34.1562C15.7767 34.1562 16.4063 33.5266 16.4063 32.75V22.665Z" fill="#333333"/>
</svg>
