<svg width="27" height="27" viewBox="0 0 27 27" fill="none" xmlns="http://www.w3.org/2000/svg">
<path d="M13.5 0.492676C17.1408 0.492676 20.4301 1.99121 22.79 4.40283L11.9238 16.4771L6.87793 12.6929L6.27832 13.4927L5.67773 14.2925L10.7236 18.0767C11.552 18.6979 12.7185 18.5846 13.4111 17.8149L24.0889 5.94971C25.6068 8.07677 26.5 10.6804 26.5 13.4927C26.5 20.6724 20.6797 26.4927 13.5 26.4927C6.3203 26.4927 0.5 20.6724 0.5 13.4927C0.5 6.31297 6.3203 0.492676 13.5 0.492676ZM6.87793 12.6929C6.43616 12.3619 5.80883 12.4505 5.47754 12.8921C5.14629 13.3338 5.23633 13.961 5.67773 14.2925L6.87793 12.6929Z" fill="white"/>
</svg>
