<svg width="23" height="23" viewBox="0 0 23 23" fill="none" xmlns="http://www.w3.org/2000/svg">
<path fill-rule="evenodd" clip-rule="evenodd" d="M17.25 7.70801C18.2854 7.70801 19.1248 8.54762 19.125 9.58301C19.125 10.6185 18.2855 11.458 17.25 11.458H15.2445L17.2445 13.458H17.25C19.3901 13.458 21.125 11.7231 21.125 9.58301C21.1248 7.44305 19.39 5.70801 17.25 5.70801C17.2258 5.70801 17.2034 5.70802 17.1827 5.70803C17.0955 5.70809 17.0371 5.70813 16.9922 5.70703C16.9878 5.70692 16.9837 5.70668 16.98 5.70645C16.9774 5.70629 16.9749 5.70614 16.9727 5.70605C16.9664 5.69321 16.9582 5.67638 16.9482 5.65527L16.7861 5.29688C15.8816 3.28169 13.8561 1.875 11.5 1.875C9.29106 1.875 7.37291 3.11159 6.39648 4.92676L6.21387 5.29688C6.20071 5.3262 6.1883 5.35386 6.1766 5.37998C6.12214 5.50144 6.08271 5.58938 6.05176 5.65527C6.04537 5.66887 6.03938 5.68052 6.03424 5.69053C6.03131 5.69622 6.02866 5.70138 6.02637 5.70605C6.02413 5.70613 6.02172 5.70629 6.01913 5.70646C6.01565 5.70669 6.01186 5.70693 6.00781 5.70703C5.96287 5.70813 5.90446 5.70809 5.81729 5.70803C5.79656 5.70802 5.77419 5.70801 5.75 5.70801C3.61001 5.70801 1.87518 7.44305 1.875 9.58301C1.875 11.7231 3.6099 13.458 5.75 13.458H5.75553L7.75553 11.458H5.75C4.71447 11.458 3.875 10.6185 3.875 9.58301C3.87518 8.54762 4.71457 7.70801 5.75 7.70801C5.76921 7.70801 5.78884 7.70805 5.80881 7.70809C5.98721 7.70846 6.19206 7.70889 6.36035 7.68066L6.54102 7.64453C6.72741 7.60017 6.92831 7.52864 7.125 7.40137C7.38708 7.23173 7.56232 7.01479 7.69336 6.81836L7.78906 6.65332C7.81736 6.59904 7.84177 6.54748 7.86133 6.50586C7.90406 6.41492 7.95672 6.29754 8.01977 6.15703C8.02578 6.14364 8.03189 6.13003 8.03809 6.11621L8.1582 5.87305C8.79894 4.682 10.0562 3.875 11.5 3.875C13.04 3.875 14.3681 4.79323 14.9619 6.11621L15.1387 6.50586C15.1779 6.58929 15.2362 6.71282 15.3066 6.81836L15.4141 6.96875C15.5308 7.12045 15.6786 7.27422 15.875 7.40137C16.137 7.57093 16.4068 7.64156 16.6396 7.68066L16.7871 7.69824C16.919 7.70872 17.0608 7.70839 17.189 7.7081C17.2097 7.70805 17.2301 7.70801 17.25 7.70801Z" fill="#9E9E9E"/>
<path d="M11.5 11.5L10.7929 10.7929L11.5 10.0858L12.2071 10.7929L11.5 11.5ZM12.5 18.6875C12.5 19.2398 12.0523 19.6875 11.5 19.6875C10.9477 19.6875 10.5 19.2398 10.5 18.6875L12.5 18.6875ZM7.66669 15.3333L6.95958 14.6262L10.7929 10.7929L11.5 11.5L12.2071 12.2071L8.37379 16.0404L7.66669 15.3333ZM11.5 11.5L12.2071 10.7929L16.0405 14.6262L15.3334 15.3333L14.6262 16.0404L10.7929 12.2071L11.5 11.5ZM11.5 11.5L12.5 11.5L12.5 18.6875L11.5 18.6875L10.5 18.6875L10.5 11.5L11.5 11.5Z" fill="#9E9E9E"/>
</svg>
