<svg width="44" height="31" viewBox="0 0 44 31" fill="none" xmlns="http://www.w3.org/2000/svg">
<path fill-rule="evenodd" clip-rule="evenodd" d="M14.6208 4.73022C15.1322 5.31471 15.073 6.20312 14.4885 6.71455L4.44802 15.5L14.4885 24.2854C15.073 24.7969 15.1322 25.6853 14.6208 26.2698C14.1094 26.8543 13.221 26.9135 12.6365 26.4021L1.38648 16.5583C1.0813 16.2913 0.90625 15.9055 0.90625 15.5C0.90625 15.0945 1.0813 14.7087 1.38648 14.4417L12.6365 4.59793C13.221 4.0865 14.1094 4.14573 14.6208 4.73022Z" fill="#333333"/>
<path fill-rule="evenodd" clip-rule="evenodd" d="M29.3792 4.73022C29.8906 4.14573 30.7791 4.0865 31.3635 4.59793L42.6135 14.4417C42.9187 14.7087 43.0938 15.0945 43.0938 15.5C43.0938 15.9055 42.9187 16.2913 42.6135 16.5583L31.3635 26.4021C30.7791 26.9135 29.8906 26.8543 29.3792 26.2698C28.8678 25.6853 28.927 24.7969 29.5115 24.2854L39.552 15.5L29.5115 6.71455C28.927 6.20312 28.8678 5.31471 29.3792 4.73022Z" fill="#333333"/>
<path fill-rule="evenodd" clip-rule="evenodd" d="M26.6229 0.0904388C27.3668 0.313608 27.7889 1.09757 27.5657 1.84146L19.1282 29.9665C18.9051 30.7104 18.1211 31.1325 17.3772 30.9093C16.6333 30.6862 16.2112 29.9022 16.4343 29.1583L24.8718 1.0333C25.095 0.289403 25.879 -0.13273 26.6229 0.0904388Z" fill="#333333"/>
</svg>
