<svg width="41" height="27" viewBox="0 0 41 27" fill="none" xmlns="http://www.w3.org/2000/svg">
<path fill-rule="evenodd" clip-rule="evenodd" d="M39.7073 1.19171C40.2918 1.70314 40.351 2.59155 39.8396 3.17604L20.1521 25.676C19.8958 25.969 19.5295 26.1425 19.1405 26.1555C18.7516 26.1684 18.3746 26.0196 18.0994 25.7444L9.66188 17.3069C9.11271 16.7577 9.11271 15.8673 9.66188 15.3182C10.2111 14.769 11.1014 14.769 11.6506 15.3182L19.0253 22.6928L37.7229 1.324C38.2344 0.739508 39.1228 0.68028 39.7073 1.19171Z" fill="#333333"/>
<path fill-rule="evenodd" clip-rule="evenodd" d="M1.22438 15.3181C1.77356 14.769 2.66394 14.769 3.21312 15.3181L11.6506 23.7556C12.1998 24.3048 12.1998 25.1952 11.6506 25.7444C11.1014 26.2935 10.2111 26.2935 9.66188 25.7444L1.22438 17.3069C0.675206 16.7577 0.675206 15.8673 1.22438 15.3181Z" fill="#333333"/>
<path fill-rule="evenodd" clip-rule="evenodd" d="M31.2679 1.19003C31.8533 1.70039 31.9141 2.5887 31.4038 3.17412L19.4506 16.8851C18.9403 17.4705 18.052 17.5313 17.4665 17.021C16.8811 16.5106 16.8203 15.6223 17.3307 15.0369L29.2838 1.32592C29.7941 0.740506 30.6824 0.679663 31.2679 1.19003Z" fill="#333333"/>
</svg>
