<svg width="62" height="62" viewBox="0 0 62 62" fill="none" xmlns="http://www.w3.org/2000/svg">
<path d="M31.407 61.2133C48.2332 61.2133 61.8735 47.573 61.8735 30.7468C61.8735 13.9206 48.2332 0.280273 31.407 0.280273C14.5808 0.280273 0.94043 13.9206 0.94043 30.7468C0.94043 47.573 14.5808 61.2133 31.407 61.2133Z" fill="url(#paint0_linear_9156_16203)"/>
<path d="M35.4324 39.915C34.9026 40.1477 34.2734 40.3322 33.5809 40.4581C32.8884 40.584 32.1462 40.6488 31.3966 40.6488C30.647 40.6488 29.9048 40.584 29.2123 40.4581C28.5199 40.3322 27.8907 40.1477 27.3608 39.915" fill="white"/>
<path d="M35.4324 39.915C34.9026 40.1477 34.2734 40.3322 33.5809 40.4581C32.8884 40.584 32.1462 40.6488 31.3966 40.6488C30.647 40.6488 29.9048 40.584 29.2123 40.4581C28.5199 40.3322 27.8907 40.1477 27.3608 39.915" stroke="black" stroke-width="2" stroke-linecap="round" stroke-linejoin="round"/>
<path d="M24.1395 25.7532C25.1243 25.7532 25.9226 24.9549 25.9226 23.9701C25.9226 22.9853 25.1243 22.187 24.1395 22.187C23.1548 22.187 22.3564 22.9853 22.3564 23.9701C22.3564 24.9549 23.1548 25.7532 24.1395 25.7532Z" fill="black" stroke="black" stroke-width="2" stroke-linecap="round" stroke-linejoin="round"/>
<path d="M37.6825 25.7532C38.6673 25.7532 39.4656 24.9549 39.4656 23.9701C39.4656 22.9853 38.6673 22.187 37.6825 22.187C36.6977 22.187 35.8994 22.9853 35.8994 23.9701C35.8994 24.9549 36.6977 25.7532 37.6825 25.7532Z" fill="black" stroke="black" stroke-width="2" stroke-linecap="round" stroke-linejoin="round"/>
<defs>
<linearGradient id="paint0_linear_9156_16203" x1="31.407" y1="0.280273" x2="31.407" y2="61.2133" gradientUnits="userSpaceOnUse">
<stop offset="0.326022" stop-color="#2298FF"/>
<stop offset="0.734375" stop-color="#47BDFF"/>
</linearGradient>
</defs>
</svg>
