<svg width="38" height="38" viewBox="0 0 38 38" fill="none" xmlns="http://www.w3.org/2000/svg">
<g filter="url(#filter0_d_6925_13597)">
<mask id="mask0_6925_13597" style="mask-type:luminance" maskUnits="userSpaceOnUse" x="4" y="0" width="30" height="30">
<path d="M32.8936 12.2373H18.9567V18.016H26.9789C26.2311 21.6872 23.1038 23.7947 18.9567 23.7947C14.0618 23.7947 10.1186 19.8516 10.1186 14.9567C10.1186 10.0618 14.0618 6.11865 18.9567 6.11865C21.0642 6.11865 22.9678 6.8665 24.4635 8.09023L28.8145 3.73917C26.1631 1.42768 22.7639 0 18.9567 0C10.6625 0 4 6.66253 4 14.9567C4 23.2509 10.6625 29.9134 18.9567 29.9134C26.435 29.9134 33.2335 24.4746 33.2335 14.9567C33.2335 14.0729 33.0976 13.1211 32.8936 12.2373Z" fill="white"/>
</mask>
<g mask="url(#mask0_6925_13597)">
<path d="M2.64062 23.7943V6.11816L14.1981 14.9562L2.64062 23.7943Z" fill="#FBBC05"/>
</g>
<mask id="mask1_6925_13597" style="mask-type:luminance" maskUnits="userSpaceOnUse" x="4" y="0" width="30" height="30">
<path d="M32.8936 12.2373H18.9567V18.016H26.9789C26.2311 21.6872 23.1038 23.7947 18.9567 23.7947C14.0618 23.7947 10.1186 19.8516 10.1186 14.9567C10.1186 10.0618 14.0618 6.11865 18.9567 6.11865C21.0642 6.11865 22.9678 6.8665 24.4635 8.09023L28.8145 3.73917C26.1631 1.42768 22.7639 0 18.9567 0C10.6625 0 4 6.66253 4 14.9567C4 23.2509 10.6625 29.9134 18.9567 29.9134C26.435 29.9134 33.2335 24.4746 33.2335 14.9567C33.2335 14.0729 33.0976 13.1211 32.8936 12.2373Z" fill="white"/>
</mask>
<g mask="url(#mask1_6925_13597)">
<path d="M2.64062 6.11897L14.1981 14.957L18.957 10.81L35.2734 8.15852V-1.35938H2.64062V6.11897Z" fill="#EA4335"/>
</g>
<mask id="mask2_6925_13597" style="mask-type:luminance" maskUnits="userSpaceOnUse" x="4" y="0" width="30" height="30">
<path d="M32.8936 12.2373H18.9567V18.016H26.9789C26.2311 21.6872 23.1038 23.7947 18.9567 23.7947C14.0618 23.7947 10.1186 19.8516 10.1186 14.9567C10.1186 10.0618 14.0618 6.11865 18.9567 6.11865C21.0642 6.11865 22.9678 6.8665 24.4635 8.09023L28.8145 3.73917C26.1631 1.42768 22.7639 0 18.9567 0C10.6625 0 4 6.66253 4 14.9567C4 23.2509 10.6625 29.9134 18.9567 29.9134C26.435 29.9134 33.2335 24.4746 33.2335 14.9567C33.2335 14.0729 33.0976 13.1211 32.8936 12.2373Z" fill="white"/>
</mask>
<g mask="url(#mask2_6925_13597)">
<path d="M2.64062 23.7951L23.0361 8.15852L28.4069 8.83837L35.2734 -1.35938V31.2734H2.64062V23.7951Z" fill="#34A853"/>
</g>
<mask id="mask3_6925_13597" style="mask-type:luminance" maskUnits="userSpaceOnUse" x="4" y="0" width="30" height="30">
<path d="M32.8936 12.2373H18.9567V18.016H26.9789C26.2311 21.6872 23.1038 23.7947 18.9567 23.7947C14.0618 23.7947 10.1186 19.8516 10.1186 14.9567C10.1186 10.0618 14.0618 6.11865 18.9567 6.11865C21.0642 6.11865 22.9678 6.8665 24.4635 8.09023L28.8145 3.73917C26.1631 1.42768 22.7639 0 18.9567 0C10.6625 0 4 6.66253 4 14.9567C4 23.2509 10.6625 29.9134 18.9567 29.9134C26.435 29.9134 33.2335 24.4746 33.2335 14.9567C33.2335 14.0729 33.0976 13.1211 32.8936 12.2373Z" fill="white"/>
</mask>
<g mask="url(#mask3_6925_13597)">
<path d="M35.2713 31.2726L14.196 14.9562L11.4766 12.9167L35.2713 6.11816V31.2726Z" fill="#4285F4"/>
</g>
</g>
<defs>
<filter id="filter0_d_6925_13597" x="0" y="0" width="37.2344" height="37.9131" filterUnits="userSpaceOnUse" color-interpolation-filters="sRGB">
<feFlood flood-opacity="0" result="BackgroundImageFix"/>
<feColorMatrix in="SourceAlpha" type="matrix" values="0 0 0 0 0 0 0 0 0 0 0 0 0 0 0 0 0 0 127 0" result="hardAlpha"/>
<feOffset dy="4"/>
<feGaussianBlur stdDeviation="2"/>
<feComposite in2="hardAlpha" operator="out"/>
<feColorMatrix type="matrix" values="0 0 0 0 0 0 0 0 0 0 0 0 0 0 0 0 0 0 0.25 0"/>
<feBlend mode="normal" in2="BackgroundImageFix" result="effect1_dropShadow_6925_13597"/>
<feBlend mode="normal" in="SourceGraphic" in2="effect1_dropShadow_6925_13597" result="shape"/>
</filter>
</defs>
</svg>
