<svg width="240" height="240" viewBox="0 0 240 240" fill="none" xmlns="http://www.w3.org/2000/svg">
<g filter="url(#filter0_dd_6921_13063)">
<rect x="20" y="12" width="200" height="200" rx="60" fill="white" fill-opacity="0.3" shape-rendering="crispEdges"/>
<rect x="20.5" y="12.5" width="199" height="199" rx="59.5" stroke="#EFE3E3" shape-rendering="crispEdges"/>
<path d="M126.677 58.2812C134.615 58.2812 142.63 58.2812 150.542 58.2812C155.494 58.2812 158.506 61.3844 158.199 65.7956C158.168 66.6564 157.963 67.5018 157.596 68.2805C157.23 69.0592 156.71 69.7551 156.068 70.3258C155.426 70.8966 154.675 71.3304 153.861 71.6009C153.047 71.8714 152.187 71.9729 151.333 71.8994C137.703 71.8994 124.074 71.8994 110.495 71.8994C106.374 71.7882 102.254 72.1583 98.2178 73.0022C93.8153 74.0981 89.909 76.6534 87.1302 80.2553C84.3513 83.8572 82.8622 88.2952 82.9034 92.8524C82.9034 100.546 82.9034 108.035 82.9034 115.601C82.9106 117.175 82.4201 118.712 81.5027 119.988C80.5854 121.265 79.2884 122.216 77.7986 122.705C76.4775 123.149 75.0504 123.163 73.7211 122.743C72.3918 122.324 71.2283 121.494 70.3967 120.371C69.5617 119.273 69.0649 117.953 68.9673 116.575C68.9673 107.445 68.3803 98.2638 69.1715 89.2107C69.9365 82.0139 72.9566 75.2472 77.7963 69.8865C82.636 64.5259 89.0451 60.8482 96.0993 59.384C100.16 58.6561 104.277 58.2871 108.402 58.2812C114.553 58.2812 120.577 58.2812 126.677 58.2812Z" fill="#333333"/>
<path d="M113.226 164.893C105.569 164.893 97.912 164.893 90.1017 164.893C88.1101 164.819 86.1768 164.198 84.5119 163.098C83.4469 162.196 82.6875 160.983 82.3388 159.628C81.9901 158.274 82.0694 156.843 82.5658 155.536C83.0622 154.228 83.9511 153.108 85.1092 152.331C86.2674 151.554 87.6375 151.158 89.0297 151.198H129.868C134.423 151.403 138.962 150.524 143.115 148.633C147.368 146.703 150.953 143.547 153.417 139.565C155.88 135.583 157.109 130.955 156.949 126.269C156.949 120.576 156.949 114.857 156.949 109.163C156.906 107.697 156.991 106.229 157.204 104.778C157.56 103.309 158.399 102.004 159.585 101.073C160.77 100.142 162.234 99.6403 163.738 99.6486C165.295 99.5868 166.822 100.093 168.037 101.073C169.252 102.053 170.073 103.442 170.349 104.983C170.885 115.395 171.778 125.91 169.66 136.195C167.751 143.839 163.511 150.693 157.534 155.797C151.557 160.901 144.142 164.001 136.326 164.662C128.668 165.047 121.011 164.662 113.201 164.662L113.226 164.893Z" fill="#333333"/>
<path d="M152.099 81.3629C153.297 81.237 154.507 81.4195 155.615 81.8932C156.723 82.3668 157.693 83.1161 158.433 84.0704C159.174 85.0247 159.66 86.1527 159.847 87.3481C160.034 88.5435 159.915 89.7669 159.501 90.9033C159.112 92.0716 158.368 93.0881 157.375 93.8102C156.382 94.5323 155.188 94.9238 153.962 94.9298C147.458 95.7149 141.384 98.6044 136.657 103.162C133.446 106.378 130.595 109.939 128.157 113.78C123.436 120.807 118.816 127.885 111.95 133.117C104.974 138.615 96.8213 142.408 88.1358 144.196C86.381 144.603 84.5375 144.309 82.9945 143.376C81.4515 142.443 80.3297 140.944 79.866 139.195C79.5677 138.279 79.4769 137.308 79.6004 136.353C79.7239 135.397 80.0585 134.481 80.5796 133.672C81.1008 132.863 81.7955 132.182 82.6127 131.678C83.4299 131.173 84.349 130.859 85.3027 130.758C90.7853 129.58 95.9753 127.304 100.563 124.065C105.15 120.826 109.04 116.691 112.001 111.908C113.941 108.804 115.88 105.676 117.999 102.701C125.385 91.8755 136.637 84.3256 149.419 81.6194C149.891 81.5088 150.368 81.4232 150.848 81.3629H152.099Z" fill="#5C5C5C"/>
</g>
<defs>
<filter id="filter0_dd_6921_13063" x="0" y="0" width="240" height="240" filterUnits="userSpaceOnUse" color-interpolation-filters="sRGB">
<feFlood flood-opacity="0" result="BackgroundImageFix"/>
<feColorMatrix in="SourceAlpha" type="matrix" values="0 0 0 0 0 0 0 0 0 0 0 0 0 0 0 0 0 0 127 0" result="hardAlpha"/>
<feOffset dy="8"/>
<feGaussianBlur stdDeviation="10"/>
<feComposite in2="hardAlpha" operator="out"/>
<feColorMatrix type="matrix" values="0 0 0 0 0 0 0 0 0 0 0 0 0 0 0 0 0 0 0.1 0"/>
<feBlend mode="normal" in2="BackgroundImageFix" result="effect1_dropShadow_6921_13063"/>
<feColorMatrix in="SourceAlpha" type="matrix" values="0 0 0 0 0 0 0 0 0 0 0 0 0 0 0 0 0 0 127 0" result="hardAlpha"/>
<feOffset dy="4"/>
<feGaussianBlur stdDeviation="2"/>
<feComposite in2="hardAlpha" operator="out"/>
<feColorMatrix type="matrix" values="0 0 0 0 0 0 0 0 0 0 0 0 0 0 0 0 0 0 0.25 0"/>
<feBlend mode="normal" in2="effect1_dropShadow_6921_13063" result="effect2_dropShadow_6921_13063"/>
<feBlend mode="normal" in="SourceGraphic" in2="effect2_dropShadow_6921_13063" result="shape"/>
</filter>
</defs>
</svg>
