<svg width="21" height="20" viewBox="0 0 21 20" fill="none" xmlns="http://www.w3.org/2000/svg">
<path d="M11.7673 0.214355C13.245 0.214355 14.7369 0.214355 16.2098 0.214355C17.1316 0.214355 17.6923 0.784016 17.6352 1.59378C17.6294 1.7518 17.5912 1.90699 17.523 2.04994C17.4548 2.19289 17.358 2.32063 17.2385 2.42541C17.119 2.53018 16.9792 2.60981 16.8277 2.65947C16.6762 2.70912 16.5161 2.72777 16.3571 2.71427C13.8199 2.71427 11.2827 2.71427 8.75498 2.71427C7.98784 2.69386 7.2209 2.76179 6.46958 2.91671C5.65003 3.11789 4.92287 3.58697 4.40559 4.24818C3.8883 4.90938 3.6111 5.72409 3.61877 6.56066C3.61877 7.97304 3.61877 9.34776 3.61877 10.7366C3.6201 11.0257 3.5288 11.3077 3.35803 11.542C3.18726 11.7764 2.94582 11.951 2.6685 12.0407C2.42257 12.1223 2.15691 12.1248 1.90946 12.0478C1.66202 11.9709 1.44542 11.8184 1.29061 11.6123C1.13519 11.4107 1.04269 11.1685 1.02454 10.9155C1.02454 9.23948 0.915255 7.55403 1.06255 5.89213C1.20495 4.57101 1.76715 3.32884 2.66807 2.34477C3.56898 1.3607 4.76205 0.685584 6.07522 0.416797C6.83117 0.283176 7.59748 0.215436 8.36537 0.214355C9.51044 0.214355 10.6318 0.214355 11.7673 0.214355Z" fill="#333333"/>
<path d="M9.2595 19.7855C7.8341 19.7855 6.40869 19.7855 4.95478 19.7855C4.58405 19.772 4.22415 19.658 3.91424 19.456C3.71599 19.2904 3.57461 19.0679 3.50971 18.8192C3.4448 18.5705 3.45957 18.3079 3.55197 18.0679C3.64438 17.8279 3.80984 17.6223 4.02543 17.4796C4.24102 17.3369 4.49607 17.2642 4.75523 17.2715H12.3574C13.2053 17.3092 14.0502 17.1479 14.8233 16.8007C15.615 16.4465 16.2825 15.8671 16.741 15.1361C17.1996 14.4051 17.4284 13.5556 17.3986 12.6954C17.3986 11.6502 17.3986 10.6004 17.3986 9.55519C17.3906 9.28598 17.4065 9.01659 17.4461 8.75014C17.5124 8.48048 17.6685 8.24086 17.8892 8.07C18.1099 7.89914 18.3823 7.80702 18.6624 7.80855C18.9523 7.79719 19.2365 7.89006 19.4626 8.07003C19.6888 8.25 19.8417 8.50493 19.893 8.7878C19.9928 10.6992 20.1591 12.6295 19.7647 14.5174C19.4093 15.9207 18.6201 17.1788 17.5075 18.1158C16.3949 19.0528 15.0145 19.6218 13.5595 19.7432C12.1341 19.8138 10.7087 19.7432 9.25475 19.7432L9.2595 19.7855Z" fill="#333333"/>
<path d="M16.5069 4.45144C16.7298 4.42833 16.9551 4.46183 17.1614 4.54878C17.3676 4.63573 17.5482 4.77328 17.686 4.94846C17.8239 5.12365 17.9144 5.33071 17.9492 5.55015C17.984 5.76959 17.9618 5.99418 17.8848 6.20279C17.8123 6.41725 17.674 6.60385 17.489 6.73642C17.3041 6.86898 17.082 6.94085 16.8537 6.94194C15.6429 7.08607 14.5122 7.6165 13.6323 8.45319C13.0345 9.04355 12.504 9.69716 12.0501 10.4023C11.1711 11.6922 10.3111 12.9916 9.03302 13.9521C7.73448 14.9614 6.21684 15.6577 4.60001 15.9859C4.27335 16.0606 3.93018 16.0066 3.64295 15.8353C3.35571 15.664 3.14689 15.3888 3.06057 15.0678C3.00504 14.8997 2.98814 14.7214 3.01112 14.546C3.03411 14.3706 3.09639 14.2025 3.19341 14.054C3.29043 13.9055 3.41974 13.7804 3.57186 13.6878C3.72399 13.5952 3.89508 13.5375 4.07261 13.5189C5.09321 13.3028 6.05935 12.8849 6.91327 12.2904C7.7672 11.6958 8.49138 10.9368 9.04252 10.0586C9.40362 9.48893 9.76473 8.91456 10.1591 8.36844C11.534 6.38126 13.6287 4.9953 16.008 4.49852C16.0958 4.47823 16.1846 4.46251 16.2741 4.45144H16.5069Z" fill="#9E9E9E"/>
</svg>
