<svg width="14" height="14" viewBox="0 0 14 14" fill="none" xmlns="http://www.w3.org/2000/svg">
<path fill-rule="evenodd" clip-rule="evenodd" d="M0 6.64374C0 2.9745 3.13401 0 7 0C10.866 0 14 2.9745 14 6.64374C14 10.313 10.866 13.2875 7 13.2875C3.13401 13.2875 0 10.313 0 6.64374ZM8.16858 3.97485C7.53047 3.44492 6.46986 3.44492 5.83174 3.97485C5.60794 4.16071 5.26776 4.13919 5.07193 3.92677C4.8761 3.71436 4.89878 3.39149 5.12258 3.20563C6.16673 2.3385 7.8336 2.3385 8.87774 3.20563C9.96405 4.10777 9.96405 5.60231 8.87774 6.50445C8.69348 6.65748 8.49052 6.78283 8.27655 6.88112C7.79102 7.10413 7.53862 7.4084 7.53862 7.66586V8.17691C7.53862 8.45916 7.29755 8.68797 7.00016 8.68797C6.70278 8.68797 6.4617 8.45916 6.4617 8.17691V7.66586C6.4617 6.79431 7.22221 6.22988 7.80742 5.96108C7.93854 5.90085 8.06005 5.82536 8.16858 5.73523C8.76454 5.24031 8.76454 4.46977 8.16858 3.97485ZM7 10.7322C7.29738 10.7322 7.53846 10.5034 7.53846 10.2211C7.53846 9.93889 7.29738 9.71008 7 9.71008C6.70262 9.71008 6.46154 9.93889 6.46154 10.2211C6.46154 10.5034 6.70262 10.7322 7 10.7322Z" fill="#454545"/>
</svg>
