<svg width="600" height="1024" viewBox="0 0 600 1024" fill="none" xmlns="http://www.w3.org/2000/svg">
<rect width="1060" height="1044" rx="416" transform="matrix(-1 0 0 1 600 -11)" fill="url(#paint0_linear_8983_8371)" fill-opacity="0.5"/>
<rect width="1058" height="1044" rx="416" transform="matrix(-1 0 0 1 480 -11)" fill="url(#paint1_linear_8983_8371)" fill-opacity="0.75"/>
<rect width="1059" height="1044" rx="416" transform="matrix(-1 0 0 1 339 -11)" fill="url(#paint2_linear_8983_8371)"/>
<circle cx="52" cy="52" r="47" transform="matrix(-1 0 0 1 456 181)" stroke="white" stroke-opacity="0.51" stroke-width="10"/>
<path d="M210 941C191.222 941 176 961.686 176 987C176 1012.31 191.222 1033 210 1033C228.778 1033 244 1012.31 244 987C244 961.686 228.778 941 210 941Z" stroke="white" stroke-opacity="0.51" stroke-width="10"/>
<ellipse cx="24" cy="23.5" rx="24" ry="23.5" transform="matrix(-1 0 0 1 24 605)" fill="white" fill-opacity="0.3"/>
<circle cx="24" cy="24" r="24" transform="matrix(-1 0 0 1 196 41)" fill="white" fill-opacity="0.3"/>
<circle cx="24" cy="24" r="24" transform="matrix(-1 0 0 1 502 87)" fill="url(#paint3_linear_8983_8371)" fill-opacity="0.3"/>
<circle cx="19" cy="19" r="19" transform="matrix(-1 0 0 1 358 638)" fill="url(#paint4_linear_8983_8371)" fill-opacity="0.5"/>
<defs>
<linearGradient id="paint0_linear_8983_8371" x1="2.26087e-07" y1="525.966" x2="1059.93" y2="510.069" gradientUnits="userSpaceOnUse">
<stop stop-color="#674EFF"/>
<stop offset="0.239347" stop-color="#A669FD"/>
</linearGradient>
<linearGradient id="paint1_linear_8983_8371" x1="2.25661e-07" y1="525.966" x2="1057.93" y2="510.112" gradientUnits="userSpaceOnUse">
<stop stop-color="#674EFF"/>
<stop offset="0.211736" stop-color="#A669FD"/>
</linearGradient>
<linearGradient id="paint2_linear_8983_8371" x1="2.25874e-07" y1="525.966" x2="1058.93" y2="510.09" gradientUnits="userSpaceOnUse">
<stop stop-color="#674EFF"/>
<stop offset="0.430934" stop-color="#A669FD"/>
</linearGradient>
<linearGradient id="paint3_linear_8983_8371" x1="1.02439e-08" y1="24.1818" x2="48" y2="23.8182" gradientUnits="userSpaceOnUse">
<stop stop-color="#674EFF"/>
<stop offset="1" stop-color="#A669FD"/>
</linearGradient>
<linearGradient id="paint4_linear_8983_8371" x1="8.10976e-09" y1="19.1439" x2="38" y2="18.8561" gradientUnits="userSpaceOnUse">
<stop stop-color="#674EFF"/>
<stop offset="1" stop-color="#A669FD"/>
</linearGradient>
</defs>
</svg> 