<svg width="836" height="1024" viewBox="0 0 836 1024" fill="none" xmlns="http://www.w3.org/2000/svg">
<rect width="1478" height="1044" rx="416" transform="matrix(-1 0 0 1 836 -11)" fill="url(#paint0_linear_8983_8371)" fill-opacity="0.5"/>
<rect width="1476" height="1044" rx="416" transform="matrix(-1 0 0 1 670 -11)" fill="url(#paint1_linear_8983_8371)" fill-opacity="0.75"/>
<rect width="1477" height="1044" rx="416" transform="matrix(-1 0 0 1 473 -11)" fill="url(#paint2_linear_8983_8371)"/>
<circle cx="52" cy="52" r="47" transform="matrix(-1 0 0 1 636 181)" stroke="white" stroke-opacity="0.51" stroke-width="10"/>
<path d="M293 941C266.951 941 246 961.686 246 987C246 1012.31 266.951 1033 293 1033C319.049 1033 340 1012.31 340 987C340 961.686 319.049 941 293 941Z" stroke="white" stroke-opacity="0.51" stroke-width="10"/>
<ellipse cx="33.5" cy="33" rx="33.5" ry="33" transform="matrix(-1 0 0 1 14 605)" fill="white" fill-opacity="0.3"/>
<circle cx="33.5" cy="33.5" r="33.5" transform="matrix(-1 0 0 1 274 41)" fill="white" fill-opacity="0.3"/>
<circle cx="33.5" cy="33.5" r="33.5" transform="matrix(-1 0 0 1 700 87)" fill="url(#paint3_linear_8983_8371)" fill-opacity="0.3"/>
<circle cx="26.5" cy="26.5" r="26.5" transform="matrix(-1 0 0 1 500 638)" fill="url(#paint4_linear_8983_8371)" fill-opacity="0.5"/>
<defs>
<linearGradient id="paint0_linear_8983_8371" x1="3.1532e-07" y1="525.966" x2="1477.91" y2="510.069" gradientUnits="userSpaceOnUse">
<stop stop-color="#674EFF"/>
<stop offset="0.239347" stop-color="#A669FD"/>
</linearGradient>
<linearGradient id="paint1_linear_8983_8371" x1="3.14893e-07" y1="525.966" x2="1475.91" y2="510.112" gradientUnits="userSpaceOnUse">
<stop stop-color="#674EFF"/>
<stop offset="0.211736" stop-color="#A669FD"/>
</linearGradient>
<linearGradient id="paint2_linear_8983_8371" x1="3.15106e-07" y1="525.966" x2="1476.91" y2="510.09" gradientUnits="userSpaceOnUse">
<stop stop-color="#674EFF"/>
<stop offset="0.430934" stop-color="#A669FD"/>
</linearGradient>
<linearGradient id="paint3_linear_8983_8371" x1="1.42939e-08" y1="33.7545" x2="67" y2="33.2455" gradientUnits="userSpaceOnUse">
<stop stop-color="#674EFF"/>
<stop offset="1" stop-color="#A669FD"/>
</linearGradient>
<linearGradient id="paint4_linear_8983_8371" x1="1.13071e-08" y1="26.7014" x2="53" y2="26.2986" gradientUnits="userSpaceOnUse">
<stop stop-color="#674EFF"/>
<stop offset="1" stop-color="#A669FD"/>
</linearGradient>
</defs>
</svg>
