<svg width="16" height="18" viewBox="0 0 16 18" fill="none" xmlns="http://www.w3.org/2000/svg">
<path d="M0.291992 1.45833C0.291992 0.653333 0.945325 0 1.75033 0H6.33366C6.49942 0 6.65839 0.065848 6.7756 0.183058C6.89281 0.300269 6.95866 0.45924 6.95866 0.625C6.95866 0.79076 6.89281 0.949732 6.7756 1.06694C6.65839 1.18415 6.49942 1.25 6.33366 1.25H1.75033C1.69507 1.25 1.64208 1.27195 1.60301 1.31102C1.56394 1.35009 1.54199 1.40308 1.54199 1.45833V16.0417C1.54199 16.1567 1.63533 16.25 1.75033 16.25H6.33366C6.49942 16.25 6.65839 16.3158 6.7756 16.4331C6.89281 16.5503 6.95866 16.7092 6.95866 16.875C6.95866 17.0408 6.89281 17.1997 6.7756 17.3169C6.65839 17.4342 6.49942 17.5 6.33366 17.5H1.75033C1.36355 17.5 0.992619 17.3464 0.719128 17.0729C0.445638 16.7994 0.291992 16.4284 0.291992 16.0417V1.45833ZM13.6303 9.375H6.75033C6.58456 9.375 6.42559 9.30915 6.30838 9.19194C6.19117 9.07473 6.12533 8.91576 6.12533 8.75C6.12533 8.58424 6.19117 8.42527 6.30838 8.30806C6.42559 8.19085 6.58456 8.125 6.75033 8.125H13.6303L10.8803 5.22167C10.7708 5.10064 10.713 4.94157 10.7192 4.77846C10.7254 4.61536 10.7952 4.46115 10.9136 4.34882C11.032 4.23649 11.1897 4.17494 11.3529 4.17734C11.5161 4.17975 11.6719 4.2459 11.787 4.36167L15.537 8.32C15.6471 8.43611 15.7084 8.59001 15.7084 8.75C15.7084 8.90999 15.6471 9.06389 15.537 9.18L11.787 13.1383C11.6719 13.2541 11.5161 13.3203 11.3529 13.3227C11.1897 13.3251 11.032 13.2635 10.9136 13.1512C10.7952 13.0388 10.7254 12.8846 10.7192 12.7215C10.713 12.5584 10.7708 12.3994 10.8803 12.2783L13.6303 9.375Z" fill="#333333"/>
</svg>
