<svg width="41" height="40" viewBox="0 0 41 40" fill="none" xmlns="http://www.w3.org/2000/svg">
<path d="M22.5 22H30.5C31.0304 22 31.5391 21.7893 31.9142 21.4142C32.2893 21.0391 32.5 20.5304 32.5 20C32.5 19.4696 32.2893 18.9609 31.9142 18.5858C31.5391 18.2107 31.0304 18 30.5 18H22.5V10C22.5 9.46957 22.2893 8.96086 21.9142 8.58579C21.5391 8.21071 21.0304 8 20.5 8C19.9696 8 19.4609 8.21071 19.0858 8.58579C18.7107 8.96086 18.5 9.46957 18.5 10V18H10.5C9.96957 18 9.46086 18.2107 9.08579 18.5858C8.71071 18.9609 8.5 19.4696 8.5 20C8.5 20.5304 8.71071 21.0391 9.08579 21.4142C9.46086 21.7893 9.96957 22 10.5 22H18.5V30C18.5 30.5304 18.7107 31.0391 19.0858 31.4142C19.4609 31.7893 19.9696 32 20.5 32C21.0304 32 21.5391 31.7893 21.9142 31.4142C22.2893 31.0391 22.5 30.5304 22.5 30V22ZM20.5 40C9.454 40 0.5 31.046 0.5 20C0.5 8.954 9.454 0 20.5 0C31.546 0 40.5 8.954 40.5 20C40.5 31.046 31.546 40 20.5 40Z" fill="#F4F6FA"/>
</svg>
