<svg width="100" height="124" viewBox="0 0 100 124" fill="none" xmlns="http://www.w3.org/2000/svg">
<path d="M43.8307 79.4205V98.9997C43.8307 100.747 44.4227 102.21 45.6067 103.39C46.7866 104.574 48.2502 105.166 49.9974 105.166C51.7446 105.166 53.2102 104.574 54.3942 103.39C55.5741 102.21 56.1641 100.747 56.1641 98.9997V79.4205L61.7141 84.9705C62.3307 85.5872 63.0255 86.0497 63.7984 86.358C64.5672 86.6663 65.338 86.7938 66.1109 86.7403C66.8797 86.691 67.6238 86.5122 68.3432 86.2038C69.0627 85.8955 69.7307 85.433 70.3474 84.8163C71.478 83.583 72.07 82.1441 72.1234 80.4997C72.1727 78.8552 71.5807 77.4163 70.3474 76.183L54.3141 60.1497C53.6974 59.533 53.0293 59.0952 52.3099 58.8362C51.5905 58.5813 50.8196 58.4538 49.9974 58.4538C49.1752 58.4538 48.4043 58.5813 47.6849 58.8362C46.9655 59.0952 46.2974 59.533 45.6807 60.1497L29.6474 76.183C28.4141 77.4163 27.8241 78.8552 27.8776 80.4997C27.9269 82.1441 28.5682 83.583 29.8016 84.8163C31.0349 85.9469 32.4738 86.5389 34.1182 86.5923C35.7627 86.6417 37.2016 86.0497 38.4349 84.8163L43.8307 79.4205ZM12.9974 123.666C9.60573 123.666 6.70328 122.46 4.29006 120.047C1.87273 117.629 0.664062 114.725 0.664062 111.333V12.6663C0.664062 9.27467 1.87273 6.37017 4.29006 3.95284C6.70328 1.53962 9.60573 0.333008 12.9974 0.333008H57.2432C58.8877 0.333008 60.4561 0.641342 61.9484 1.25801C63.4366 1.87468 64.746 2.74829 65.8766 3.87884L95.7849 33.7872C96.9154 34.9177 97.7891 36.2271 98.4057 37.7153C99.0224 39.2077 99.3307 40.7761 99.3307 42.4205V111.333C99.3307 114.725 98.1241 117.629 95.7109 120.047C93.2936 122.46 90.3891 123.666 86.9974 123.666H12.9974ZM56.1641 37.333V12.6663H12.9974V111.333H86.9974V43.4997H62.3307C60.5835 43.4997 59.1199 42.9077 57.9401 41.7237C56.7561 40.5438 56.1641 39.0802 56.1641 37.333Z" fill="url(#paint0_linear_6925_15002)"/>
<defs>
<linearGradient id="paint0_linear_6925_15002" x1="0.664063" y1="62.4682" x2="99.3328" y2="61.8685" gradientUnits="userSpaceOnUse">
<stop stop-color="#806BFF"/>
<stop offset="1" stop-color="#A669FD"/>
</linearGradient>
</defs>
</svg>
