<svg width="53" height="52" viewBox="0 0 53 52" fill="none" xmlns="http://www.w3.org/2000/svg">
<rect x="0.5" width="52" height="52" rx="26" fill="#008B00"/>
<path d="M26.5 13C30.1408 13 33.4301 14.4985 35.79 16.9102L24.9238 28.9844L19.8779 25.2002L19.2783 26L18.6777 26.7998L23.7236 30.584C24.5002 31.1664 25.5736 31.1033 26.2754 30.459L26.4111 30.3223L37.0889 18.457C38.6068 20.5841 39.5 23.1877 39.5 26C39.5 33.1797 33.6797 39 26.5 39C19.3203 39 13.5 33.1797 13.5 26C13.5 18.8203 19.3203 13 26.5 13ZM19.8779 25.2002C19.4362 24.8692 18.8088 24.9578 18.4775 25.3994C18.1463 25.8411 18.2363 26.4683 18.6777 26.7998L19.8779 25.2002Z" fill="white"/>
</svg>
