<svg width="29" height="30" viewBox="0 0 29 30" fill="none" xmlns="http://www.w3.org/2000/svg">
<path d="M15.9375 0.50829C18.1203 0.50829 20.3031 0.50829 22.486 0.50829C23.8486 0.50829 24.6754 1.35154 24.5696 2.55713C24.5606 2.79097 24.504 3.02056 24.4032 3.23194C24.3024 3.44332 24.1595 3.63208 23.9832 3.78675C23.8069 3.94141 23.6008 4.05875 23.3775 4.13163C23.1543 4.20451 22.9184 4.23141 22.6844 4.2107C18.9405 4.2107 15.2033 4.2107 11.4395 4.2107C10.3072 4.18579 9.17564 4.28744 8.06607 4.51374C6.85461 4.80731 5.77894 5.50141 5.01481 6.48263C4.25068 7.46385 3.84328 8.67417 3.85916 9.91583C3.85916 11.9778 3.85916 14.0399 3.85916 16.1019C3.86832 16.5273 3.73937 16.9443 3.49149 17.2909C3.2436 17.6375 2.89002 17.8952 2.48332 18.0256C2.11849 18.1451 1.72489 18.1457 1.3597 18.0272C0.99452 17.9087 0.676774 17.6774 0.452626 17.3668C0.225253 17.0686 0.0876184 16.7121 0.055748 16.3391C0.055748 13.8554 -0.103003 11.3586 0.11528 8.89471C0.334067 6.93564 1.17204 5.09643 2.50832 3.64241C3.8446 2.18838 5.6101 1.19471 7.55012 0.804747C8.66625 0.609994 9.79708 0.510813 10.9302 0.50829C12.5971 0.468763 14.2375 0.50829 15.9375 0.50829Z" fill="#333333"/>
<path d="M12.2531 29.4952C10.1364 29.4952 8.01977 29.5281 5.90308 29.4952C5.35676 29.4792 4.82556 29.3128 4.36849 29.0143C4.08671 28.7641 3.8884 28.4342 3.8001 28.0687C3.71181 27.7032 3.73775 27.3196 3.87445 26.9692C4.01116 26.6188 4.2521 26.3183 4.565 26.1081C4.87791 25.8978 5.24785 25.7878 5.62527 25.7928H16.8701C18.1262 25.8416 19.3757 25.5909 20.5148 25.0615C21.6813 24.5378 22.6655 23.681 23.3426 22.5997C24.0197 21.5184 24.3592 20.2612 24.3182 18.9875C24.3182 17.4327 24.3182 15.8846 24.2851 14.3298C24.2731 13.931 24.2974 13.5319 24.3579 13.1374C24.4468 12.7379 24.668 12.3797 24.9859 12.1204C25.3038 11.8612 25.7 11.7158 26.1108 11.7078C26.5399 11.6887 26.9613 11.8259 27.2961 12.0939C27.631 12.3619 27.8562 12.7423 27.9298 13.1637C28.0753 15.99 28.3201 18.8491 27.738 21.649C26.8913 25.7401 22.7969 29.1856 18.5966 29.403C16.4865 29.5084 14.3632 29.403 12.2531 29.403V29.4952Z" fill="#333333"/>
<path d="M22.9159 6.76674C23.2419 6.74244 23.569 6.79875 23.8679 6.93067C24.1668 7.06258 24.4283 7.266 24.6293 7.52286C24.8302 7.77971 24.9644 8.08204 25.0197 8.40296C25.0751 8.72388 25.05 9.05345 24.9466 9.36238C24.8411 9.6816 24.6373 9.95965 24.3643 10.1571C24.0912 10.3546 23.7627 10.4614 23.4252 10.4626C21.6411 10.6731 19.9753 11.4598 18.6826 12.7025C17.7992 13.5751 17.0161 14.5429 16.3476 15.588C15.0247 17.4985 13.7877 19.4287 11.8959 20.8583C9.98465 22.3542 7.74912 23.3851 5.3673 23.869C4.88627 23.9797 4.38088 23.9 3.95764 23.6469C3.5344 23.3937 3.22638 22.9868 3.09848 22.5119C3.01605 22.2623 2.9908 21.9975 3.02459 21.7369C3.05837 21.4764 3.15033 21.2266 3.29372 21.0061C3.4371 20.7856 3.62827 20.5998 3.85318 20.4625C4.07808 20.3252 4.33101 20.2399 4.59339 20.2127C6.0972 19.8947 7.52099 19.2774 8.77929 18.3978C10.0376 17.5182 11.1044 16.3944 11.9158 15.0939C12.4516 14.2506 12.9741 13.3942 13.5562 12.5839C15.5823 9.64958 18.6591 7.59881 22.1552 6.85238C22.2842 6.8257 22.4144 6.80591 22.5455 6.79309C22.7042 6.77333 22.8432 6.77333 22.9159 6.76674Z" fill="#333333"/>
</svg>
