<svg width="16" height="18" viewBox="0 0 16 18" fill="none" xmlns="http://www.w3.org/2000/svg">
<path d="M0.291748 1.45833C0.291748 0.653333 0.945081 0 1.75008 0H6.33341C6.49918 0 6.65815 0.065848 6.77536 0.183058C6.89257 0.300269 6.95841 0.45924 6.95841 0.625C6.95841 0.79076 6.89257 0.949732 6.77536 1.06694C6.65815 1.18415 6.49918 1.25 6.33341 1.25H1.75008C1.69483 1.25 1.64184 1.27195 1.60277 1.31102C1.5637 1.35009 1.54175 1.40308 1.54175 1.45833V16.0417C1.54175 16.1567 1.63508 16.25 1.75008 16.25H6.33341C6.49918 16.25 6.65815 16.3158 6.77536 16.4331C6.89257 16.5503 6.95841 16.7092 6.95841 16.875C6.95841 17.0408 6.89257 17.1997 6.77536 17.3169C6.65815 17.4342 6.49918 17.5 6.33341 17.5H1.75008C1.36331 17.5 0.992375 17.3464 0.718884 17.0729C0.445394 16.7994 0.291748 16.4284 0.291748 16.0417V1.45833ZM13.6301 9.375H6.75008C6.58432 9.375 6.42535 9.30915 6.30814 9.19194C6.19093 9.07473 6.12508 8.91576 6.12508 8.75C6.12508 8.58424 6.19093 8.42527 6.30814 8.30806C6.42535 8.19085 6.58432 8.125 6.75008 8.125H13.6301L10.8801 5.22167C10.7706 5.10064 10.7127 4.94157 10.7189 4.77846C10.7252 4.61536 10.7949 4.46115 10.9134 4.34882C11.0318 4.23649 11.1895 4.17494 11.3527 4.17734C11.5159 4.17975 11.6717 4.2459 11.7867 4.36167L15.5367 8.32C15.6468 8.43611 15.7082 8.59001 15.7082 8.75C15.7082 8.90999 15.6468 9.06389 15.5367 9.18L11.7867 13.1383C11.6717 13.2541 11.5159 13.3203 11.3527 13.3227C11.1895 13.3251 11.0318 13.2635 10.9134 13.1512C10.7949 13.0388 10.7252 12.8846 10.7189 12.7215C10.7127 12.5584 10.7706 12.3994 10.8801 12.2783L13.6301 9.375Z" fill="#333333"/>
</svg>
