<?xml version='1.0' encoding='utf-8'?>
<svg xmlns="http://www.w3.org/2000/svg" width="17" height="17" viewBox="0 0 17 17" fill="none">
<path fill-rule="evenodd" clip-rule="evenodd" d="M6.07143 2.42857C6.34251 2.42857 6.58074 2.60827 6.65521 2.86892L7.31351 5.17298C7.60165 6.18147 8.38996 6.96978 9.39845 7.25792L11.7025 7.91622C11.9632 7.99069 12.1429 8.22892 12.1429 8.5C12.1429 8.77108 11.9632 9.00931 11.7025 9.08378L9.39845 9.74209C8.38996 10.0302 7.60165 10.8185 7.31351 11.827L6.65521 14.1311C6.58074 14.3917 6.34251 14.5714 6.07143 14.5714C5.80035 14.5714 5.56212 14.3917 5.48765 14.1311L4.82934 11.827C4.5412 10.8185 3.75289 10.0302 2.74441 9.74208L0.440348 9.08378C0.1797 9.00931 0 8.77108 0 8.5C0 8.22892 0.1797 7.99069 0.440348 7.91622L2.74441 7.25792C3.7529 6.96978 4.5412 6.18147 4.82934 5.17298L5.48765 2.86892C5.56212 2.60827 5.80035 2.42857 6.07143 2.42857Z" fill="currentColor" />
<path fill-rule="evenodd" clip-rule="evenodd" d="M13.3571 0C13.6357 0 13.8786 0.189609 13.9462 0.459889L14.1557 1.29812C14.3461 2.05948 14.9405 2.65395 15.7019 2.84428L16.5401 3.05384C16.8104 3.12141 17 3.36426 17 3.64286C17 3.92146 16.8104 4.1643 16.5401 4.23187L15.7019 4.44143C14.9405 4.63177 14.3461 5.22624 14.1557 5.98759L13.9462 6.82583C13.8786 7.09611 13.6357 7.28571 13.3571 7.28571C13.0785 7.28571 12.8357 7.09611 12.7681 6.82583L12.5586 5.9876C12.3682 5.22624 11.7738 4.63177 11.0124 4.44143L10.1742 4.23187C9.9039 4.1643 9.71429 3.92146 9.71429 3.64286C9.71429 3.36426 9.9039 3.12141 10.1742 3.05384L11.0124 2.84428C11.7738 2.65395 12.3682 2.05948 12.5586 1.29812L12.7681 0.459889C12.8357 0.189609 13.0785 0 13.3571 0Z" fill="currentColor" />
<path fill-rule="evenodd" clip-rule="evenodd" d="M12.1429 10.9286C12.4042 10.9286 12.6362 11.0958 12.7188 11.3437L13.038 12.3012C13.1589 12.6638 13.4434 12.9483 13.806 13.0691L14.7634 13.3883C15.0113 13.4709 15.1786 13.703 15.1786 13.9643C15.1786 14.2256 15.0113 14.4576 14.7634 14.5403L13.806 14.8594C13.4434 14.9803 13.1589 15.2648 13.038 15.6274L12.7188 16.5849C12.6362 16.8328 12.4042 17 12.1429 17C11.8815 17 11.6495 16.8328 11.5669 16.5849L11.2477 15.6274C11.1269 15.2648 10.8423 14.9803 10.4797 14.8594L9.52229 14.5403C9.27437 14.4576 9.10714 14.2256 9.10714 13.9643C9.10714 13.703 9.27437 13.4709 9.52229 13.3883L10.4797 13.0691C10.8423 12.9483 11.1269 12.6638 11.2477 12.3012L11.5669 11.3437C11.6495 11.0958 11.8815 10.9286 12.1429 10.9286Z" fill="currentColor" />
<defs>
<linearGradient id="paint0_linear_9138_7370" x1="3.62681e-09" y1="8.56458" x2="17" y2="8.43542" gradientUnits="userSpaceOnUse">
<stop stop-color="#806BFF" />
<stop offset="1" stop-color="#A669FD" />
</linearGradient>
<linearGradient id="paint1_linear_9138_7370" x1="3.62681e-09" y1="8.56458" x2="17" y2="8.43542" gradientUnits="userSpaceOnUse">
<stop stop-color="#806BFF" />
<stop offset="1" stop-color="#A669FD" />
</linearGradient>
<linearGradient id="paint2_linear_9138_7370" x1="3.62681e-09" y1="8.56458" x2="17" y2="8.43542" gradientUnits="userSpaceOnUse">
<stop stop-color="#806BFF" />
<stop offset="1" stop-color="#A669FD" />
</linearGradient>
</defs>
</svg>