<?xml version='1.0' encoding='utf-8'?>
<svg xmlns="http://www.w3.org/2000/svg" width="42" height="41" viewBox="0 0 42 41" fill="none">
<path d="M36.3225 10.6563H32.8331L24.2718 19.2138C24.5667 19.9653 24.5938 20.7954 24.3486 21.5645C24.1034 22.3336 23.6009 22.9949 22.9255 23.437C22.2501 23.8792 21.4431 24.0753 20.6401 23.9924C19.8371 23.9095 19.0871 23.5527 18.5163 22.9819C17.9455 22.411 17.5886 21.6611 17.5057 20.8581C17.4228 20.0551 17.6189 19.248 18.0611 18.5727C18.5033 17.8973 19.1645 17.3947 19.9336 17.1495C20.7028 16.9043 21.5329 16.9314 22.2843 17.2263L30.8437 8.66693V5.17756C30.8439 4.71064 31.0293 4.26288 31.3593 3.93256L34.6031 0.688808C34.663 0.628217 34.7384 0.585177 34.821 0.564355C34.9036 0.543533 34.9904 0.545721 35.0718 0.570683C35.2387 0.619433 35.3625 0.758183 35.3962 0.928808L36.2587 5.24318L40.5712 6.10568C40.74 6.13943 40.8787 6.26318 40.9275 6.43006C40.9521 6.51112 40.9543 6.59734 40.9338 6.67955C40.9133 6.76176 40.871 6.83688 40.8112 6.89693L37.5656 10.1407C37.4024 10.3041 37.2087 10.4338 36.9954 10.5222C36.782 10.6107 36.5534 10.6563 36.3225 10.6563Z" fill="currentColor" />
<path d="M3.42188 20.5C3.42188 25.162 5.27385 29.6331 8.57039 32.9296C11.8669 36.2262 16.338 38.0781 21 38.0781C23.3084 38.0781 25.5942 37.6235 27.7269 36.7401C29.8595 35.8567 31.7973 34.5619 33.4296 32.9296C35.0619 31.2973 36.3567 29.3595 37.2401 27.2269C38.1235 25.0942 38.5781 22.8084 38.5781 20.5C38.5781 18.8163 38.3419 17.1888 37.9012 15.6494C37.8137 15.2959 37.8666 14.9223 38.0489 14.6071C38.2312 14.2919 38.5287 14.0596 38.8788 13.9593C39.2288 13.859 39.6041 13.8984 39.9258 14.0692C40.2474 14.2399 40.4902 14.5288 40.6031 14.875C41.1169 16.6638 41.3906 18.55 41.3906 20.5C41.3906 31.7613 32.2612 40.8906 21 40.8906C9.73875 40.8906 0.609375 31.7613 0.609375 20.5C0.609375 9.23876 9.73875 0.109385 21 0.109385C22.9031 0.10751 24.795 0.371885 26.625 0.89501C26.8034 0.945062 26.9702 1.02989 27.1157 1.14461C27.2613 1.25933 27.3827 1.40169 27.473 1.5635C27.5634 1.72531 27.6208 1.90337 27.6421 2.08746C27.6634 2.27155 27.6481 2.45804 27.5971 2.63619C27.5461 2.81435 27.4603 2.98066 27.3448 3.12557C27.2293 3.27048 27.0863 3.39112 26.924 3.48058C26.7617 3.57003 26.5833 3.62652 26.3991 3.6468C26.2149 3.66708 26.0285 3.65076 25.8506 3.59876C24.2732 3.14825 22.6405 2.92042 21 2.92188C16.338 2.92188 11.8669 4.77386 8.57039 8.0704C5.27385 11.3669 3.42188 15.838 3.42188 20.5Z" fill="currentColor" />
<path d="M11.8598 20.5001C11.865 21.7419 12.1233 22.9697 12.6189 24.1084C13.1145 25.2471 13.8369 26.2728 14.7421 27.123C15.6474 27.9732 16.7164 28.6299 17.8839 29.0532C19.0514 29.4764 20.293 29.6573 21.5327 29.5847C22.7724 29.5121 23.9844 29.1876 25.0945 28.631C26.2047 28.0743 27.1897 27.2973 27.9895 26.3473C28.7893 25.3973 29.3871 24.2942 29.7464 23.1054C30.1057 21.9167 30.2189 20.6672 30.0792 19.4332C30.0398 19.1833 30.0688 18.9274 30.163 18.6926C30.2572 18.4578 30.4132 18.2528 30.6144 18.0995C30.8156 17.9461 31.0546 17.85 31.306 17.8214C31.5573 17.7928 31.8118 17.8327 32.0423 17.9369C32.5129 18.1469 32.8298 18.5951 32.8711 19.1088C33.1622 21.5749 32.6778 24.0704 31.4852 26.2485C30.2926 28.4266 28.4511 30.1791 26.2166 31.2623C23.9821 32.3455 21.4657 32.7057 19.017 32.2928C16.5684 31.8798 14.3092 30.7143 12.5536 28.9582C10.7984 27.204 9.63254 24.9471 9.21779 22.5005C8.80304 20.0538 9.15991 17.5388 10.2389 15.3041C11.3179 13.0695 13.0656 11.226 15.2395 10.0293C17.4134 8.8326 19.9058 8.34206 22.3711 8.62569C22.5574 8.64298 22.7385 8.6973 22.9036 8.78547C23.0687 8.87364 23.2145 8.99387 23.3325 9.13913C23.4506 9.28439 23.5384 9.45175 23.5909 9.6314C23.6434 9.81105 23.6595 9.99938 23.6383 10.1853C23.6171 10.3713 23.559 10.5512 23.4674 10.7144C23.3757 10.8776 23.2524 11.0208 23.1047 11.1358C22.957 11.2507 22.7878 11.335 22.6071 11.3837C22.4264 11.4324 22.2378 11.4446 22.0523 11.4194C20.7717 11.2714 19.4743 11.3958 18.2452 11.7846C17.0161 12.1733 15.8832 12.8176 14.9206 13.6751C13.9581 14.5326 13.1878 15.584 12.6603 16.7602C12.1328 17.9365 11.86 19.211 11.8598 20.5001Z" fill="currentColor" />
</svg>