<svg width="10" height="12" viewBox="0 0 10 12" fill="none" xmlns="http://www.w3.org/2000/svg">
<path d="M0.546875 5.80968C0.686746 6.77073 1.16796 7.64929 1.90247 8.28465C2.63699 8.92 3.5757 9.26966 4.54687 9.26966M4.54687 9.26966C5.51805 9.26966 6.45676 8.92 7.19128 8.28465C7.92579 7.64929 8.407 6.77073 8.54688 5.80968M4.54687 9.26966V11.2939M4.54745 1.19141C4.08814 1.19141 3.64763 1.37387 3.32285 1.69865C2.99806 2.02344 2.8156 2.46394 2.8156 2.92326V5.23239C2.8156 5.69171 2.99806 6.13221 3.32285 6.457C3.64763 6.78178 4.08814 6.96424 4.54745 6.96424C5.00677 6.96424 5.44727 6.78178 5.77206 6.457C6.09684 6.13221 6.2793 5.69171 6.2793 5.23239V2.92326C6.2793 2.46394 6.09684 2.02344 5.77206 1.69865C5.44727 1.37387 5.00677 1.19141 4.54745 1.19141Z" stroke="#333333" stroke-linecap="round" stroke-linejoin="round"/>
</svg>
