<?xml version='1.0' encoding='utf-8'?>
<svg xmlns="http://www.w3.org/2000/svg" width="19" height="18" viewBox="0 0 19 18" fill="none">
<path fill-rule="evenodd" clip-rule="evenodd" d="M1.375 2.12501C3.90792 2.1366 5.67347 2.45502 6.86099 3.02239C8.01273 3.57267 8.62953 4.35893 8.89414 5.40348C8.96439 5.68079 9.21394 5.875 9.5 5.875C9.78607 5.875 10.0356 5.68079 10.1059 5.40348C10.3705 4.35893 10.9873 3.57267 12.139 3.02239C13.3265 2.45502 15.0921 2.13659 17.625 2.125V13.375C13.1138 13.375 10.8982 14.1837 9.49995 15.5659C8.10659 14.19 5.88805 13.3764 1.3867 13.375C1.38137 13.3612 1.375 13.3369 1.375 13.2996V2.12501ZM0.897373 0.969074C1.0496 0.906358 1.21273 0.874388 1.37736 0.875009C3.98239 0.886691 5.96643 1.20965 7.39986 1.89451C8.33219 2.33996 9.02559 2.93634 9.5 3.67609C9.97442 2.93634 10.6678 2.33996 11.6001 1.89451C13.0336 1.20965 15.0172 0.886692 17.6222 0.875011C17.7868 0.87439 17.9504 0.906358 18.1026 0.969074C18.2549 1.03179 18.3932 1.12401 18.5096 1.24043C18.626 1.35685 18.7182 1.49515 18.7809 1.64737C18.8435 1.79913 18.8754 1.96173 18.875 2.12586V13.375C18.875 13.7065 18.7433 14.0245 18.5089 14.2589C18.2745 14.4933 17.9565 14.625 17.625 14.625C12.699 14.625 11.0056 15.6184 9.98806 16.8904C9.86942 17.0387 9.68978 17.125 9.49986 17.125C9.30994 17.125 9.13034 17.0386 9.01177 16.8902C8.00113 15.6257 6.30064 14.625 1.375 14.625C0.998007 14.625 0.668102 14.4654 0.4419 14.1997C0.223583 13.9433 0.125004 13.6179 0.125004 13.2996V2.12598C0.124567 1.96182 0.156532 1.79917 0.219074 1.64737C0.281791 1.49515 0.374015 1.35685 0.49043 1.24043C0.606846 1.12401 0.745151 1.03179 0.897373 0.969074Z" fill="currentColor" />
<path fill-rule="evenodd" clip-rule="evenodd" d="M9.5 4.625C9.84518 4.625 10.125 4.90482 10.125 5.25V16.5C10.125 16.8452 9.84504 17.125 9.49986 17.125C9.15469 17.125 8.875 16.8452 8.875 16.5V5.25C8.875 4.90482 9.15482 4.625 9.5 4.625Z" fill="currentColor" />
</svg>