<?xml version='1.0' encoding='utf-8'?>
<svg xmlns="http://www.w3.org/2000/svg" width="19" height="16" viewBox="0 0 19 16" fill="none">
<path d="M17.625 0.875C14.984 0.886328 13.0207 1.25 11.6 1.87852C10.5398 2.34727 10.125 2.70195 10.125 3.90352V15.3756C10.125 15.8087 10.6466 16.044 11.0097 15.8079C12.3539 14.934 14.0812 14.646 18.3745 14.6261C18.6507 14.6248 18.875 14.4011 18.875 14.125V1.375C18.875 1.09886 18.6511 0.875 18.375 0.875H17.625Z" fill="currentColor" />
<path d="M1.375 0.875C4.01602 0.886328 5.9793 1.25 7.4 1.87852C8.46016 2.34727 8.875 2.70195 8.875 3.90352V15.3756C8.875 15.8087 8.35343 16.044 7.99027 15.8079C6.64612 14.934 4.91881 14.646 0.625463 14.6261C0.349323 14.6248 0.125 14.4011 0.125 14.125V1.375C0.125 1.09886 0.348858 0.875 0.625 0.875H1.375Z" fill="currentColor" />
</svg>