<?xml version='1.0' encoding='utf-8'?>
<svg xmlns="http://www.w3.org/2000/svg" width="44" height="37" viewBox="0 0 44 37" fill="none">
<path fill-rule="evenodd" clip-rule="evenodd" d="M6.53125 8.65625C4.97795 8.65625 3.71875 9.91545 3.71875 11.4688V31.1562C3.71875 32.7096 4.97795 33.9688 6.53125 33.9688H37.4688C39.0221 33.9688 40.2812 32.7096 40.2812 31.1562V11.4688C40.2812 9.91545 39.0221 8.65625 37.4688 8.65625H6.53125ZM0.90625 11.4688C0.90625 8.36215 3.42465 5.84375 6.53125 5.84375H37.4688C40.5754 5.84375 43.0938 8.36215 43.0938 11.4688V31.1562C43.0938 34.2629 40.5754 36.7812 37.4688 36.7812H6.53125C3.42465 36.7812 0.90625 34.2629 0.90625 31.1562V11.4688Z" fill="currentColor" />
<path fill-rule="evenodd" clip-rule="evenodd" d="M14.9688 3.03125C14.5958 3.03125 14.2381 3.17941 13.9744 3.44313C13.7107 3.70685 13.5625 4.06454 13.5625 4.4375V7.25C13.5625 8.02665 12.9329 8.65625 12.1562 8.65625C11.3796 8.65625 10.75 8.02665 10.75 7.25V4.4375C10.75 3.31862 11.1945 2.24556 11.9856 1.45439C12.7768 0.663224 13.8499 0.21875 14.9688 0.21875H29.0312C30.1501 0.21875 31.2232 0.663224 32.0144 1.45439C32.8055 2.24556 33.25 3.31862 33.25 4.4375V7.25C33.25 8.02665 32.6204 8.65625 31.8438 8.65625C31.0671 8.65625 30.4375 8.02665 30.4375 7.25V4.4375C30.4375 4.06454 30.2893 3.70685 30.0256 3.44313C29.7619 3.17941 29.4042 3.03125 29.0312 3.03125H14.9688Z" fill="currentColor" />
<path fill-rule="evenodd" clip-rule="evenodd" d="M0.90625 17.0938C0.90625 16.3171 1.53585 15.6875 2.3125 15.6875H41.6875C42.4641 15.6875 43.0938 16.3171 43.0938 17.0938C43.0938 17.8704 42.4641 18.5 41.6875 18.5H2.3125C1.53585 18.5 0.90625 17.8704 0.90625 17.0938Z" fill="currentColor" />
<path fill-rule="evenodd" clip-rule="evenodd" d="M16.375 15.6875C17.1517 15.6875 17.7812 16.3171 17.7812 17.0938V18.5H26.2188V17.0938C26.2188 16.3171 26.8484 15.6875 27.625 15.6875C28.4017 15.6875 29.0312 16.3171 29.0312 17.0938V19.2031C29.0312 19.7626 28.809 20.2991 28.4134 20.6947C28.0178 21.0903 27.4813 21.3125 26.9219 21.3125H17.0781C16.5187 21.3125 15.9822 21.0903 15.5866 20.6947C15.191 20.2991 14.9688 19.7626 14.9688 19.2031V17.0938C14.9688 16.3171 15.5983 15.6875 16.375 15.6875Z" fill="currentColor" />
</svg>