<svg width="41" height="41" viewBox="0 0 41 41" fill="none" xmlns="http://www.w3.org/2000/svg">
<path fill-rule="evenodd" clip-rule="evenodd" d="M36.5894 33.6484H36.6606C36.9377 33.6486 37.2121 33.5941 37.4681 33.4881C37.7241 33.3822 37.9568 33.2268 38.1527 33.0309C38.3487 32.8351 38.5042 32.6025 38.6102 32.3465C38.7163 32.0905 38.7709 31.8162 38.7709 31.5391V31.431C38.7578 31.2552 38.726 31.0814 38.6759 30.9124L37.2934 25.9976C37.311 25.9527 37.34 25.8939 37.3813 25.8218C37.4103 25.7734 37.4411 25.7286 37.4736 25.6856L37.5219 25.6179C39.2594 23.0428 40.1877 20.0073 40.1877 16.9009C40.2009 12.7226 38.5555 8.76222 35.5532 5.75021C32.3768 2.57032 28.1009 0.812511 23.5122 0.812511C19.6762 0.808094 15.9498 2.0923 12.931 4.45909C9.98845 6.78468 7.94236 10.0322 7.17068 13.5997C6.93396 14.6857 6.81404 15.7938 6.81296 16.9053C6.80852 19.0356 7.22646 21.1457 8.04261 23.1136C8.85877 25.0814 10.0569 26.8679 11.5678 28.3697C14.6625 31.4661 18.8109 33.1712 23.2476 33.1712C24.9835 33.1712 27.1465 32.6149 27.7678 32.4443C28.9148 32.1297 30.0064 31.7193 30.1251 31.6744C30.2293 31.6352 30.3398 31.6153 30.4511 31.6155C30.5686 31.6136 30.6852 31.6367 30.793 31.6832L30.8282 31.6982L35.8151 33.4656C36.04 33.5571 36.2767 33.6162 36.5182 33.6414L36.5894 33.6484ZM35.6086 30.4106L31.8354 29.0737H31.8416C30.9754 28.726 30.0102 28.7163 29.1372 29.0465C29.1323 29.0481 29.117 29.0538 29.0922 29.0629C28.878 29.1416 27.9589 29.4795 27.0278 29.7347C25.9731 30.0238 24.3498 30.3613 23.2485 30.3613C15.7365 30.3613 9.62546 24.325 9.62546 16.9062C9.62649 15.9951 9.7249 15.0867 9.91902 14.1965C11.2444 8.0714 16.9608 3.62501 23.5122 3.62501C27.353 3.62501 30.9161 5.08487 33.5581 7.73654C36.0287 10.2168 37.384 13.4688 37.3725 16.8965C37.3724 19.4323 36.6186 21.9109 35.2069 24.0174C35.1191 24.1349 35.0376 24.257 34.9626 24.383L34.9538 24.3971C34.4906 25.1907 34.3473 25.9158 34.5231 26.5539L35.6086 30.4106Z" fill="#333333"/>
<path d="M2.99594 39.7241C3.37221 40.0235 3.83873 40.1867 4.31958 40.1873H4.32573C4.59546 40.1881 4.86262 40.1349 5.11147 40.0308L10.0246 38.1113L10.0632 38.1271C11.9951 38.8795 14.0201 39.2776 15.9185 39.2776H15.9352C18.6487 39.2765 21.3139 38.5595 23.6617 37.199C23.8217 37.1067 23.962 36.9837 24.0745 36.8372C24.187 36.6906 24.2695 36.5233 24.3174 36.3449C24.3653 36.1664 24.3775 35.9803 24.3535 35.7971C24.3294 35.6139 24.2695 35.4373 24.1771 35.2773C24.0848 35.1172 23.9619 34.977 23.8153 34.8644C23.6688 34.7519 23.5015 34.6694 23.323 34.6215C23.1446 34.5737 22.9585 34.5614 22.7753 34.5855C22.5921 34.6095 22.4154 34.6694 22.2554 34.7618C20.338 35.8757 18.1606 36.4639 15.9431 36.4669H15.9299C14.3822 36.4669 12.7175 36.1381 11.1135 35.5159C10.4449 35.2324 9.69155 35.2236 9.01645 35.4913L5.2644 36.9599C5.62475 35.0773 6.02817 32.9908 6.06421 32.815C6.2145 32.1215 5.90424 31.5283 5.57993 31.0387L5.57466 31.0308C4.39163 29.2805 3.71838 27.2359 3.63007 25.1252C3.54176 23.0144 4.04187 20.9207 5.07456 19.0777C5.25591 18.7514 5.3002 18.3663 5.19767 18.0073C5.09515 17.6484 4.85422 17.3448 4.52788 17.1634C4.20154 16.9821 3.81652 16.9378 3.45753 17.0403C3.09853 17.1428 2.79497 17.3838 2.61362 17.7101C1.33519 20.0068 0.716475 22.6121 0.825823 25.2383C0.935171 27.8645 1.76833 30.4094 3.23325 32.5918V32.597C3.08667 33.3501 2.76011 35.0489 2.49802 36.4124C2.40495 36.8965 2.32002 37.3384 2.25415 37.6806C2.18169 38.0507 2.20976 38.4334 2.33543 38.7889C2.4611 39.1445 2.67978 39.4598 2.9687 39.7021L2.99594 39.7241Z" fill="#333333"/>
</svg>
