<svg width="17" height="18" viewBox="0 0 17 18" fill="currentColor" xmlns="http://www.w3.org/2000/svg">
<path d="M0.5 1.70833C0.5 0.903333 1.15333 0.25 1.95833 0.25H6.54167C6.70743 0.25 6.8664 0.315848 6.98361 0.433058C7.10082 0.550269 7.16667 0.70924 7.16667 0.875C7.16667 1.04076 7.10082 1.19973 6.98361 1.31694C6.8664 1.43415 6.70743 1.5 6.54167 1.5H1.95833C1.90308 1.5 1.85009 1.52195 1.81102 1.56102C1.77195 1.60009 1.75 1.65308 1.75 1.70833V16.2917C1.75 16.4067 1.84333 16.5 1.95833 16.5H6.54167C6.70743 16.5 6.8664 16.5658 6.98361 16.6831C7.10082 16.8003 7.16667 16.9592 7.16667 17.125C7.16667 17.2908 7.10082 17.4497 6.98361 17.5669C6.8664 17.6842 6.70743 17.75 6.54167 17.75H1.95833C1.57156 17.75 1.20063 17.5964 0.927136 17.3229C0.653645 17.0494 0.5 16.6784 0.5 16.2917V1.70833ZM8.82833 9.625L11.5783 12.5283C11.6879 12.6494 11.7457 12.8084 11.7395 12.9715C11.7333 13.1346 11.6635 13.2888 11.5451 13.4012C11.4266 13.5135 11.269 13.5751 11.1057 13.5727C10.9425 13.5703 10.7867 13.5041 10.6717 13.3883L6.92167 9.43C6.81159 9.31389 6.75024 9.15999 6.75024 9C6.75024 8.84001 6.81159 8.68611 6.92167 8.57L10.6717 4.61167C10.7867 4.4959 10.9425 4.42975 11.1057 4.42734C11.269 4.42494 11.4266 4.48649 11.5451 4.59882C11.6635 4.71115 11.7333 4.86536 11.7395 5.02846C11.7457 5.19157 11.6879 5.35064 11.5783 5.47167L8.82833 8.375H15.7083C15.8741 8.375 16.0331 8.44085 16.1503 8.55806C16.2675 8.67527 16.3333 8.83424 16.3333 9C16.3333 9.16576 16.2675 9.32473 16.1503 9.44194C16.0331 9.55915 15.8741 9.625 15.7083 9.625H8.82833Z" fill="currentColor"/>
</svg>
