<?xml version='1.0' encoding='utf-8'?>
<svg xmlns="http://www.w3.org/2000/svg" width="23" height="15" viewBox="0 0 23 15" fill="none">
<path d="M18.2998 6.19435C18.0196 4.43953 17.2664 2.93869 16.1037 1.82818C14.8671 0.648383 13.2159 -0.00734354 11.5 6.20512e-05C9.97461 6.20512e-05 8.56781 0.498214 7.43172 1.4404C6.5635 2.16661 5.89501 3.09919 5.48867 4.15104C4.18844 4.35601 3.02012 4.88314 2.16375 5.65828C1.07535 6.64265 0.5 7.98668 0.5 9.54548C0.5 11.0796 1.11789 12.4807 2.2398 13.4911C3.32047 14.4643 4.77797 15 6.34375 15H17.5156C18.9065 15 20.1036 14.6348 20.9785 13.9445C21.9741 13.1582 22.5 11.9911 22.5 10.5682C22.5 7.93256 20.4186 6.50543 18.2998 6.19435ZM9.50711 11.9472L6.53281 8.67872L7.55375 7.76509L9.47102 9.87275L14.0382 4.49493L15.0896 5.37319L9.50711 11.9472Z" fill="currentColor" />
</svg>