<?xml version='1.0' encoding='utf-8'?>
<svg xmlns="http://www.w3.org/2000/svg" width="23" height="15" viewBox="0 0 23 15" fill="none">
<path fill-rule="evenodd" clip-rule="evenodd" d="M5.48909 4.15079C6.3069 2.03595 8.37632 0 11.5 0C14.8662 0 17.6896 2.39015 18.2995 6.19497C19.1751 6.32473 20.0982 6.65335 20.8605 7.23144C21.8149 7.95521 22.5 9.06201 22.5 10.5682C22.5 12.0459 21.9366 13.1879 20.9785 13.9444C20.0428 14.6831 18.8009 15 17.5156 15H6.34375C3.19202 15 0.5 12.7949 0.5 9.54545C0.5 7.89807 1.13855 6.58533 2.16364 5.65803C3.06862 4.8394 4.24585 4.34556 5.48909 4.15079ZM11.5 1.36364C8.90216 1.36364 7.21548 3.15526 6.65767 4.9714C6.57683 5.23457 6.34444 5.42379 6.06841 5.45116C4.89443 5.56759 3.84023 5.98709 3.09026 6.66551C2.35364 7.33186 1.875 8.27764 1.875 9.54545C1.875 11.921 3.8236 13.6364 6.34375 13.6364H17.5156C18.5936 13.6364 19.5002 13.3686 20.1221 12.8775C20.7216 12.4041 21.125 11.6712 21.125 10.5682C21.125 9.52521 20.6715 8.80473 20.0253 8.31466C19.3568 7.80775 18.4671 7.5412 17.6517 7.49908C17.3124 7.48155 17.0369 7.22085 17.0034 6.88555C16.6525 3.38074 14.2462 1.36364 11.5 1.36364Z" fill="currentColor" />
<path fill-rule="evenodd" clip-rule="evenodd" d="M14.564 4.93305C14.8544 5.17562 14.8915 5.60575 14.647 5.89377L10.0149 11.3483C9.88694 11.499 9.69947 11.5875 9.50081 11.5908C9.30216 11.5942 9.11175 11.5122 8.97865 11.3659L6.99349 9.18405C6.73912 8.90449 6.76144 8.47335 7.04334 8.22109C7.32523 7.96882 7.75996 7.99095 8.01433 8.27052L9.4712 9.87171L13.5952 5.01535C13.8398 4.72733 14.2735 4.69048 14.564 4.93305Z" fill="currentColor" />
</svg>