<?xml version='1.0' encoding='utf-8'?>
<svg xmlns="http://www.w3.org/2000/svg" width="20" height="14" viewBox="0 0 20 14" fill="none">
<path d="M5.9375 7C7.4908 7 8.75 5.7408 8.75 4.1875C8.75 2.6342 7.4908 1.375 5.9375 1.375C4.3842 1.375 3.125 2.6342 3.125 4.1875C3.125 5.7408 4.3842 7 5.9375 7Z" fill="currentColor" />
<path d="M9.14062 8.5625C8.04063 8.00391 6.82656 7.78125 5.9375 7.78125C4.19609 7.78125 0.625 8.84922 0.625 10.9844V12.625H6.48438V11.9973C6.48438 11.2551 6.79688 10.5109 7.34375 9.89062C7.78008 9.39531 8.39102 8.93555 9.14062 8.5625Z" fill="currentColor" />
<path d="M13.2812 8.25C11.2473 8.25 7.1875 9.50625 7.1875 12V13.875H19.375V12C19.375 9.50625 15.3152 8.25 13.2812 8.25Z" fill="currentColor" />
<path d="M13.2812 7C15.1797 7 16.7188 5.46098 16.7188 3.5625C16.7188 1.66402 15.1797 0.125 13.2812 0.125C11.3828 0.125 9.84375 1.66402 9.84375 3.5625C9.84375 5.46098 11.3828 7 13.2812 7Z" fill="currentColor" />
</svg>