<svg width="20" height="14" viewBox="0 0 20 14" fill="none" xmlns="http://www.w3.org/2000/svg">
<path fill-rule="evenodd" clip-rule="evenodd" d="M13.1232 0.125C12.1898 0.125 11.3464 0.476981 10.7538 1.10893C10.1595 1.74254 9.8517 2.62089 9.92158 3.6067C10.0514 5.43941 11.4324 7 13.1232 7C14.8146 7 16.1927 5.4383 16.3247 3.60741C16.468 1.62257 15.0338 0.125 13.1232 0.125ZM11.6655 1.96402C11.3284 2.32346 11.1212 2.8514 11.1685 3.5183C11.2637 4.86368 12.2437 5.75 13.1232 5.75C14.002 5.75 14.9809 4.86399 15.0779 3.51759C15.1689 2.25717 14.3086 1.375 13.1232 1.375C12.5085 1.375 12.0042 1.6029 11.6655 1.96402Z" fill="white"/>
<path fill-rule="evenodd" clip-rule="evenodd" d="M6.90971 12.4507C7.6182 9.60635 10.4131 8.25 13.1232 8.25C15.8277 8.25 18.6289 9.56297 19.3375 12.4528C19.4923 13.0824 19.1011 13.875 18.2728 13.875H7.97394C7.14786 13.875 6.75181 13.0842 6.90971 12.4507V12.4507ZM8.1568 12.625H18.0906C17.5214 10.5919 15.4629 9.5 13.1232 9.5C10.7911 9.5 8.72783 10.6245 8.1568 12.625Z" fill="white"/>
<path d="M5.74223 7.15234C4.36723 7.15234 3.1602 5.875 3.04691 4.30469C2.98832 3.5 3.23832 2.75781 3.74613 2.21094C4.25004 1.67188 4.95707 1.375 5.73832 1.375C6.51566 1.375 7.2227 1.67578 7.7266 2.21875C8.23832 2.76953 8.48832 3.51172 8.42973 4.30859C8.32426 5.875 7.11332 7.15234 5.74223 7.15234ZM5.74223 2.62109C5.31254 2.62109 4.92973 2.77734 4.6641 3.0625C4.39066 3.35547 4.26176 3.75391 4.29691 4.21484C4.36332 5.12891 5.02348 5.90234 5.74223 5.90234C6.46098 5.90234 7.12504 5.12891 7.18754 4.21484C7.21879 3.76562 7.08598 3.35937 6.81645 3.06641C6.55082 2.77734 6.16801 2.62109 5.74223 2.62109Z" fill="white"/>
<path fill-rule="evenodd" clip-rule="evenodd" d="M0.655388 11.3313C1.24084 8.98247 3.54484 7.88086 5.74035 7.88086C6.62452 7.88086 7.496 8.01409 8.30537 8.38492C8.61918 8.5287 8.75702 8.89965 8.61324 9.21346C8.46946 9.52727 8.09851 9.6651 7.7847 9.52133C7.18392 9.24606 6.50227 9.13086 5.74035 9.13086C3.97736 9.13086 2.44347 9.94936 1.94543 11.375H6.01379C6.35896 11.375 6.63879 11.6548 6.63879 12C6.63879 12.3452 6.35896 12.625 6.01379 12.625H1.62785C0.869297 12.625 0.514654 11.8993 0.655174 11.3321L0.655388 11.3313Z" fill="white"/>
</svg>
