<svg width="20" height="20" viewBox="0 0 20 20" fill="none" xmlns="http://www.w3.org/2000/svg">
<path fill-rule="evenodd" clip-rule="evenodd" d="M7.14286 2.85714C7.46177 2.85714 7.74205 3.06856 7.82966 3.3752L8.60413 6.08586C8.94312 7.27231 9.87055 8.19974 11.057 8.53872L13.7677 9.3132C14.0743 9.40081 14.2857 9.68108 14.2857 10C14.2857 10.3189 14.0743 10.5992 13.7677 10.6868L11.057 11.4613C9.87055 11.8003 8.94312 12.7277 8.60413 13.9141L7.82966 16.6248C7.74205 16.9314 7.46177 17.1429 7.14286 17.1429C6.82394 17.1429 6.54367 16.9314 6.45605 16.6248L5.68158 13.9141C5.34259 12.7277 4.41517 11.8003 3.22871 11.4613L0.518056 10.6868C0.211412 10.5992 0 10.3189 0 10C0 9.68108 0.211412 9.40081 0.518056 9.3132L3.22871 8.53872C4.41517 8.19974 5.34259 7.27231 5.68158 6.08586L6.45605 3.3752C6.54367 3.06856 6.82394 2.85714 7.14286 2.85714Z" fill="url(#paint0_linear_9325_17616)"/>
<path fill-rule="evenodd" clip-rule="evenodd" d="M15.7143 0C16.042 0 16.3278 0.22307 16.4072 0.541046L16.6538 1.5272C16.8777 2.42291 17.5771 3.12229 18.4728 3.34622L19.459 3.59276C19.7769 3.67225 20 3.95795 20 4.28571C20 4.61348 19.7769 4.89918 19.459 4.97867L18.4728 5.22521C17.5771 5.44914 16.8777 6.14852 16.6538 7.04423L16.4072 8.03038C16.3278 8.34836 16.042 8.57143 15.7143 8.57143C15.3865 8.57143 15.1008 8.34836 15.0213 8.03038L14.7748 7.04423C14.5509 6.14852 13.8515 5.44914 12.9558 5.22521L11.9696 4.97867C11.6516 4.89918 11.4286 4.61348 11.4286 4.28571C11.4286 3.95795 11.6516 3.67225 11.9696 3.59276L12.9558 3.34622C13.8515 3.12229 14.5509 2.42291 14.7748 1.5272L15.0213 0.541046C15.1008 0.22307 15.3865 0 15.7143 0Z" fill="url(#paint1_linear_9325_17616)"/>
<path fill-rule="evenodd" clip-rule="evenodd" d="M14.2857 12.8571C14.5932 12.8571 14.8661 13.0539 14.9633 13.3456L15.3388 14.472C15.481 14.8985 15.8157 15.2333 16.2423 15.3755L17.3687 15.7509C17.6604 15.8482 17.8571 16.1211 17.8571 16.4286C17.8571 16.736 17.6604 17.009 17.3687 17.1062L16.2423 17.4817C15.8157 17.6239 15.481 17.9586 15.3388 18.3852L14.9633 19.5116C14.8661 19.8033 14.5932 20 14.2857 20C13.9783 20 13.7053 19.8033 13.6081 19.5116L13.2326 18.3852C13.0904 17.9586 12.7557 17.6239 12.3291 17.4817L11.2027 17.1062C10.911 17.009 10.7143 16.736 10.7143 16.4286C10.7143 16.1211 10.911 15.8482 11.2027 15.7509L12.3291 15.3755C12.7557 15.2333 13.0904 14.8985 13.2326 14.472L13.6081 13.3456C13.7053 13.0539 13.9783 12.8571 14.2857 12.8571Z" fill="url(#paint2_linear_9325_17616)"/>
<defs>
<linearGradient id="paint0_linear_9325_17616" x1="4.26684e-09" y1="10.076" x2="20" y2="9.92402" gradientUnits="userSpaceOnUse">
<stop stop-color="#806BFF"/>
<stop offset="1" stop-color="#A669FD"/>
</linearGradient>
<linearGradient id="paint1_linear_9325_17616" x1="4.26684e-09" y1="10.076" x2="20" y2="9.92402" gradientUnits="userSpaceOnUse">
<stop stop-color="#806BFF"/>
<stop offset="1" stop-color="#A669FD"/>
</linearGradient>
<linearGradient id="paint2_linear_9325_17616" x1="4.26684e-09" y1="10.076" x2="20" y2="9.92402" gradientUnits="userSpaceOnUse">
<stop stop-color="#806BFF"/>
<stop offset="1" stop-color="#A669FD"/>
</linearGradient>
</defs>
</svg>
