<svg width="18" height="17" viewBox="0 0 18 17" fill="none" xmlns="http://www.w3.org/2000/svg">
<g clip-path="url(#clip0_10360_12081)">
<rect width="16.5926" height="16.5926" transform="matrix(4.37114e-08 1 1 -4.37114e-08 0.664062 0.408203)" fill="#EFF3FD"/>
<path d="M9.64834 8.70503C9.64834 9.08686 9.33881 9.39639 8.95698 9.39639C8.57516 9.39639 8.26563 9.08686 8.26563 8.70503C8.26563 8.3232 8.57516 8.01367 8.95698 8.01367C9.33881 8.01367 9.64834 8.3232 9.64834 8.70503Z" fill="#333333" stroke="#333333" stroke-linecap="round" stroke-linejoin="round"/>
<path d="M14.4921 8.70503C14.4921 9.08686 14.1826 9.39639 13.8007 9.39639C13.4189 9.39639 13.1094 9.08686 13.1094 8.70503C13.1094 8.3232 13.4189 8.01367 13.8007 8.01367C14.1826 8.01367 14.4921 8.3232 14.4921 8.70503Z" fill="#333333" stroke="#333333" stroke-linecap="round" stroke-linejoin="round"/>
<path d="M4.8124 8.70503C4.8124 9.08686 4.50287 9.39639 4.12105 9.39639C3.73922 9.39639 3.42969 9.08686 3.42969 8.70503C3.42969 8.3232 3.73922 8.01367 4.12105 8.01367C4.50287 8.01367 4.8124 8.3232 4.8124 8.70503Z" fill="#333333" stroke="#333333" stroke-linecap="round" stroke-linejoin="round"/>
</g>
<defs>
<clipPath id="clip0_10360_12081">
<rect width="16.5926" height="16.5926" fill="white" transform="matrix(4.37114e-08 1 1 -4.37114e-08 0.664062 0.408203)"/>
</clipPath>
</defs>
</svg>
