<svg width="62" height="62" viewBox="0 0 62 62" fill="none" xmlns="http://www.w3.org/2000/svg">
<path d="M31.2141 61.2134C48.0403 61.2134 61.6806 47.573 61.6806 30.7468C61.6806 13.9206 48.0403 0.280273 31.2141 0.280273C14.3879 0.280273 0.747559 13.9206 0.747559 30.7468C0.747559 47.573 14.3879 61.2134 31.2141 61.2134Z" fill="#FFE500"/>
<path d="M29.1074 41.0962H35.1391" stroke="black" stroke-width="2" stroke-linecap="round" stroke-linejoin="round"/>
<path d="M24.9818 25.7542C25.9666 25.7542 26.7649 24.9558 26.7649 23.9711C26.7649 22.9863 25.9666 22.188 24.9818 22.188C23.9971 22.188 23.1987 22.9863 23.1987 23.9711C23.1987 24.9558 23.9971 25.7542 24.9818 25.7542Z" fill="black" stroke="black" stroke-width="2" stroke-linecap="round" stroke-linejoin="round"/>
<path d="M37.3168 25.7542C38.3016 25.7542 39.0999 24.9558 39.0999 23.9711C39.0999 22.9863 38.3016 22.188 37.3168 22.188C36.332 22.188 35.5337 22.9863 35.5337 23.9711C35.5337 24.9558 36.332 25.7542 37.3168 25.7542Z" fill="black" stroke="black" stroke-width="2" stroke-linecap="round" stroke-linejoin="round"/>
</svg>
