<svg width="61" height="62" viewBox="0 0 61 62" fill="none" xmlns="http://www.w3.org/2000/svg">
<path d="M30.5359 61.2133C47.3621 61.2133 61.0024 47.573 61.0024 30.7468C61.0024 13.9206 47.3621 0.280273 30.5359 0.280273C13.7097 0.280273 0.0693359 13.9206 0.0693359 30.7468C0.0693359 47.573 13.7097 61.2133 30.5359 61.2133Z" fill="url(#paint0_linear_9156_16209)"/>
<path d="M40.7437 38.7339C39.408 40.0706 37.8219 41.1311 36.0762 41.8546C34.3306 42.5781 32.4593 42.9505 30.5697 42.9505C28.68 42.9505 26.8091 42.5781 25.0635 41.8546C23.3178 41.1311 21.7317 40.0706 20.396 38.7339" stroke="black" stroke-width="2" stroke-linecap="round" stroke-linejoin="round"/>
<path d="M40.7437 38.7339C39.408 40.0706 37.8219 41.1311 36.0762 41.8546C34.3306 42.5781 32.4593 42.9505 30.5697 42.9505C28.68 42.9505 26.8091 42.5781 25.0635 41.8546C23.3178 41.1311 21.7317 40.0706 20.396 38.7339" stroke="black" stroke-opacity="0.2" stroke-width="2" stroke-linecap="round" stroke-linejoin="round"/>
<path d="M23.2684 25.7532C24.2532 25.7532 25.0515 24.9549 25.0515 23.9701C25.0515 22.9853 24.2532 22.187 23.2684 22.187C22.2837 22.187 21.4854 22.9853 21.4854 23.9701C21.4854 24.9549 22.2837 25.7532 23.2684 25.7532Z" fill="black" stroke="black" stroke-width="2" stroke-linecap="round" stroke-linejoin="round"/>
<path d="M36.8114 25.7532C37.7962 25.7532 38.5945 24.9549 38.5945 23.9701C38.5945 22.9853 37.7962 22.187 36.8114 22.187C35.8266 22.187 35.0283 22.9853 35.0283 23.9701C35.0283 24.9549 35.8266 25.7532 36.8114 25.7532Z" fill="black" stroke="black" stroke-width="2" stroke-linecap="round" stroke-linejoin="round"/>
<defs>
<linearGradient id="paint0_linear_9156_16209" x1="30.5359" y1="0.280273" x2="30.5359" y2="61.2133" gradientUnits="userSpaceOnUse">
<stop offset="0.046875" stop-color="#00D1C5"/>
<stop offset="1" stop-color="#5FE452"/>
</linearGradient>
</defs>
</svg>
