<?xml version='1.0' encoding='utf-8'?>
<svg xmlns="http://www.w3.org/2000/svg" width="23" height="15" viewBox="0 0 23 15" fill="none">
<path fill-rule="evenodd" clip-rule="evenodd" d="M0.761636 6.66448C3.74374 2.29251 7.61036 0 11.484 0C16.0335 0 19.9524 3.03129 22.2645 6.68363L22.2656 6.68535C22.4186 6.9285 22.5 7.21155 22.5 7.5007C22.5 7.78933 22.4189 8.07187 22.2665 8.31473C19.9563 12.0141 16.0627 15 11.484 15C6.85658 15 3.03802 12.0203 0.733574 8.33171C0.57699 8.08304 0.495775 7.79255 0.500169 7.49677C0.504574 7.20025 0.594817 6.91172 0.759494 6.66763L0.761636 6.66448ZM1.96661 7.51956L1.96864 7.52279C4.09711 10.9304 7.50856 13.5 11.484 13.5C15.415 13.5 18.9 10.9195 21.031 7.5065L21.0324 7.50426L21.0334 7.5007L21.0332 7.49914L21.0325 7.4973C18.8933 4.11915 15.3798 1.5 11.484 1.5C8.21431 1.5 4.75341 3.43555 1.96661 7.51956Z" fill="currentColor" />
<path fill-rule="evenodd" clip-rule="evenodd" d="M11.4996 4.5C9.87959 4.5 8.56635 5.84315 8.56635 7.5C8.56635 9.15685 9.87959 10.5 11.4996 10.5C13.1195 10.5 14.4328 9.15685 14.4328 7.5C14.4328 5.84315 13.1195 4.5 11.4996 4.5ZM7.09974 7.5C7.09974 5.01472 9.06961 3 11.4996 3C13.9295 3 15.8994 5.01472 15.8994 7.5C15.8994 9.98528 13.9295 12 11.4996 12C9.06961 12 7.09974 9.98528 7.09974 7.5Z" fill="currentColor" />
</svg>