<?xml version='1.0' encoding='utf-8'?>
<svg xmlns="http://www.w3.org/2000/svg" width="23" height="15" viewBox="0 0 23 15" fill="none">
<path d="M11.5 10.5C13.12 10.5 14.4333 9.15685 14.4333 7.5C14.4333 5.84315 13.12 4.5 11.5 4.5C9.87996 4.5 8.56667 5.84315 8.56667 7.5C8.56667 9.15685 9.87996 10.5 11.5 10.5Z" fill="currentColor" />
<path d="M17.8626 2.11781C15.8588 0.7125 13.7142 0 11.489 0C9.48654 0 7.5345 0.609375 5.68696 1.80375C3.82383 3.01078 1.99737 5.20312 0.5 7.5C1.71092 9.5625 3.36733 11.6831 5.0925 12.8991C7.07158 14.2931 9.22346 15 11.489 15C13.7348 15 15.8821 14.2936 17.8736 12.9005C19.6267 11.6719 21.295 9.55406 22.5 7.5C21.2909 5.46422 19.6171 3.34875 17.8626 2.11781ZM11.5 12C10.6298 12 9.77907 11.7361 9.05549 11.2416C8.33191 10.7471 7.76796 10.0443 7.43493 9.22208C7.1019 8.39981 7.01477 7.49501 7.18455 6.62209C7.35432 5.74918 7.77338 4.94736 8.38873 4.31802C9.00408 3.68868 9.78809 3.2601 10.6416 3.08647C11.4951 2.91283 12.3798 3.00195 13.1838 3.34254C13.9878 3.68314 14.675 4.25991 15.1585 4.99993C15.6419 5.73995 15.9 6.60998 15.9 7.5C15.8987 8.69306 15.4347 9.83685 14.6098 10.6805C13.7849 11.5241 12.6665 11.9986 11.5 12Z" fill="currentColor" />
</svg>