<?xml version='1.0' encoding='utf-8'?>
<svg xmlns="http://www.w3.org/2000/svg" width="20" height="20" viewBox="0 0 20 20" fill="none">
<path d="M10.9763 2.5L7.49999 2.5C5.92864 2.5 5.14297 2.5 4.65481 2.98816C4.16666 3.47631 4.16666 4.26198 4.16666 5.83333L4.16666 14.1667C4.16666 15.738 4.16666 16.5237 4.65481 17.0118C5.14297 17.5 5.92864 17.5 7.49999 17.5H12.5C14.0713 17.5 14.857 17.5 15.3452 17.0118C15.8333 16.5237 15.8333 15.738 15.8333 14.1667V7.35702C15.8333 7.0164 15.8333 6.84608 15.7699 6.69294C15.7065 6.5398 15.586 6.41937 15.3452 6.17851L12.1548 2.98816C11.914 2.7473 11.7935 2.62687 11.6404 2.56343C11.4872 2.5 11.3169 2.5 10.9763 2.5Z" stroke="currentColor" />
<path class="file-line" d="M7.5 10.833L12.5 10.833" stroke="currentColor" stroke-linecap="round" />
<path class="file-line" d="M7.5 14.167L10.8333 14.167" stroke="currentColor" stroke-linecap="round" />
<path class="file-clip" d="M10.8333 2.5V5.83333C10.8333 6.61901 10.8333 7.01184 11.0774 7.25592C11.3215 7.5 11.7143 7.5 12.5 7.5H15.8333" stroke="currentColor" fill="none" />
</svg>