<?xml version='1.0' encoding='utf-8'?>
<svg xmlns="http://www.w3.org/2000/svg" width="37" height="43" viewBox="0 0 37 43" fill="none">
<path fill-rule="evenodd" clip-rule="evenodd" d="M17.7386 0.630165C18.1406 0.371316 18.6465 0.334452 19.0818 0.532301L34.5505 7.56355C35.0526 7.79174 35.3749 8.2923 35.3749 8.84375C35.3749 9.3952 35.0526 9.89576 34.5505 10.124L19.9061 16.7805V34.1563C19.9061 34.9329 19.2765 35.5625 18.4999 35.5625C17.7232 35.5625 17.0936 34.9329 17.0936 34.1563V15.9069C17.0932 15.8862 17.0932 15.8655 17.0936 15.8448V1.8125C17.0936 1.33438 17.3366 0.889014 17.7386 0.630165ZM19.9061 13.6911L30.5703 8.84375L19.9061 3.99642V13.6911Z" fill="currentColor" />
<path fill-rule="evenodd" clip-rule="evenodd" d="M0.27783 39.2184C1.90882 31.0795 10.568 27.125 18.5 27.125C26.4321 27.125 35.0911 31.0795 36.7231 39.2183C36.8819 40.0108 36.7229 40.8526 36.2176 41.5166C35.697 42.2009 34.8856 42.5938 33.9688 42.5938H3.03127C2.11447 42.5938 1.30333 42.2005 0.783008 41.5164C0.278083 40.8525 0.119013 40.0109 0.27783 39.2184ZM18.5 29.9375C11.1391 29.9375 4.27679 33.5767 3.0355 39.771C3.03479 39.7746 3.03418 39.778 3.03366 39.7812H33.9673C33.9668 39.778 33.9662 39.7747 33.9655 39.7712C32.7234 33.5767 25.8609 29.9375 18.5 29.9375Z" fill="currentColor" />
</svg>