<?xml version='1.0' encoding='utf-8'?>
<svg xmlns="http://www.w3.org/2000/svg" width="12" height="14" viewBox="0 0 12 14" fill="none">
<path d="M6 14C8.89975 14 11.25 12.25 11.25 9.1875C11.25 7.875 10.8125 5.6875 9.0625 3.9375C9.28125 5.25 7.96875 5.6875 7.96875 5.6875C8.625 3.5 6.875 0.4375 4.25 0C4.56238 1.75 4.6875 3.5 2.5 5.25C1.40625 6.125 0.75 7.63788 0.75 9.1875C0.75 12.25 3.10025 14 6 14ZM6 13.125C4.55013 13.125 3.375 12.25 3.375 10.7188C3.375 10.0625 3.59375 8.96875 4.46875 8.09375C4.35938 8.75 5.125 9.1875 5.125 9.1875C4.79688 8.09375 5.5625 6.34375 6.875 6.125C6.71838 7 6.65625 7.875 7.75 8.75C8.29688 9.1875 8.625 9.9435 8.625 10.7188C8.625 12.25 7.44987 13.125 6 13.125Z" fill="currentColor" />
</svg>