<svg width="13" height="12" viewBox="0 0 13 12" fill="none" xmlns="http://www.w3.org/2000/svg">
<path d="M8 4H11.8182V9C11.8182 9.94281 11.8182 10.4142 11.5253 10.7071C11.2324 11 10.761 11 9.81818 11H8V4Z" stroke="#222222" stroke-linecap="round"/>
<path d="M1 4H4.81818V11H3C2.05719 11 1.58579 11 1.29289 10.7071C1 10.4142 1 9.94281 1 9V4Z" stroke="#222222" stroke-linecap="round"/>
<rect x="5" y="4" width="3" height="7" stroke="#222222" stroke-linecap="round"/>
<path d="M1 3C1 2.05719 1 1.58579 1.29289 1.29289C1.58579 1 2.05719 1 3 1H9.8C10.7428 1 11.2142 1 11.5071 1.29289C11.8 1.58579 11.8 2.05719 11.8 3V4H1V3Z" stroke="#222222" stroke-linecap="round"/>
</svg>
