<svg width="18" height="14" viewBox="0 0 18 14" fill="none" xmlns="http://www.w3.org/2000/svg">
<path d="M15.2852 4.45996C15.7015 4.48552 16.1081 4.60051 16.4756 4.7959C16.8429 4.99127 17.1627 5.26342 17.4141 5.59277C17.6654 5.92211 17.8422 6.30097 17.9316 6.7041C18.021 7.10733 18.0215 7.52537 17.9326 7.92871C17.8437 8.3321 17.668 8.71224 17.417 9.04199L15.1074 12.0908H17.0361C17.2917 12.0909 17.537 12.1913 17.7178 12.3701C17.8986 12.5491 18 12.7927 18 13.0459C17.9999 13.2989 17.8985 13.5418 17.7178 13.7207C17.537 13.8996 17.2917 13.9999 17.0361 14H13.1787C12.9997 14 12.8242 13.9505 12.6719 13.8574C12.5197 13.7643 12.3965 13.631 12.3164 13.4727C12.2364 13.3142 12.2017 13.1364 12.2178 12.96C12.2339 12.7834 12.2998 12.6145 12.4072 12.4727L15.875 7.89453C15.954 7.79476 16.012 7.67986 16.0459 7.55762C16.0798 7.43533 16.0888 7.30737 16.0723 7.18164C16.0557 7.05601 16.0145 6.93471 15.9502 6.8252C15.8858 6.71562 15.7995 6.62034 15.6973 6.54395C15.595 6.46754 15.4786 6.4112 15.3545 6.37988C15.2304 6.3486 15.1012 6.34269 14.9746 6.36133C14.8479 6.37998 14.7258 6.42354 14.6162 6.48926C14.5069 6.55494 14.4121 6.64174 14.3369 6.74414C14.2773 6.82176 14.2297 6.90792 14.1973 7C14.112 7.23858 13.9347 7.43383 13.7041 7.54297C13.4733 7.65209 13.2079 7.66641 12.9668 7.58203C12.7258 7.49769 12.5282 7.32204 12.418 7.09375C12.3077 6.86529 12.2937 6.60199 12.3789 6.36328C12.518 5.9741 12.7407 5.61937 13.0312 5.32324C13.3218 5.02713 13.6736 4.7964 14.0625 4.64746C14.4515 4.49856 14.8689 4.43444 15.2852 4.45996ZM9.32129 0C9.57688 0 9.82212 0.100482 10.0029 0.279297C10.1837 0.458204 10.286 0.7011 10.2861 0.954102V10.5C10.2861 10.7532 10.1838 10.9958 10.0029 11.1748C9.8221 11.3538 9.57699 11.4541 9.32129 11.4541C9.0656 11.4541 8.82045 11.3538 8.63965 11.1748C8.45884 10.9958 8.35742 10.7531 8.35742 10.5V6.68164H1.92871V10.5C1.92871 10.753 1.82716 10.9958 1.64648 11.1748C1.46565 11.3538 1.21961 11.4541 0.963867 11.4541C0.708274 11.454 0.462967 11.3537 0.282227 11.1748C0.101503 10.9958 0 10.7531 0 10.5V0.954102C0.000118678 0.7011 0.101494 0.458204 0.282227 0.279297C0.462963 0.100406 0.708291 0.000109653 0.963867 0C1.21961 0 1.46565 0.100285 1.64648 0.279297C1.8272 0.458201 1.92859 0.701116 1.92871 0.954102V4.77246H8.35742V0.954102C8.35754 0.701101 8.45892 0.458204 8.63965 0.279297C8.82044 0.100428 9.06568 3.64828e-05 9.32129 0Z" fill="#5C5C5C"/>
<path d="M15.2852 4.45996C15.7015 4.48552 16.1081 4.60051 16.4756 4.7959C16.8429 4.99127 17.1627 5.26342 17.4141 5.59277C17.6654 5.92211 17.8422 6.30097 17.9316 6.7041C18.021 7.10733 18.0215 7.52537 17.9326 7.92871C17.8437 8.3321 17.668 8.71224 17.417 9.04199L15.1074 12.0908H17.0361C17.2917 12.0909 17.537 12.1913 17.7178 12.3701C17.8986 12.5491 18 12.7927 18 13.0459C17.9999 13.2989 17.8985 13.5418 17.7178 13.7207C17.537 13.8996 17.2917 13.9999 17.0361 14H13.1787C12.9997 14 12.8242 13.9505 12.6719 13.8574C12.5197 13.7643 12.3965 13.631 12.3164 13.4727C12.2364 13.3142 12.2017 13.1364 12.2178 12.96C12.2339 12.7834 12.2998 12.6145 12.4072 12.4727L15.875 7.89453C15.954 7.79476 16.012 7.67986 16.0459 7.55762C16.0798 7.43533 16.0888 7.30737 16.0723 7.18164C16.0557 7.05601 16.0145 6.93471 15.9502 6.8252C15.8858 6.71562 15.7995 6.62034 15.6973 6.54395C15.595 6.46754 15.4786 6.4112 15.3545 6.37988C15.2304 6.3486 15.1012 6.34269 14.9746 6.36133C14.8479 6.37998 14.7258 6.42354 14.6162 6.48926C14.5069 6.55494 14.4121 6.64174 14.3369 6.74414C14.2773 6.82176 14.2297 6.90792 14.1973 7C14.112 7.23858 13.9347 7.43383 13.7041 7.54297C13.4733 7.65209 13.2079 7.66641 12.9668 7.58203C12.7258 7.49769 12.5282 7.32204 12.418 7.09375C12.3077 6.86529 12.2937 6.60199 12.3789 6.36328C12.518 5.9741 12.7407 5.61937 13.0312 5.32324C13.3218 5.02713 13.6736 4.7964 14.0625 4.64746C14.4515 4.49856 14.8689 4.43444 15.2852 4.45996ZM9.32129 0C9.57688 0 9.82212 0.100482 10.0029 0.279297C10.1837 0.458204 10.286 0.7011 10.2861 0.954102V10.5C10.2861 10.7532 10.1838 10.9958 10.0029 11.1748C9.8221 11.3538 9.57699 11.4541 9.32129 11.4541C9.0656 11.4541 8.82045 11.3538 8.63965 11.1748C8.45884 10.9958 8.35742 10.7531 8.35742 10.5V6.68164H1.92871V10.5C1.92871 10.753 1.82716 10.9958 1.64648 11.1748C1.46565 11.3538 1.21961 11.4541 0.963867 11.4541C0.708274 11.454 0.462967 11.3537 0.282227 11.1748C0.101503 10.9958 0 10.7531 0 10.5V0.954102C0.000118678 0.7011 0.101494 0.458204 0.282227 0.279297C0.462963 0.100406 0.708291 0.000109653 0.963867 0C1.21961 0 1.46565 0.100285 1.64648 0.279297C1.8272 0.458201 1.92859 0.701116 1.92871 0.954102V4.77246H8.35742V0.954102C8.35754 0.701101 8.45892 0.458204 8.63965 0.279297C8.82044 0.100428 9.06568 3.64828e-05 9.32129 0Z" stroke="#5C5C5C"/>
</svg>
