<?xml version='1.0' encoding='utf-8'?>
<svg xmlns="http://www.w3.org/2000/svg" width="12" height="12" viewBox="0 0 12 12" fill="none">
<path d="M7.71706 11.25V5.84733C7.71706 5.29505 7.26934 4.84733 6.71706 4.84733H5.18308C4.6308 4.84733 4.18308 5.29505 4.18308 5.84733V11.25M7.71706 11.25L7.71636 9.147C7.71617 8.59458 8.16394 8.14667 8.71636 8.14667H10.25C10.8023 8.14667 11.25 8.59438 11.25 9.14667V10.25C11.25 10.8023 10.8023 11.25 10.25 11.25H7.71706ZM7.71706 11.25H4.18308M4.18308 11.25V1.75C4.18308 1.19772 3.73537 0.75 3.18308 0.75H1.75C1.19772 0.75 0.75 1.19772 0.75 1.75V10.25C0.75 10.8023 1.19771 11.25 1.75 11.25H4.18308Z" stroke="currentColor" stroke-linecap="round" stroke-linejoin="round" />
</svg>