<svg width="16" height="17" viewBox="0 0 16 17" fill="none" xmlns="http://www.w3.org/2000/svg">
<path d="M0.296875 15.7007C0.296844 15.9769 0.520676 16.2007 0.796819 16.2008C1.07296 16.2008 1.29684 15.977 1.29688 15.7008L0.296875 15.7007ZM0.797179 13.0005L1.29718 13.0005L0.797179 13.0005ZM8.44687 10.8008C8.72302 10.8008 8.94687 10.5769 8.94687 10.3008C8.94687 10.0246 8.72302 9.80078 8.44687 9.80078V10.8008ZM15.1969 11.7008C15.473 11.7008 15.6969 11.4769 15.6969 11.2008C15.6969 10.9246 15.473 10.7008 15.1969 10.7008V11.7008ZM11.1469 10.7008C10.8707 10.7008 10.6469 10.9246 10.6469 11.2008C10.6469 11.4769 10.8707 11.7008 11.1469 11.7008V10.7008ZM12.6719 13.2257C12.6719 13.5018 12.8957 13.7257 13.1719 13.7257C13.448 13.7257 13.6719 13.5018 13.6719 13.2257H12.6719ZM13.6719 9.17568C13.6719 8.89953 13.448 8.67568 13.1719 8.67568C12.8957 8.67568 12.6719 8.89953 12.6719 9.17568H13.6719ZM12.2914 0.864628C12.0505 0.729606 11.7457 0.815421 11.6107 1.0563C11.4757 1.29718 11.5615 1.60191 11.8024 1.73693L12.2914 0.864628ZM11.8024 6.26463C11.5615 6.39965 11.4757 6.70438 11.6107 6.94526C11.7457 7.18614 12.0505 7.27196 12.2914 7.13693L11.8024 6.26463ZM9.79687 4.00078H9.29687C9.29687 5.21581 8.3119 6.20078 7.09687 6.20078V6.70078V7.20078C8.86418 7.20078 10.2969 5.76809 10.2969 4.00078H9.79687ZM7.09687 6.70078V6.20078C5.88185 6.20078 4.89687 5.21581 4.89687 4.00078H4.39687H3.89687C3.89687 5.76809 5.32956 7.20078 7.09687 7.20078V6.70078ZM4.39687 4.00078H4.89687C4.89687 2.78575 5.88185 1.80078 7.09687 1.80078V1.30078V0.800781C5.32956 0.800781 3.89687 2.23347 3.89687 4.00078H4.39687ZM7.09687 1.30078V1.80078C8.3119 1.80078 9.29687 2.78575 9.29687 4.00078H9.79687H10.2969C10.2969 2.23347 8.86418 0.800781 7.09687 0.800781V1.30078ZM0.796875 15.7008L1.29688 15.7008L1.29718 13.0005L0.797179 13.0005L0.297179 13.0004L0.296875 15.7007L0.796875 15.7008ZM3.49718 10.3008V9.80078C1.73001 9.80078 0.297377 11.2332 0.297179 13.0004L0.797179 13.0005L1.29718 13.0005C1.29732 11.7856 2.28225 10.8008 3.49718 10.8008V10.3008ZM3.49718 10.3008V10.8008H8.44687V10.3008V9.80078H3.49718V10.3008ZM15.1969 11.2008V10.7008H13.1719V11.2008V11.7008H15.1969V11.2008ZM13.1719 11.2008V10.7008H11.1469V11.2008V11.7008H13.1719V11.2008ZM13.1719 13.2257H13.6719V11.2008H13.1719H12.6719V13.2257H13.1719ZM13.1719 11.2008H13.6719V9.17568H13.1719H12.6719V11.2008H13.1719ZM12.0469 1.30078L11.8024 1.73693C12.7853 2.28787 13.3469 3.12483 13.3469 4.00078H13.8469H14.3469C14.3469 2.66405 13.4929 1.53811 12.2914 0.864628L12.0469 1.30078ZM13.8469 4.00078H13.3469C13.3469 4.87673 12.7853 5.71369 11.8024 6.26463L12.0469 6.70078L12.2914 7.13693C13.4929 6.46345 14.3469 5.33751 14.3469 4.00078H13.8469Z" fill="#333333"/>
</svg>
