<svg width="6" height="14" viewBox="0 0 6 14" fill="none" xmlns="http://www.w3.org/2000/svg">
<path d="M2.7625 4H4.7625L2.5625 14H0.5625L2.7625 4ZM4.4425 0C4.24472 0 4.05138 0.0586491 3.88693 0.16853C3.72248 0.278412 3.59431 0.434591 3.51862 0.617317C3.44293 0.800043 3.42313 1.00111 3.46171 1.19509C3.5003 1.38907 3.59554 1.56725 3.73539 1.70711C3.87525 1.84696 4.05343 1.9422 4.24741 1.98079C4.44139 2.01937 4.64246 1.99957 4.82518 1.92388C5.00791 1.84819 5.16409 1.72002 5.27397 1.55557C5.38385 1.39112 5.4425 1.19778 5.4425 1C5.4425 0.734784 5.33714 0.48043 5.14961 0.292893C4.96207 0.105357 4.70772 0 4.4425 0Z" fill="#5C5C5C"/>
</svg>
