<svg width="150" height="30" viewBox="0 0 150 30" fill="none" xmlns="http://www.w3.org/2000/svg">
<g clip-path="url(#clip0_11033_10829)">
<path d="M15.9297 0.501943C18.1125 0.501943 20.2953 0.501943 22.4781 0.501943C23.8408 0.501943 24.6676 1.3452 24.5618 2.55078C24.5528 2.78463 24.4962 3.01421 24.3954 3.22559C24.2946 3.43698 24.1517 3.62573 23.9754 3.7804C23.7991 3.93506 23.593 4.0524 23.3697 4.12528C23.1464 4.19816 22.9106 4.22506 22.6766 4.20435C18.9327 4.20435 15.1954 4.20435 11.4317 4.20435C10.2994 4.17944 9.16783 4.28109 8.05825 4.50739C6.8468 4.80096 5.77113 5.49507 5.007 6.47628C4.24287 7.4575 3.83546 8.66782 3.85135 9.90948C3.85135 11.9715 3.85135 14.0335 3.85135 16.0955C3.86051 16.521 3.73156 16.938 3.48367 17.2846C3.23579 17.6312 2.88221 17.8888 2.47551 18.0192C2.11067 18.1388 1.71707 18.1393 1.35189 18.0209C0.986707 17.9024 0.668961 17.671 0.444813 17.3604C0.217441 17.0622 0.0798059 16.7058 0.0479355 16.3327C0.0479355 13.8491 -0.110816 11.3522 0.107467 8.88836C0.326255 6.92929 1.16423 5.09008 2.50051 3.63606C3.83679 2.18203 5.60229 1.18837 7.54231 0.798399C8.65844 0.603647 9.78926 0.504465 10.9224 0.501943C12.5893 0.462415 14.2297 0.501943 15.9297 0.501943Z" fill="white"/>
<path d="M12.2466 29.4883C10.1299 29.4883 8.01324 29.5213 5.89655 29.4883C5.35022 29.4724 4.81903 29.3059 4.36196 29.0074C4.08018 28.7573 3.88187 28.4274 3.79357 28.0619C3.70528 27.6964 3.73122 27.3127 3.86792 26.9623C4.00463 26.6119 4.24557 26.3115 4.55847 26.1012C4.87138 25.891 5.24132 25.781 5.61874 25.7859H16.8636C18.1196 25.8348 19.3692 25.5841 20.5083 25.0547C21.6748 24.531 22.6589 23.6742 23.336 22.5929C24.0131 21.5115 24.3527 20.2543 24.3117 18.9806C24.3117 17.4259 24.3117 15.8777 24.2786 14.323C24.2666 13.9241 24.2909 13.525 24.3514 13.1306C24.4403 12.731 24.6615 12.3729 24.9794 12.1136C25.2973 11.8543 25.6934 11.709 26.1043 11.701C26.5334 11.6818 26.9548 11.8191 27.2896 12.0871C27.6244 12.3551 27.8497 12.7354 27.9233 13.1569C28.0688 15.9831 28.3135 18.8423 27.7315 21.6421C26.8848 25.7332 22.7903 29.1787 18.59 29.3961C16.48 29.5015 14.3567 29.3961 12.2466 29.3961V29.4883Z" fill="white"/>
<path d="M22.9059 6.75942C23.2319 6.73512 23.5589 6.79143 23.8578 6.92334C24.1567 7.05525 24.4183 7.25868 24.6193 7.51554C24.8202 7.77239 24.9543 8.07472 25.0097 8.39564C25.065 8.71656 25.0399 9.04613 24.9366 9.35505C24.831 9.67428 24.6273 9.95232 24.3542 10.1498C24.0812 10.3473 23.7526 10.4541 23.4152 10.4552C21.6311 10.6657 19.9652 11.4525 18.6725 12.6951C17.7892 13.5678 17.0061 14.5356 16.3375 15.5806C15.0146 17.4911 13.7777 19.4214 11.8859 20.851C9.97461 22.3469 7.73908 23.3778 5.35726 23.8616C4.87623 23.9723 4.37084 23.8927 3.9476 23.6395C3.52436 23.3864 3.21634 22.9795 3.08844 22.5045C3.00601 22.255 2.98076 21.9902 3.01454 21.7296C3.04833 21.469 3.14029 21.2193 3.28368 20.9988C3.42706 20.7783 3.61823 20.5925 3.84313 20.4552C4.06804 20.3179 4.32097 20.2325 4.58335 20.2053C6.08716 19.8874 7.51095 19.2701 8.76925 18.3905C10.0275 17.5108 11.0944 16.387 11.9057 15.0865C12.4415 14.2433 12.9641 13.3869 13.5462 12.5765C15.5722 9.64225 18.649 7.59149 22.1452 6.84506C22.2741 6.81838 22.4044 6.79858 22.5355 6.78577C22.6942 6.766 22.8331 6.766 22.9059 6.75942Z" fill="white"/>
<path d="M43.2715 25.4427C42.0096 25.4664 40.7567 25.2262 39.5938 24.7378C38.5837 24.3229 37.6797 23.6882 36.9479 22.88C36.308 22.1684 35.8537 21.311 35.625 20.3832L39.0315 18.9471C39.3236 19.8368 39.8851 20.6147 40.6389 21.1738C41.396 21.7246 42.3143 22.0117 43.2517 21.9907C44.0563 22.0372 44.8581 21.8592 45.5668 21.4768C45.8311 21.3198 46.0472 21.0938 46.1918 20.8232C46.3364 20.5527 46.4039 20.2479 46.387 19.9418C46.3791 19.5677 46.2941 19.1991 46.137 18.8591C45.98 18.5191 45.7543 18.2149 45.4742 17.9655C44.5803 17.2221 43.5488 16.6603 42.4381 16.3119C40.7245 15.7606 39.1654 14.8149 37.8872 13.5516C36.976 12.5093 36.4898 11.1649 36.5246 9.78327C36.5136 8.82253 36.8 7.88174 37.3448 7.08881C37.9336 6.24184 38.7464 5.57375 39.693 5.15855C40.8193 4.66454 42.0412 4.42386 43.2715 4.45364C44.7222 4.40499 46.158 4.75849 47.4189 5.47477C48.5292 6.13567 49.4425 7.0794 50.0647 8.20875L47.0419 10.0929C46.6906 9.44888 46.1949 8.89429 45.5932 8.47227C44.9367 8.03847 44.1653 7.80913 43.3773 7.81348C42.6487 7.7466 41.9189 7.92775 41.307 8.32734C41.0489 8.49095 40.8377 8.71831 40.694 8.98729C40.5502 9.25627 40.4789 9.55772 40.4868 9.86232C40.4985 10.2308 40.5932 10.592 40.7638 10.9193C40.9343 11.2465 41.1765 11.5314 41.4723 11.7531C42.3271 12.4336 43.2909 12.9659 44.3232 13.3276C46.0583 13.925 47.6394 14.8968 48.9535 16.1735C49.9779 17.2042 50.5511 18.5969 50.5476 20.0472C50.5626 21.037 50.2615 22.0059 49.6877 22.8142C49.0544 23.6732 48.1931 24.3394 47.2006 24.7378C45.9524 25.2355 44.6156 25.4753 43.2715 25.4427Z" fill="white"/>
<path d="M63.2884 20.9916L65.3654 23.3435C64.7499 24.0656 63.9697 24.6304 63.09 24.9905C62.1302 25.3775 61.1025 25.5701 60.0671 25.557C58.7534 25.594 57.4523 25.2921 56.2902 24.6808C55.2568 24.1231 54.4104 23.2755 53.856 22.2433C53.2753 21.1293 52.9842 19.8881 53.0093 18.6331C52.9845 17.3808 53.2804 16.1429 53.8692 15.0361C54.4361 14.0137 55.2855 13.1746 56.3166 12.6184C57.4715 12.0138 58.7629 11.7143 60.0671 11.7488C61.1 11.7447 62.1232 11.9463 63.0768 12.3417C63.9822 12.7051 64.7873 13.2788 65.425 14.015L63.2289 16.3142C62.8347 15.8675 62.347 15.5122 61.8002 15.2733C61.2465 15.0679 60.6575 14.9739 60.0671 14.9966C59.4639 14.994 58.8715 15.1557 58.3539 15.4643C57.8225 15.7879 57.3831 16.2415 57.0773 16.7819C56.7479 17.3644 56.5812 18.0241 56.5944 18.6924C56.5625 19.1931 56.6347 19.695 56.8066 20.1666C56.9784 20.6381 57.2463 21.0693 57.5933 21.433C57.9197 21.7504 58.307 21.9992 58.732 22.1644C59.157 22.3297 59.6111 22.408 60.0671 22.3948C60.6744 22.3928 61.2759 22.2766 61.8398 22.0523C62.4072 21.8304 62.9066 21.4648 63.2884 20.9916Z" fill="white"/>
<path d="M80.6984 15.0424C80.135 14.0134 79.2821 13.1707 78.2444 12.618C77.0752 12.0419 75.7884 11.7422 74.4839 11.7422C73.1795 11.7422 71.8927 12.0419 70.7235 12.618C69.6892 13.173 68.839 14.0152 68.2761 15.0424C67.694 16.1493 67.3985 17.3834 67.4162 18.6328C67.3857 19.8941 67.6818 21.1419 68.2761 22.2561C68.8258 23.2846 69.671 24.1264 70.7037 24.6739C71.8815 25.2487 73.1757 25.5475 74.4873 25.5475C75.7988 25.5475 77.093 25.2487 78.2708 24.6739C79.2954 24.1096 80.1374 23.2664 80.6984 22.2429C81.2927 21.1288 81.5889 19.8809 81.5583 18.6196C81.5853 17.3734 81.2892 16.1413 80.6984 15.0424ZM76.9545 21.3997C76.2711 21.9942 75.3946 22.3218 74.4873 22.3218C73.5799 22.3218 72.7033 21.9942 72.02 21.3997C71.6451 21.0479 71.3546 20.6164 71.1702 20.1374C70.9859 19.6583 70.9123 19.144 70.955 18.6328C70.9228 17.9152 71.0997 17.2036 71.4644 16.5839C71.9635 15.8437 72.7174 15.311 73.5838 15.0864C74.4503 14.8619 75.3693 14.9611 76.1674 15.3652C76.7112 15.6444 77.1684 16.0657 77.4903 16.5839C77.855 17.2036 78.0319 17.9152 77.9996 18.6328C78.0363 19.1441 77.9593 19.6572 77.7741 20.1354C77.5889 20.6137 77.3 21.0454 76.9281 21.3997H76.9545Z" fill="white"/>
<path d="M93.3014 12.082H96.8865V24.3092C96.3428 24.6088 95.7594 24.8306 95.1535 24.968C94.4774 25.1377 93.7899 25.2588 93.0963 25.3303C92.4835 25.3991 91.8675 25.4364 91.2508 25.4423C89.7578 25.5156 88.2685 25.2357 86.905 24.6254C85.943 24.1706 85.1575 23.4137 84.6693 22.4712C84.2425 21.5751 84.0168 20.5972 84.0078 19.6054C84.0078 18.2878 84.0078 17.0493 84.0078 15.8569C84.0078 14.6645 84.0078 13.4194 84.0078 12.1084H87.6194C87.6194 14.4142 87.6194 16.7199 87.6194 19.0257C87.5892 19.4557 87.6475 19.8873 87.7908 20.294C87.9341 20.7007 88.1594 21.0739 88.4528 21.3908C89.1461 21.9297 90.0169 22.1906 90.8936 22.122C91.3727 22.1233 91.8509 22.0814 92.3224 21.9968C92.6622 21.9432 92.9935 21.8457 93.308 21.707L93.3014 12.082Z" fill="white"/>
<path d="M105.72 25.4693C105.144 25.5 104.567 25.4038 104.032 25.1875C103.497 24.9711 103.017 24.64 102.625 24.2176C101.86 23.3505 101.449 22.2292 101.474 21.0751C101.474 20.2846 101.474 19.5994 101.474 19.0197C101.474 18.44 101.474 17.8536 101.474 17.2607C101.474 16.6722 101.474 15.9805 101.474 15.1855H99L99.6615 12.0892H101.467V9.375H105.079V12.0826H107.632V15.179H105.079V20.1331C105.077 20.6434 105.19 21.1476 105.41 21.6088C105.503 21.7913 105.648 21.9427 105.827 22.0445C106.005 22.1463 106.21 22.194 106.415 22.1819C106.58 22.1904 106.746 22.1904 106.911 22.1819C107.102 22.1639 107.29 22.1173 107.467 22.0436L108.049 25.1728C107.703 25.3136 107.337 25.4002 106.964 25.4297C106.551 25.4693 106.135 25.4825 105.72 25.4693Z" fill="white"/>
<path d="M120.224 12.0883V12.3584L120.29 13.1226C119.905 12.6763 119.4 12.3475 118.835 12.174C118.194 11.9129 117.51 11.7722 116.818 11.7589C115.595 11.7374 114.387 12.0229 113.305 12.589C112.293 13.1391 111.458 13.9638 110.898 14.9673C110.29 16.0819 109.986 17.3358 110.018 18.6038C110 19.8165 110.286 21.0144 110.851 22.0888C111.4 23.1076 112.216 23.959 113.213 24.5527C114.31 25.1719 115.557 25.4816 116.818 25.4486C117.535 25.4492 118.248 25.3335 118.928 25.1061C119.507 24.9371 120.018 24.5915 120.39 24.1179L120.297 24.948V25.0863H123.856V12.0883H120.224ZM119.391 21.2126C119.091 21.5203 118.732 21.7646 118.336 21.931C117.939 22.0974 117.513 22.1824 117.082 22.181C116.5 22.1859 115.927 22.0431 115.415 21.766C114.901 21.4749 114.472 21.0547 114.172 20.5472C113.829 19.9459 113.66 19.262 113.682 18.5709C113.655 17.8793 113.825 17.1941 114.172 16.5945C114.472 16.092 114.901 15.6781 115.415 15.3955C115.928 15.123 116.501 14.9847 117.082 14.9936C117.516 14.9886 117.947 15.0699 118.349 15.2328C118.751 15.3957 119.117 15.6369 119.424 15.9423C119.765 16.2877 120.03 16.7008 120.201 17.1548C120.372 17.6088 120.445 18.0935 120.416 18.5774C120.444 19.0642 120.368 19.5513 120.191 20.0059C120.014 20.4605 119.741 20.872 119.391 21.2126Z" fill="white"/>
<path d="M140.051 15.2004C139.529 14.1654 138.727 13.296 137.736 12.6904C136.214 11.8276 134.432 11.5399 132.715 11.8801C132.259 11.9671 131.816 12.1064 131.392 12.2951C131.035 12.4377 130.717 12.6636 130.466 12.9539L130.532 12.0053V4.80469H127V25.0889H130.658V24.8781L130.612 24.1402C130.877 24.4363 131.199 24.678 131.557 24.8517C131.978 25.058 132.422 25.2128 132.88 25.3129C133.276 25.3979 133.679 25.4442 134.084 25.4512C136.26 25.4512 137.927 24.8319 139.105 23.5868C139.717 22.9202 140.19 22.1388 140.495 21.2882C140.801 20.4375 140.933 19.5348 140.884 18.6327C140.889 17.4383 140.603 16.2606 140.051 15.2004ZM136.26 21.1954C135.958 21.5206 135.589 21.7772 135.178 21.9477C134.767 22.1182 134.324 22.1987 133.879 22.1836C133.417 22.1967 132.957 22.1112 132.53 21.9328C132.103 21.7544 131.72 21.4873 131.405 21.1493C131.083 20.8116 130.831 20.4135 130.664 19.9781C130.497 19.5428 130.419 19.0788 130.433 18.613C130.403 17.6581 130.752 16.73 131.405 16.0305C131.724 15.6939 132.11 15.4278 132.538 15.2496C132.967 15.0714 133.428 14.985 133.892 14.9962C134.339 14.9761 134.784 15.0549 135.195 15.2269C135.607 15.399 135.975 15.6599 136.274 15.991C136.896 16.7127 137.22 17.6428 137.18 18.5932C137.22 19.546 136.891 20.4777 136.26 21.1954Z" fill="white"/>
<path d="M147.756 25.4683C146.915 25.5012 146.085 25.2708 145.382 24.8095C144.76 24.3792 144.28 23.7736 144.006 23.0703C143.705 22.3182 143.555 21.5148 143.563 20.7052C143.563 18.8782 143.563 17.0072 143.563 15.0923V4.80859H147.115V20.1321C147.112 20.646 147.223 21.1543 147.439 21.621C147.524 21.8066 147.664 21.9621 147.84 22.0668C148.016 22.1715 148.22 22.2205 148.425 22.2073C148.59 22.2073 148.755 22.2073 148.921 22.2073C149.103 22.1843 149.281 22.1355 149.45 22.0623L150.032 25.1652C149.695 25.2824 149.347 25.3641 148.993 25.409C148.583 25.4597 148.17 25.4796 147.756 25.4683Z" fill="white"/>
</g>
<defs>
<clipPath id="clip0_11033_10829">
<rect width="150" height="29" fill="white" transform="translate(0 0.5)"/>
</clipPath>
</defs>
</svg>
