<svg width="123" height="126" viewBox="0 0 123 126" fill="none" xmlns="http://www.w3.org/2000/svg">
<g clip-path="url(#clip0_8590_17776)">
<path d="M69.7296 0C79.2619 0 88.8861 0 98.3877 0C104.334 0 107.951 3.66667 107.583 8.87879C107.545 9.89586 107.299 10.8947 106.859 11.8149C106.419 12.735 105.795 13.5572 105.024 14.2316C104.253 14.906 103.351 15.4185 102.374 15.7382C101.396 16.0578 100.364 16.1778 99.3379 16.0909C82.9706 16.0909 66.6033 16.0909 50.2973 16.0909C45.3485 15.9595 40.4011 16.3968 35.5544 17.3939C30.2676 18.6888 25.5768 21.7081 22.2398 25.964C18.9029 30.2199 17.1147 35.4638 17.1642 40.8485C17.1642 49.9394 17.1642 58.7879 17.1642 67.7273C17.1727 69.5878 16.5838 71.403 15.4822 72.9115C14.3805 74.42 12.8231 75.5438 11.0341 76.1212C9.44762 76.6462 7.73392 76.6623 6.13765 76.167C4.54139 75.6718 3.14419 74.6907 2.1455 73.3636C1.14287 72.0664 0.546203 70.5073 0.429083 68.8788C0.429083 58.0909 -0.275876 47.2424 0.674286 36.5455C1.59291 28.0419 5.21959 20.0466 11.0313 13.7126C16.843 7.37851 24.5394 3.0331 33.0104 1.30303C37.887 0.442967 42.8304 0.00695627 47.7839 0C55.1707 0 62.4042 0 69.7296 0Z" fill="#333333"/>
<path d="M53.5767 125.97C44.3816 125.97 35.1865 125.97 25.8075 125.97C23.4159 125.883 21.0943 125.149 19.0951 123.848C17.8162 122.783 16.9042 121.35 16.4855 119.75C16.0668 118.149 16.1621 116.459 16.7581 114.914C17.3542 113.369 18.4216 112.046 19.8124 111.127C21.2031 110.209 22.8484 109.741 24.5202 109.788H73.5608C79.0307 110.031 84.4813 108.992 89.4684 106.758C94.5751 104.478 98.8811 100.748 101.839 96.0432C104.797 91.3381 106.274 85.8699 106.081 80.3333C106.081 73.6061 106.081 66.8485 106.081 60.1212C106.029 58.3884 106.132 56.6545 106.387 54.9394C106.815 53.2038 107.822 51.6614 109.246 50.5616C110.67 49.4619 112.427 48.869 114.234 48.8788C116.104 48.8057 117.937 49.4035 119.396 50.5618C120.855 51.7202 121.841 53.3611 122.172 55.1818C122.816 67.4849 123.889 79.9091 121.345 92.0606C119.052 101.093 113.961 109.191 106.783 115.222C99.6061 121.253 90.7016 124.916 81.3153 125.697C72.1202 126.152 62.9251 125.697 53.5461 125.697L53.5767 125.97Z" fill="#333333"/>
<path d="M100.257 27.2728C101.696 27.124 103.149 27.3396 104.479 27.8993C105.81 28.459 106.975 29.3443 107.864 30.4719C108.753 31.5995 109.337 32.9322 109.562 34.3447C109.786 35.7571 109.643 37.2028 109.146 38.5455C108.679 39.9259 107.786 41.127 106.593 41.9802C105.4 42.8335 103.967 43.296 102.495 43.3031C94.684 44.2308 87.3902 47.6449 81.7139 53.0303C77.8576 56.8303 74.4349 61.0373 71.5073 65.5758C65.837 73.8788 60.2893 82.2425 52.0444 88.4243C43.6677 94.921 33.8775 99.4027 23.4475 101.515C21.3403 101.996 19.1266 101.648 17.2736 100.546C15.4207 99.4434 14.0736 97.6721 13.5168 95.6061C13.1585 94.524 13.0496 93.3764 13.1978 92.2473C13.3461 91.1182 13.7479 90.0361 14.3737 89.0804C14.9996 88.1246 15.8338 87.3193 16.8151 86.7234C17.7964 86.1275 18.9001 85.7561 20.0454 85.6364C26.6291 84.245 32.8616 81.5554 38.3701 77.7286C43.8787 73.9017 48.5503 69.0161 52.1057 63.3637C54.4351 59.697 56.7645 56 59.3085 52.4849C68.1779 39.6942 81.6905 30.7734 97.0391 27.5758C97.6055 27.4452 98.1784 27.3441 98.7555 27.2728H100.257Z" fill="#9E9E9E"/>
</g>
<defs>
<clipPath id="clip0_8590_17776">
<rect width="123" height="126" fill="white"/>
</clipPath>
</defs>
</svg>
