<?xml version='1.0' encoding='utf-8'?>
<svg xmlns="http://www.w3.org/2000/svg" width="13" height="12" viewBox="0 0 13 12" fill="none">
<path d="M5.28125 1C5.28125 0.723858 5.05739 0.5 4.78125 0.5C4.50511 0.5 4.28125 0.723858 4.28125 1H5.28125ZM4.28125 11C4.28125 11.2761 4.50511 11.5 4.78125 11.5C5.05739 11.5 5.28125 11.2761 5.28125 11H4.28125ZM3.0625 1V1.5H9.9375V1V0.5H3.0625V1ZM12 2.875H11.5V9.125H12H12.5V2.875H12ZM9.9375 11V10.5H3.0625V11V11.5H9.9375V11ZM1 9.125H1.5V2.875H1H0.5V9.125H1ZM3.0625 11V10.5C2.15364 10.5 1.5 9.84061 1.5 9.125H1H0.5C0.5 10.4805 1.69318 11.5 3.0625 11.5V11ZM12 9.125H11.5C11.5 9.84061 10.8464 10.5 9.9375 10.5V11V11.5C11.3068 11.5 12.5 10.4805 12.5 9.125H12ZM9.9375 1V1.5C10.8464 1.5 11.5 2.15939 11.5 2.875H12H12.5C12.5 1.51955 11.3068 0.5 9.9375 0.5V1ZM3.0625 1V0.5C1.69318 0.5 0.5 1.51955 0.5 2.875H1H1.5C1.5 2.15939 2.15364 1.5 3.0625 1.5V1ZM4.78125 1H4.28125V11H4.78125H5.28125V1H4.78125ZM1.34375 4.4375V4.9375H11.6562V4.4375V3.9375H1.34375V4.4375Z" fill="currentColor" />
</svg>