<svg width="17" height="13" viewBox="0 0 17 13" fill="none" xmlns="http://www.w3.org/2000/svg">
<path d="M2.13412 0.995787L5.30496 3.78579L8.12996 0.307453C8.20906 0.210212 8.30909 0.13207 8.42258 0.0788457C8.53607 0.0256217 8.66011 -0.00131242 8.78546 4.91676e-05C8.9108 0.00141075 9.03423 0.0310329 9.14654 0.0867097C9.25885 0.142387 9.35715 0.222683 9.43412 0.32162L12.13 3.78495L15.4033 0.954953C15.5318 0.844045 15.6912 0.775045 15.86 0.757188C16.0289 0.739332 16.1991 0.77347 16.348 0.855035C16.4969 0.9366 16.6174 1.0617 16.6932 1.21359C16.7691 1.36548 16.7967 1.53692 16.7725 1.70495L15.5225 10.3275H2.02829L0.759124 1.74412C0.733914 1.57515 0.761245 1.40251 0.837416 1.24959C0.913588 1.09667 1.03492 0.970861 1.18497 0.889194C1.33503 0.807527 1.50656 0.773953 1.67634 0.793019C1.84611 0.812085 2.00592 0.88287 2.13412 0.995787ZM2.09329 11.1608H15.4266V11.9941C15.4266 12.2151 15.3388 12.4271 15.1825 12.5834C15.0263 12.7397 14.8143 12.8275 14.5933 12.8275H2.92662C2.70561 12.8275 2.49365 12.7397 2.33737 12.5834C2.18109 12.4271 2.09329 12.2151 2.09329 11.9941V11.1608Z" fill="url(#paint0_linear_10669_20347)"/>
<defs>
<linearGradient id="paint0_linear_10669_20347" x1="0.75" y1="6.46246" x2="16.7805" y2="6.31024" gradientUnits="userSpaceOnUse">
<stop stop-color="#806BFF"/>
<stop offset="1" stop-color="#A669FD"/>
</linearGradient>
</defs>
</svg>
