<svg width="20" height="19" viewBox="0 0 20 19" fill="none" xmlns="http://www.w3.org/2000/svg">
<path d="M9.57607 1.76159C9.74821 1.4128 10.2456 1.4128 10.4177 1.76159L12.646 6.27669C12.7144 6.4152 12.8465 6.5112 12.9994 6.53341L17.9821 7.25744C18.367 7.31337 18.5207 7.78639 18.2422 8.05788L14.6366 11.5724C14.526 11.6802 14.4756 11.8355 14.5017 11.9878L15.3528 16.9504C15.4186 17.3337 15.0162 17.626 14.6719 17.4451L10.2153 15.102C10.0785 15.0302 9.91522 15.0302 9.77851 15.102L5.32184 17.4451C4.97756 17.626 4.57519 17.3337 4.64094 16.9504L5.49209 11.9878C5.5182 11.8355 5.46773 11.6802 5.35713 11.5724L1.7516 8.05788C1.47308 7.78639 1.62677 7.31337 2.01168 7.25744L6.9944 6.53341C7.14724 6.5112 7.27938 6.4152 7.34773 6.27669L9.57607 1.76159Z" fill="currentColor" stroke="currentColor" stroke-width="1.5" stroke-linejoin="round"/>
</svg>
