<?xml version='1.0' encoding='utf-8'?>
<svg xmlns="http://www.w3.org/2000/svg" width="12" height="12" viewBox="0 0 12 12" fill="none">
<path fill-rule="evenodd" clip-rule="evenodd" d="M2.66658 1.01118C3.65328 0.351894 4.81331 0 6 0C7.5913 0 9.11742 0.632141 10.2426 1.75736C11.3679 2.88258 12 4.4087 12 6C12 7.18669 11.6481 8.34672 10.9888 9.33342C10.3295 10.3201 9.39246 11.0891 8.2961 11.5433C7.19974 11.9974 5.99335 12.1162 4.82946 11.8847C3.66557 11.6532 2.59648 11.0818 1.75736 10.2426C0.918247 9.40352 0.346802 8.33443 0.115291 7.17054C-0.11622 6.00666 0.00259975 4.80026 0.456725 3.7039C0.910851 2.60754 1.67989 1.67047 2.66658 1.01118ZM6 1C5.01109 1 4.0444 1.29324 3.22215 1.84265C2.3999 2.39206 1.75904 3.17295 1.3806 4.08658C1.00217 5.00021 0.90315 6.00555 1.09608 6.97545C1.289 7.94536 1.76521 8.83627 2.46447 9.53553C3.16373 10.2348 4.05464 10.711 5.02455 10.9039C5.99445 11.0969 6.99979 10.9978 7.91342 10.6194C8.82705 10.241 9.60794 9.60009 10.1573 8.77785C10.7068 7.9556 11 6.98891 11 6C11 4.67392 10.4732 3.40215 9.53553 2.46447C8.59785 1.52678 7.32608 1 6 1Z" fill="currentColor" />
<path d="M6.00609 3.37495C6.30996 3.37112 6.54097 3.42395 6.64103 3.47158C6.93261 3.61037 7.31251 3.86549 7.31251 4.36061C7.31251 4.91441 6.99545 5.16516 6.36977 5.58476C6.02093 5.8187 5.77336 6.08032 5.61602 6.37384C5.45794 6.66873 5.40626 6.96728 5.40626 7.24999C5.40626 7.49161 5.60213 7.68749 5.84376 7.68749C6.08538 7.68749 6.28126 7.49161 6.28126 7.24999C6.28126 7.07739 6.31176 6.92797 6.3872 6.78723C6.46338 6.64513 6.60065 6.48347 6.85712 6.31147L6.87719 6.29802C7.45897 5.908 8.18751 5.4196 8.18751 4.36061C8.18751 3.31137 7.35053 2.84023 7.0171 2.68152C6.75222 2.55543 6.37246 2.49519 5.99345 2.50004C5.56586 2.50645 5.0391 2.59903 4.58711 2.96304C4.22985 3.25055 4.03533 3.56855 3.93116 3.8241C3.87947 3.95092 3.85042 4.06124 3.83408 4.14378C3.8259 4.18511 3.82086 4.21969 3.81776 4.24619C3.8162 4.25945 3.81513 4.27072 3.81439 4.27983L3.8135 4.29187L3.81322 4.29664L3.8131 4.29872L3.81301 4.30058C3.80143 4.54192 3.98769 4.74696 4.22903 4.75855C4.46785 4.77001 4.67112 4.58776 4.68658 4.3501L4.6868 4.34808C4.68742 4.34283 4.689 4.33101 4.69243 4.31371C4.6993 4.27899 4.7134 4.22316 4.74143 4.15439C4.79669 4.01882 4.90811 3.82783 5.13603 3.64444C5.37826 3.44931 5.68392 3.37985 6.00609 3.37495Z" fill="currentColor" />
<path d="M5.8125 9.5C6.15768 9.5 6.4375 9.22018 6.4375 8.875C6.4375 8.52982 6.15768 8.25 5.8125 8.25C5.46732 8.25 5.1875 8.52982 5.1875 8.875C5.1875 9.22018 5.46732 9.5 5.8125 9.5Z" fill="currentColor" />
</svg>