<svg width="11" height="11" viewBox="0 0 11 11" fill="none" xmlns="http://www.w3.org/2000/svg">
<path d="M4.7276 1.46332C4.87729 1.00269 5.52896 1.00269 5.67865 1.46332L6.43807 3.80027C6.50501 4.00627 6.69697 4.14574 6.91357 4.14575L9.37082 4.14584C9.85516 4.14586 10.0565 4.76563 9.66471 5.05034L7.67681 6.49475C7.50158 6.62207 7.42826 6.84773 7.49518 7.05374L8.25442 9.39075C8.40408 9.85139 7.87687 10.2344 7.48501 9.94976L5.497 8.5055C5.32177 8.37819 5.08448 8.37819 4.90925 8.5055L2.92124 9.94976C2.52938 10.2344 2.00217 9.85139 2.15183 9.39075L2.91107 7.05374C2.97799 6.84774 2.90467 6.62207 2.72944 6.49475L0.74154 5.05034C0.34971 4.76563 0.551087 4.14586 1.03543 4.14584L3.49268 4.14575C3.70928 4.14574 3.90124 4.00627 3.96818 3.80027L4.7276 1.46332Z" stroke="currentColor"/>
</svg>
