<svg width="40" height="40" viewBox="0 0 40 40" fill="none" xmlns="http://www.w3.org/2000/svg">
<path fill-rule="evenodd" clip-rule="evenodd" d="M32.6575 0.287142C34.5438 -0.0476294 36.3493 -0.121288 37.8152 0.236283C38.1446 0.31539 38.4449 0.486213 38.6812 0.729029C38.9149 0.969037 39.0765 1.26959 39.148 1.59653C39.4922 3.10578 39.4208 4.92661 39.085 6.82731C38.7449 8.75211 38.1166 10.8538 37.2662 12.9636C35.5717 17.1677 32.9418 21.535 29.7723 24.6879C28.8407 25.6251 27.8424 26.493 26.7854 27.2849C26.8547 29.0105 26.6578 30.796 25.9545 32.4099C24.8151 35.0162 22.7614 36.6543 20.7841 37.6705C18.8126 38.6838 16.831 39.1268 15.655 39.3158C15.3225 39.3696 14.982 39.3461 14.6599 39.2473C14.3379 39.1485 14.0429 38.9769 13.7977 38.7459C13.5525 38.5149 13.3637 38.2306 13.2459 37.9149C13.1281 37.5993 13.0845 37.2608 13.1184 36.9257C13.1188 36.9217 13.1192 36.9177 13.1197 36.9137L13.7391 31.2695C13.6764 31.2632 13.6137 31.2566 13.551 31.2496C12.8608 31.1784 12.2165 30.8703 11.7278 30.3775L11.7245 30.3741L8.97713 27.6268L8.97373 27.6234C8.48114 27.135 8.17296 26.4911 8.10152 25.8012C8.09421 25.7353 8.08728 25.6693 8.08072 25.6034L2.43133 26.2236L2.42551 26.2242L2.42116 26.2246C2.08556 26.259 1.74655 26.2157 1.43041 26.0979C1.11425 25.9802 0.829468 25.7912 0.59812 25.5457C0.366769 25.3002 0.195047 25.0047 0.0962772 24.6821C-0.00249065 24.3595 -0.0256539 24.0186 0.028579 23.6856L0.0289877 23.6831C0.222085 22.5108 0.667149 20.5322 1.6819 18.5618C2.69929 16.5863 4.33521 14.5348 6.93958 13.3897L6.94331 13.388C8.55791 12.6837 10.353 12.4871 12.0893 12.5629C12.8813 11.5098 13.7486 10.515 14.6846 9.58653C17.8466 6.42751 22.2799 3.79872 26.5117 2.10535C28.6356 1.25543 30.7443 0.626686 32.6575 0.287142ZM27.5566 4.71654C23.5768 6.30908 19.4966 8.754 16.6708 11.5778L16.6671 11.5815C15.6578 12.5825 14.7375 13.6694 13.9165 14.8299C13.6269 15.2393 13.1412 15.4635 12.6418 15.4183C10.93 15.2635 9.34651 15.4087 8.06991 15.965C6.23763 16.7713 5.0097 18.2429 4.1823 19.8495C3.54493 21.0871 3.17251 22.3548 2.9582 23.3363L9.2497 22.6456C9.64476 22.6023 10.0397 22.7281 10.3369 22.992C10.6341 23.2559 10.8057 23.6332 10.8094 24.0306C10.8138 24.5203 10.8432 25.0095 10.8975 25.4963C10.898 25.5012 10.8985 25.5061 10.899 25.511C10.9034 25.5547 10.9229 25.5955 10.9542 25.6264L10.96 25.6322L13.7189 28.3911L13.7246 28.3969C13.7556 28.4282 13.7964 28.4477 13.8402 28.452C13.8455 28.4526 13.8507 28.4531 13.856 28.4537C14.3397 28.5077 14.8259 28.5371 15.3125 28.5418C15.7098 28.5457 16.0869 28.7174 16.3506 29.0145C16.6143 29.3117 16.7401 29.7065 16.6967 30.1014L16.0067 36.3886C16.9881 36.1772 18.2587 35.8063 19.4985 35.1691C21.1062 34.3428 22.5761 33.1157 23.3764 31.2859C23.9342 30.0056 24.0792 28.4292 23.9323 26.7227C23.8893 26.2243 24.1144 25.7406 24.5233 25.4525C25.687 24.6325 26.7768 23.7123 27.7803 22.7025L27.7862 22.6966C30.6254 19.8731 33.0687 15.8544 34.6577 11.9122C35.4493 9.94804 36.0154 8.03586 36.3154 6.33801C36.5585 4.96175 36.6162 3.78514 36.5118 2.8586C35.6391 2.76018 34.5027 2.81612 33.149 3.05637C31.4607 3.35601 29.5388 3.92335 27.5566 4.71654ZM26.0892 10.9507C25.625 10.9507 25.1713 11.0883 24.7854 11.3462C24.3995 11.6041 24.0987 11.9706 23.9211 12.3995C23.7435 12.8283 23.6971 13.3002 23.7876 13.7554C23.8782 14.2106 24.1018 14.6288 24.43 14.9569C24.6476 15.1749 24.9072 15.3491 25.1917 15.4671C25.4762 15.5851 25.7812 15.6459 26.0892 15.6459C26.3972 15.6459 26.7022 15.5851 26.9867 15.4671C27.2712 15.3491 27.5296 15.1761 27.7472 14.9581C28.0754 14.6299 28.3002 14.2106 28.3907 13.7554C28.4813 13.3002 28.4349 12.8283 28.2573 12.3995C28.0797 11.9706 27.7789 11.6041 27.393 11.3462C27.0071 11.0883 26.5533 10.9507 26.0892 10.9507ZM23.2228 9.00776C24.0712 8.4408 25.0688 8.1382 26.0892 8.1382C27.1096 8.1382 28.1072 8.4408 28.9556 9.00776C29.8041 9.57471 30.4653 10.3805 30.8558 11.3233C31.2462 12.2661 31.3483 13.3035 31.1492 14.3043C30.9501 15.3046 30.459 16.2234 29.738 16.9447C29.2592 17.4245 28.6905 17.8052 28.0644 18.0649C27.4382 18.3247 26.7671 18.4584 26.0892 18.4584C25.4113 18.4584 24.7401 18.3247 24.114 18.0649C23.4882 17.8053 22.9197 17.4249 22.4411 16.9454C21.7197 16.224 21.2284 15.3049 21.0292 14.3043C20.8301 13.3035 20.9322 12.2661 21.3226 11.3233C21.7131 10.3805 22.3743 9.57471 23.2228 9.00776Z" fill="#333333"/>
<path fill-rule="evenodd" clip-rule="evenodd" d="M8.21846 27.938C8.31309 28.7088 7.76489 29.4105 6.99403 29.5051C6.42965 29.5744 5.90455 29.83 5.50191 30.2314C5.36682 30.3677 5.14874 30.7413 4.93345 31.4462C4.73172 32.1067 4.5807 32.8921 4.4708 33.6714C4.40227 34.1574 4.3516 34.6273 4.31437 35.0438C4.73116 35.0065 5.20148 34.9558 5.68785 34.8872C6.4673 34.7772 7.25257 34.626 7.91255 34.4241C8.61876 34.2081 8.99085 33.9896 9.12482 33.8556L9.12721 33.8532C9.52947 33.4526 9.78502 32.9282 9.85262 32.3645C9.94509 31.5934 10.6452 31.0432 11.4163 31.1357C12.1874 31.2282 12.7376 31.9283 12.6451 32.6994C12.5023 33.8904 11.9624 34.9986 11.1126 35.8452C10.4719 36.4855 9.54389 36.8663 8.7352 37.1136C7.87965 37.3753 6.93473 37.5516 6.08085 37.6721C5.22054 37.7935 4.41652 37.8632 3.82984 37.9027C3.5355 37.9225 3.29347 37.9349 3.12347 37.9424C3.03842 37.9461 2.97125 37.9486 2.92442 37.9502C2.901 37.951 2.88265 37.9516 2.86968 37.952L2.85429 37.9524L2.84762 37.9526C2.84762 37.9526 2.84719 37.9526 2.81136 36.5468C1.40557 36.511 1.40558 36.5105 1.40558 36.5105L1.40576 36.5039L1.4062 36.4885C1.40659 36.4755 1.40716 36.4572 1.40796 36.4338C1.40956 36.387 1.41207 36.3198 1.4158 36.2348C1.42325 36.0649 1.43561 35.823 1.45542 35.5288C1.4949 34.9424 1.56457 34.1388 1.68586 33.2787C1.80624 32.425 1.98228 31.4803 2.24362 30.6246C2.49092 29.815 2.87141 28.8866 3.51072 28.2451L3.51309 28.2428C4.35951 27.3975 5.46407 26.8593 6.65135 26.7135C7.42222 26.6189 8.12383 27.1671 8.21846 27.938ZM2.81136 36.5468L1.40558 36.5105C1.39575 36.8958 1.54447 37.2687 1.81699 37.5412C2.0895 37.8137 2.46235 37.9624 2.84762 37.9526L2.81136 36.5468Z" fill="#333333"/>
</svg>
