<?xml version='1.0' encoding='utf-8'?>
<svg xmlns="http://www.w3.org/2000/svg" width="19" height="18" viewBox="0 0 19 18" fill="none">
<path d="M18.1577 0.495055C18.1505 0.460508 18.1337 0.428709 18.1092 0.403387C18.0846 0.378066 18.0533 0.36027 18.019 0.352087C15.7311 -0.207288 10.4448 1.78607 7.58073 4.64896C7.0699 5.15566 6.6042 5.70592 6.18893 6.29349C5.30573 6.21537 4.42252 6.2806 3.66979 6.60873C1.54596 7.54349 0.927601 9.98256 0.755335 11.0318C0.745564 11.0892 0.74925 11.1481 0.766102 11.2039C0.782955 11.2596 0.812515 11.3107 0.852458 11.3531C0.8924 11.3955 0.941636 11.4281 0.996292 11.4482C1.05095 11.4684 1.10954 11.4756 1.16744 11.4693L4.57799 11.0931C4.58043 11.3502 4.59594 11.6071 4.62448 11.8626C4.64164 12.0401 4.72042 12.206 4.84713 12.3314L6.16784 13.649C6.29338 13.7755 6.45917 13.8543 6.63659 13.8716C6.89071 13.9 7.14612 13.9156 7.40182 13.9181L7.0276 17.3244C7.02136 17.3822 7.02861 17.4408 7.04879 17.4954C7.06897 17.55 7.10153 17.5992 7.14392 17.6392C7.1863 17.6791 7.23736 17.7086 7.29308 17.7255C7.34881 17.7424 7.40769 17.7462 7.4651 17.7365C8.51237 17.5685 10.9557 16.9501 11.885 14.8263C12.2131 14.0736 12.2803 13.1947 12.2046 12.3158C12.7935 11.9005 13.3452 11.4346 13.8534 10.9236C16.7264 8.06498 18.7085 2.89662 18.1577 0.495055ZM10.987 7.51341C10.7246 7.25124 10.5459 6.91715 10.4735 6.5534C10.401 6.18965 10.4381 5.81259 10.58 5.46991C10.7219 5.12722 10.9622 4.83432 11.2705 4.62824C11.5789 4.42215 11.9415 4.31216 12.3124 4.31216C12.6833 4.31216 13.0458 4.42215 13.3542 4.62824C13.6626 4.83432 13.9029 5.12722 14.0448 5.46991C14.1866 5.81259 14.2237 6.18965 14.1512 6.5534C14.0788 6.91715 13.9001 7.25124 13.6378 7.51341C13.4638 7.68763 13.2572 7.82583 13.0298 7.92013C12.8023 8.01443 12.5586 8.06297 12.3124 8.06297C12.0662 8.06297 11.8224 8.01443 11.595 7.92013C11.3675 7.82583 11.1609 7.68763 10.987 7.51341Z" fill="currentColor" />
<path d="M6.07799 14.6033C5.86393 14.8177 5.52057 14.9013 5.10729 14.9728C4.17877 15.131 3.35885 14.3287 3.52565 13.39C3.58932 13.0341 3.7776 12.5353 3.89479 12.4181C3.9204 12.393 3.93745 12.3604 3.94351 12.3251C3.94958 12.2897 3.94434 12.2533 3.92856 12.2211C3.91278 12.1889 3.88724 12.1625 3.85559 12.1456C3.82393 12.1287 3.78776 12.1222 3.75221 12.1271C3.23298 12.1906 2.74992 12.426 2.37994 12.7958C1.46159 13.715 1.37487 17.1255 1.37487 17.1255C1.37487 17.1255 4.78737 17.0388 5.70573 16.1197C6.07669 15.75 6.31239 15.2662 6.37487 14.7462C6.38932 14.583 6.19049 14.4857 6.07799 14.6033Z" fill="currentColor" />
</svg>