<svg width="151" height="30" viewBox="0 0 151 30" fill="none" xmlns="http://www.w3.org/2000/svg">
<path d="M15.9375 0.507802C18.1203 0.507802 20.3031 0.507802 22.486 0.507802C23.8486 0.507802 24.6754 1.35106 24.5696 2.55664C24.5606 2.79048 24.504 3.02007 24.4032 3.23145C24.3024 3.44283 24.1595 3.63159 23.9832 3.78626C23.8069 3.94092 23.6008 4.05826 23.3775 4.13114C23.1543 4.20402 22.9184 4.23092 22.6844 4.21021C18.9405 4.21021 15.2033 4.21021 11.4395 4.21021C10.3072 4.1853 9.17564 4.28695 8.06607 4.51325C6.85461 4.80682 5.77894 5.50092 5.01481 6.48214C4.25068 7.46336 3.84328 8.67368 3.85916 9.91534C3.85916 11.9774 3.85916 14.0394 3.85916 16.1014C3.86832 16.5268 3.73937 16.9438 3.49149 17.2904C3.2436 17.637 2.89002 17.8947 2.48332 18.0251C2.11849 18.1446 1.72489 18.1452 1.3597 18.0267C0.99452 17.9082 0.676774 17.6769 0.452626 17.3663C0.225253 17.0681 0.0876184 16.7117 0.055748 16.3386C0.055748 13.8549 -0.103003 11.3581 0.11528 8.89422C0.334067 6.93515 1.17204 5.09594 2.50832 3.64192C3.8446 2.18789 5.6101 1.19422 7.55012 0.804258C8.66625 0.609506 9.79708 0.510325 10.9302 0.507802C12.5971 0.468275 14.2375 0.507802 15.9375 0.507802Z" fill="white"/>
<path d="M12.2531 29.4942C10.1364 29.4942 8.01971 29.5271 5.90302 29.4942C5.35669 29.4783 4.8255 29.3118 4.36843 29.0133C4.08665 28.7632 3.88834 28.4333 3.80004 28.0677C3.71175 27.7022 3.73769 27.3186 3.87439 26.9682C4.0111 26.6178 4.25204 26.3173 4.56494 26.1071C4.87785 25.8968 5.24779 25.7868 5.62521 25.7918H16.8701C18.1261 25.8406 19.3757 25.5899 20.5147 25.0605C21.6813 24.5368 22.6654 23.68 23.3425 22.5987C24.0196 21.5174 24.3592 20.2602 24.3182 18.9865C24.3182 17.4317 24.3182 15.8836 24.2851 14.3288C24.273 13.93 24.2974 13.5309 24.3578 13.1364C24.4468 12.7369 24.6679 12.3787 24.9858 12.1195C25.3037 11.8602 25.6999 11.7149 26.1107 11.7068C26.5398 11.6877 26.9612 11.825 27.2961 12.093C27.6309 12.3609 27.8562 12.7413 27.9297 13.1628C28.0753 15.989 28.32 18.8481 27.7379 21.648C26.8912 25.7391 22.7968 29.1846 18.5965 29.402C16.4864 29.5074 14.3631 29.402 12.2531 29.402V29.4942Z" fill="white"/>
<path d="M22.9159 6.76625C23.2419 6.74196 23.5689 6.79827 23.8678 6.93018C24.1668 7.06209 24.4283 7.26552 24.6293 7.52237C24.8302 7.77923 24.9643 8.08155 25.0197 8.40247C25.075 8.72339 25.0499 9.05297 24.9466 9.36189C24.841 9.68111 24.6373 9.95916 24.3643 10.1566C24.0912 10.3541 23.7627 10.461 23.4252 10.4621C21.6411 10.6726 19.9752 11.4593 18.6825 12.702C17.7992 13.5746 17.0161 14.5424 16.3476 15.5875C15.0246 17.498 13.7877 19.4282 11.8959 20.8578C9.98462 22.3537 7.74909 23.3846 5.36727 23.8685C4.88624 23.9792 4.38085 23.8995 3.95761 23.6464C3.53437 23.3932 3.22635 22.9863 3.09845 22.5114C3.01602 22.2618 2.99077 21.997 3.02455 21.7364C3.05834 21.4759 3.1503 21.2262 3.29369 21.0056C3.43707 20.7851 3.62824 20.5994 3.85314 20.4621C4.07805 20.3248 4.33098 20.2394 4.59336 20.2122C6.09717 19.8943 7.52096 19.2769 8.77926 18.3973C10.0376 17.5177 11.1044 16.3939 11.9158 15.0934C12.4515 14.2501 12.9741 13.3937 13.5562 12.5834C15.5822 9.64909 18.659 7.59833 22.1552 6.85189C22.2841 6.82521 22.4144 6.80542 22.5455 6.7926C22.7042 6.77284 22.8431 6.77284 22.9159 6.76625Z" fill="white"/>
<path d="M43.2758 25.4496C42.0139 25.4732 40.761 25.2331 39.5981 24.7447C38.588 24.3298 37.6839 23.695 36.9522 22.8869C36.3123 22.1753 35.858 21.3178 35.6293 20.3901L39.0358 18.9539C39.3279 19.8436 39.8894 20.6215 40.6432 21.1806C41.4003 21.7315 42.3185 22.0185 43.2559 21.9975C44.0606 22.044 44.8624 21.8661 45.5711 21.4837C45.8354 21.3267 46.0515 21.1006 46.1961 20.8301C46.3407 20.5595 46.4082 20.2547 46.3913 19.9487C46.3834 19.5745 46.2983 19.2059 46.1413 18.8659C45.9842 18.5259 45.7586 18.2217 45.4785 17.9723C44.5845 17.2289 43.5531 16.6672 42.4423 16.3187C40.7288 15.7674 39.1697 14.8217 37.8915 13.5584C36.9802 12.5161 36.4941 11.1717 36.5289 9.7901C36.5179 8.82937 36.8043 7.88858 37.3491 7.09564C37.9379 6.24867 38.7506 5.58058 39.6973 5.16539C40.8236 4.67137 42.0454 4.43069 43.2758 4.46048C44.7265 4.41182 46.1623 4.76533 47.4232 5.48161C48.5334 6.14251 49.4467 7.08624 50.069 8.21559L47.0461 10.0997C46.6949 9.45572 46.1991 8.90112 45.5975 8.47911C44.9409 8.0453 44.1695 7.81597 43.3816 7.82032C42.653 7.75344 41.9231 7.93459 41.3112 8.33417C41.0532 8.49779 40.842 8.72515 40.6982 8.99413C40.5545 9.26311 40.4831 9.56456 40.491 9.86916C40.5028 10.2377 40.5975 10.5989 40.768 10.9261C40.9386 11.2533 41.1808 11.5383 41.4766 11.7599C42.3314 12.4405 43.2952 12.9727 44.3275 13.3344C46.0626 13.9318 47.6437 14.9036 48.9578 16.1804C49.9822 17.2111 50.5553 18.6038 50.5519 20.0541C50.5669 21.0438 50.2658 22.0127 49.692 22.821C49.0586 23.6801 48.1974 24.3462 47.2049 24.7447C45.9567 25.2424 44.6199 25.4822 43.2758 25.4496Z" fill="white"/>
<path d="M63.2982 20.9965L65.3752 23.3484C64.7597 24.0705 63.9795 24.6353 63.0998 24.9953C62.14 25.3824 61.1123 25.575 60.0769 25.5619C58.7631 25.5988 57.4621 25.297 56.2999 24.6857C55.2665 24.1279 54.4202 23.2804 53.8657 22.2482C53.285 21.1342 52.994 19.893 53.0191 18.638C52.9942 17.3857 53.2902 16.1478 53.879 15.041C54.4459 14.0186 55.2952 13.1795 56.3264 12.6232C57.4813 12.0186 58.7726 11.7192 60.0769 11.7536C61.1097 11.7496 62.133 11.9512 63.0865 12.3466C63.992 12.71 64.7971 13.2837 65.4347 14.0199L63.2387 16.3191C62.8445 15.8723 62.3568 15.517 61.8099 15.2782C61.2563 15.0728 60.6672 14.9788 60.0769 15.0015C59.4737 14.9989 58.8813 15.1606 58.3637 15.4692C57.8323 15.7928 57.3928 16.2464 57.0871 16.7868C56.7577 17.3692 56.5909 18.0289 56.6042 18.6973C56.5723 19.198 56.6445 19.6999 56.8163 20.1714C56.9882 20.643 57.256 21.0742 57.603 21.4379C57.9295 21.7553 58.3168 22.0041 58.7418 22.1693C59.1668 22.3346 59.6208 22.4129 60.0769 22.3997C60.6842 22.3977 61.2856 22.2815 61.8496 22.0571C62.417 21.8353 62.9163 21.4697 63.2982 20.9965Z" fill="white"/>
<path d="M80.7079 15.0472C80.1445 14.0183 79.2916 13.1756 78.2539 12.6229C77.0847 12.0468 75.7979 11.7471 74.4935 11.7471C73.189 11.7471 71.9022 12.0468 70.733 12.6229C69.6987 13.1779 68.8485 14.0201 68.2856 15.0472C67.7036 16.1542 67.408 17.3882 67.4257 18.6377C67.3952 19.8989 67.6913 21.1468 68.2856 22.261C68.8353 23.2895 69.6806 24.1313 70.7132 24.6788C71.891 25.2535 73.1852 25.5523 74.4968 25.5523C75.8084 25.5523 77.1025 25.2535 78.2803 24.6788C79.3049 24.1145 80.1469 23.2713 80.7079 22.2478C81.3022 21.1336 81.5984 19.8858 81.5678 18.6245C81.5949 17.3783 81.2987 16.1461 80.7079 15.0472ZM76.964 21.4046C76.2807 21.9991 75.4041 22.3266 74.4968 22.3266C73.5894 22.3266 72.7129 21.9991 72.0295 21.4046C71.6546 21.0528 71.3641 20.6213 71.1798 20.1422C70.9954 19.6632 70.9218 19.1489 70.9646 18.6377C70.9323 17.9201 71.1092 17.2085 71.4739 16.5888C71.973 15.8485 72.7269 15.3159 73.5934 15.0913C74.4598 14.8668 75.3788 14.9659 76.1769 15.37C76.7207 15.6493 77.178 16.0706 77.4998 16.5888C77.8645 17.2085 78.0414 17.9201 78.0091 18.6377C78.0458 19.149 77.9688 19.662 77.7836 20.1403C77.5984 20.6186 77.3095 21.0503 76.9376 21.4046H76.964Z" fill="white"/>
<path d="M93.3088 12.0889H96.8939V24.316C96.3502 24.6156 95.7668 24.8374 95.1609 24.9748C94.4848 25.1445 93.7973 25.2656 93.1038 25.3372C92.4909 25.4059 91.875 25.4433 91.2583 25.4492C89.7652 25.5225 88.276 25.2425 86.9125 24.6323C85.9504 24.1774 85.165 23.4206 84.6767 22.478C84.25 21.5819 84.0243 20.604 84.0153 19.6123C84.0153 18.2947 84.0153 17.0562 84.0153 15.8637C84.0153 14.6713 84.0153 13.4262 84.0153 12.1152H87.6269C87.6269 14.421 87.6269 16.7268 87.6269 19.0325C87.5966 19.4625 87.6549 19.8941 87.7982 20.3008C87.9416 20.7075 88.1669 21.0808 88.4603 21.3976C89.1536 21.9365 90.0243 22.1974 90.9011 22.1288C91.3802 22.1302 91.8584 22.0883 92.3299 22.0037C92.6696 21.95 93.0009 21.8526 93.3154 21.7138L93.3088 12.0889Z" fill="white"/>
<path d="M105.724 25.4761C105.148 25.5069 104.571 25.4106 104.036 25.1943C103.501 24.9779 103.021 24.6468 102.629 24.2244C101.864 23.3573 101.453 22.236 101.478 21.082C101.478 20.2914 101.478 19.6063 101.478 19.0265C101.478 18.4468 101.478 17.8605 101.478 17.2676C101.478 16.679 101.478 15.9873 101.478 15.1924H99.004L99.6655 12.0961H101.471V9.38184H105.083V12.0895H107.636V15.1858H105.083V20.1399C105.081 20.6502 105.194 21.1544 105.414 21.6156C105.507 21.7981 105.652 21.9495 105.831 22.0513C106.009 22.1531 106.214 22.2009 106.419 22.1887C106.584 22.1973 106.75 22.1973 106.915 22.1887C107.106 22.1708 107.294 22.1241 107.471 22.0504L108.053 25.1797C107.707 25.3204 107.341 25.4071 106.968 25.4366C106.555 25.4761 106.139 25.4893 105.724 25.4761Z" fill="white"/>
<path d="M120.23 12.0962V12.3663L120.297 13.1305C119.911 12.6842 119.406 12.3553 118.841 12.1818C118.2 11.9207 117.516 11.78 116.824 11.7668C115.602 11.7452 114.394 12.0307 113.312 12.5968C112.299 13.1469 111.464 13.9716 110.904 14.9751C110.296 16.0897 109.993 17.3436 110.024 18.6116C110.006 19.8243 110.293 21.0222 110.857 22.0966C111.407 23.1154 112.223 23.9668 113.219 24.5605C114.317 25.1797 115.563 25.4894 116.824 25.4564C117.541 25.457 118.254 25.3413 118.934 25.1139C119.513 24.9449 120.024 24.5993 120.396 24.1257L120.303 24.9558V25.0941H123.862V12.0962H120.23ZM119.397 21.2204C119.097 21.5281 118.738 21.7724 118.342 21.9388C117.945 22.1052 117.519 22.1903 117.088 22.1888C116.506 22.1937 115.933 22.0509 115.422 21.7738C114.907 21.4827 114.479 21.0625 114.178 20.555C113.835 19.9537 113.666 19.2698 113.689 18.5787C113.661 17.8871 113.831 17.2019 114.178 16.6023C114.478 16.0998 114.908 15.6859 115.422 15.4033C115.934 15.1308 116.508 14.9925 117.088 15.0014C117.523 14.9964 117.953 15.0777 118.355 15.2406C118.757 15.4035 119.123 15.6447 119.43 15.9501C119.772 16.2955 120.037 16.7086 120.207 17.1626C120.378 17.6166 120.452 18.1013 120.422 18.5853C120.451 19.072 120.374 19.5591 120.197 20.0137C120.02 20.4684 119.747 20.8799 119.397 21.2204Z" fill="white"/>
<path d="M140.061 15.2053C139.539 14.1702 138.737 13.3009 137.746 12.6953C136.225 11.8325 134.442 11.5448 132.725 11.885C132.27 11.972 131.826 12.1113 131.402 12.3C131.045 12.4425 130.728 12.6685 130.476 12.9588L130.543 12.0102V4.80957H127.01V25.0938H130.668V24.8829L130.622 24.1451C130.888 24.4412 131.209 24.6829 131.568 24.8566C131.989 25.0629 132.433 25.2177 132.891 25.3177C133.287 25.4028 133.69 25.4491 134.095 25.4561C136.271 25.4561 137.938 24.8368 139.115 23.5917C139.727 22.9251 140.2 22.1437 140.506 21.293C140.811 20.4424 140.943 19.5397 140.894 18.6376C140.899 17.4432 140.613 16.2654 140.061 15.2053ZM136.271 21.2003C135.968 21.5255 135.599 21.7821 135.188 21.9526C134.777 22.1231 134.334 22.2036 133.89 22.1885C133.427 22.2016 132.967 22.116 132.54 21.9377C132.114 21.7593 131.73 21.4922 131.416 21.1542C131.093 20.8164 130.841 20.4184 130.675 19.983C130.508 19.5476 130.429 19.0836 130.443 18.6178C130.413 17.663 130.762 16.7349 131.416 16.0354C131.734 15.6987 132.12 15.4327 132.549 15.2545C132.977 15.0762 133.439 14.9899 133.903 15.0011C134.349 14.981 134.794 15.0598 135.206 15.2318C135.618 15.4039 135.986 15.6648 136.284 15.9958C136.906 16.7176 137.23 17.6477 137.19 18.5981C137.23 19.5509 136.901 20.4825 136.271 21.2003Z" fill="white"/>
<path d="M147.76 25.4761C146.919 25.509 146.089 25.2787 145.386 24.8173C144.763 24.387 144.284 23.7814 144.01 23.0781C143.709 22.326 143.558 21.5226 143.567 20.713C143.567 18.886 143.567 17.015 143.567 15.1001V4.81641H147.119V20.1399C147.116 20.6538 147.227 21.1621 147.443 21.6288C147.528 21.8144 147.668 21.9699 147.844 22.0746C148.02 22.1793 148.224 22.2283 148.428 22.2151C148.594 22.2151 148.759 22.2151 148.925 22.2151C149.107 22.1921 149.285 22.1433 149.454 22.0702L150.036 25.1731C149.699 25.2902 149.351 25.3719 148.997 25.4168C148.587 25.4675 148.174 25.4874 147.76 25.4761Z" fill="white"/>
</svg>
