<?xml version='1.0' encoding='utf-8'?>
<svg xmlns="http://www.w3.org/2000/svg" width="18" height="16" viewBox="0 0 18 16" fill="none">
<path fill-rule="evenodd" clip-rule="evenodd" d="M2.62773 5.5C2.35008 5.5 2.125 5.72508 2.125 6.00273V13.7473C2.125 14.0249 2.35008 14.25 2.62773 14.25H15.3723C15.6499 14.25 15.875 14.0249 15.875 13.7473V6.00273C15.875 5.72508 15.6499 5.5 15.3723 5.5H2.62773ZM0.875 6.00273C0.875 5.03473 1.65973 4.25 2.62773 4.25H15.3723C16.3403 4.25 17.125 5.03473 17.125 6.00273V13.7473C17.125 14.7153 16.3403 15.5 15.3723 15.5H2.62773C1.65973 15.5 0.875 14.7153 0.875 13.7473V6.00273Z" fill="currentColor" />
<path fill-rule="evenodd" clip-rule="evenodd" d="M4 1.125C4 0.779822 4.27982 0.5 4.625 0.5H13.375C13.7202 0.5 14 0.779822 14 1.125C14 1.47018 13.7202 1.75 13.375 1.75H4.625C4.27982 1.75 4 1.47018 4 1.125Z" fill="currentColor" />
<path fill-rule="evenodd" clip-rule="evenodd" d="M2.75 3C2.75 2.65482 3.02982 2.375 3.375 2.375H14.625C14.9702 2.375 15.25 2.65482 15.25 3C15.25 3.34518 14.9702 3.625 14.625 3.625H3.375C3.02982 3.625 2.75 3.34518 2.75 3Z" fill="currentColor" />
</svg>