<?xml version='1.0' encoding='utf-8'?>
<svg xmlns="http://www.w3.org/2000/svg" width="18" height="16" viewBox="0 0 18 16" fill="none">
<path d="M14 1.125C14 0.779822 13.7202 0.5 13.375 0.5H4.625C4.27982 0.5 4 0.779822 4 1.125C4 1.47018 4.27982 1.75 4.625 1.75H13.375C13.7202 1.75 14 1.47018 14 1.125Z" fill="currentColor" />
<path d="M15.25 3C15.25 2.65482 14.9702 2.375 14.625 2.375H3.375C3.02982 2.375 2.75 2.65482 2.75 3C2.75 3.34518 3.02982 3.625 3.375 3.625H14.625C14.9702 3.625 15.25 3.34518 15.25 3Z" fill="currentColor" />
<path d="M17.125 13.5C17.125 14.6046 16.2296 15.5 15.125 15.5H2.875C1.77043 15.5 0.875 14.6046 0.875 13.5V6.25C0.875 5.14543 1.77043 4.25 2.875 4.25H15.125C16.2296 4.25 17.125 5.14543 17.125 6.25V13.5Z" fill="currentColor" />
</svg>