<svg width="18" height="17" viewBox="0 0 18 17" fill="none" xmlns="http://www.w3.org/2000/svg">
<path fill-rule="evenodd" clip-rule="evenodd" d="M10.3969 2.09689C10.0407 0.634369 7.95934 0.634369 7.60308 2.09689C7.54989 2.31666 7.44557 2.52077 7.29859 2.6926C7.15162 2.86443 6.96615 2.99914 6.75728 3.08575C6.54842 3.17237 6.32205 3.20845 6.0966 3.19106C5.87115 3.17366 5.653 3.10329 5.45989 2.98566C4.1736 2.20189 2.70168 3.67379 3.48545 4.96006C3.99172 5.7907 3.54264 6.87447 2.59761 7.10416C1.13413 7.45948 1.13413 9.5417 2.59761 9.89608C2.81744 9.94933 3.02159 10.0538 3.19342 10.2008C3.36526 10.3479 3.49993 10.5335 3.58646 10.7425C3.673 10.9515 3.70895 11.1779 3.6914 11.4034C3.67385 11.6289 3.60328 11.8471 3.48545 12.0402C2.70168 13.3264 4.1736 14.7983 5.45989 14.0146C5.65296 13.8967 5.87114 13.8262 6.09664 13.8086C6.32215 13.7911 6.54862 13.827 6.7576 13.9136C6.96658 14.0001 7.15217 14.1348 7.29925 14.3066C7.44634 14.4784 7.55076 14.6826 7.60402 14.9024C7.95934 16.3659 10.0416 16.3659 10.396 14.9024C10.4494 14.6827 10.5539 14.4787 10.7011 14.307C10.8482 14.1353 11.0337 14.0007 11.2427 13.9142C11.4516 13.8277 11.678 13.7917 11.9034 13.8091C12.1288 13.8266 12.347 13.897 12.5401 14.0146C13.8264 14.7983 15.2983 13.3264 14.5145 12.0402C14.3969 11.8471 14.3265 11.6289 14.3091 11.4035C14.2916 11.178 14.3276 10.9516 14.4141 10.7427C14.5006 10.5338 14.6352 10.3483 14.8069 10.2011C14.9787 10.054 15.1827 9.94951 15.4024 9.89608C16.8659 9.54076 16.8659 7.45854 15.4024 7.10416C15.1826 7.0509 14.9784 6.94648 14.8066 6.7994C14.6347 6.65231 14.5001 6.46673 14.4135 6.25775C14.327 6.04877 14.291 5.82231 14.3086 5.59681C14.3262 5.3713 14.3967 5.15313 14.5145 4.96006C15.2983 3.67379 13.8264 2.20189 12.5401 2.98566C12.347 3.10348 12.1289 3.17405 11.9034 3.1916C11.6778 3.20915 11.4514 3.1732 11.2424 3.08666C11.0334 3.00013 10.8478 2.86546 10.7007 2.69363C10.5537 2.5218 10.4492 2.31766 10.396 2.09783L10.3969 2.09689Z" stroke="#5C5C5C" stroke-width="1.5"/>
<path d="M10.6667 8.5C10.6667 9.42047 9.92047 10.1667 9 10.1667C8.07953 10.1667 7.33333 9.42047 7.33333 8.5C7.33333 7.57953 8.07953 6.83333 9 6.83333C9.92047 6.83333 10.6667 7.57953 10.6667 8.5Z" stroke="#5C5C5C" stroke-width="1.5"/>
</svg>
