<svg width="18" height="19" viewBox="0 0 18 19" fill="currentColor" xmlns="http://www.w3.org/2000/svg">
<path d="M6.6 7.1V6.35C6.18579 6.35 5.85 6.68579 5.85 7.1H6.6ZM6.67969 7.1H7.42969C7.42969 6.68579 7.0939 6.35 6.67969 6.35V7.1ZM11.4 7.1V6.35C10.9858 6.35 10.65 6.68579 10.65 7.1H11.4ZM11.4708 7.1H12.2208C12.2208 6.68579 11.8851 6.35 11.4708 6.35V7.1ZM6.67969 7.16406V7.91406C7.0939 7.91406 7.42969 7.57828 7.42969 7.16406H6.67969ZM6.6 7.16406H5.85C5.85 7.57828 6.18579 7.91406 6.6 7.91406V7.16406ZM11.4708 7.16406V7.91406C11.8851 7.91406 12.2208 7.57828 12.2208 7.16406H11.4708ZM11.4 7.16406H10.65C10.65 7.57828 10.9858 7.91406 11.4 7.91406V7.16406ZM6.86434 11.5379C6.64633 11.1857 6.18408 11.0769 5.83188 11.2949C5.47968 11.5129 5.3709 11.9752 5.58891 12.3274L6.86434 11.5379ZM12.4111 12.3274C12.6291 11.9752 12.5203 11.5129 12.1681 11.2949C11.8159 11.0769 11.3537 11.1857 11.1357 11.5379L12.4111 12.3274ZM17 9.5H16.25C16.25 13.5041 13.0041 16.75 9 16.75V17.5V18.25C13.8325 18.25 17.75 14.3325 17.75 9.5H17ZM9 17.5V16.75C4.99593 16.75 1.75 13.5041 1.75 9.5H1H0.25C0.25 14.3325 4.16751 18.25 9 18.25V17.5ZM1 9.5H1.75C1.75 5.49593 4.99593 2.25 9 2.25V1.5V0.75C4.16751 0.75 0.25 4.66751 0.25 9.5H1ZM9 1.5V2.25C13.0041 2.25 16.25 5.49593 16.25 9.5H17H17.75C17.75 4.66751 13.8325 0.75 9 0.75V1.5ZM6.6 7.1V7.85H6.67969V7.1V6.35H6.6V7.1ZM11.4 7.1V7.85H11.4708V7.1V6.35H11.4V7.1ZM6.67969 7.1H5.92969V7.16406H6.67969H7.42969V7.1H6.67969ZM6.67969 7.16406V6.41406H6.6V7.16406V7.91406H6.67969V7.16406ZM6.6 7.16406H7.35V7.1H6.6H5.85V7.16406H6.6ZM11.4708 7.1H10.7208V7.16406H11.4708H12.2208V7.1H11.4708ZM11.4708 7.16406V6.41406H11.4V7.16406V7.91406H11.4708V7.16406ZM11.4 7.16406H12.15V7.1H11.4H10.65V7.16406H11.4ZM9 13.5V12.75C8.11107 12.75 7.32026 12.2744 6.86434 11.5379L6.22663 11.9326L5.58891 12.3274C6.29956 13.4754 7.55701 14.25 9 14.25V13.5ZM11.7734 11.9326L11.1357 11.5379C10.6797 12.2744 9.88893 12.75 9 12.75V13.5V14.25C10.443 14.25 11.7004 13.4754 12.4111 12.3274L11.7734 11.9326Z" fill="currentColor"/>
</svg>
