<svg width="13" height="14" viewBox="0 0 13 14" fill="none" xmlns="http://www.w3.org/2000/svg">
<path d="M6.09975 1.54079C6.3208 1.31974 6.6792 1.31974 6.90025 1.54079L8.51485 3.15539C8.7359 3.37644 8.7359 3.73483 8.51485 3.95588L6.90025 5.57048C6.6792 5.79153 6.3208 5.79153 6.09975 5.57048L4.48515 3.95588C4.2641 3.73483 4.2641 3.37644 4.48516 3.15538L6.09975 1.54079Z" stroke="white"/>
<path d="M9.91912 5.36015C10.1402 5.1391 10.4986 5.1391 10.7196 5.36015L12.3342 6.97475C12.5553 7.1958 12.5553 7.5542 12.3342 7.77525L10.7196 9.38985C10.4986 9.6109 10.1402 9.6109 9.91912 9.38985L8.30452 7.77525C8.08347 7.5542 8.08347 7.1958 8.30452 6.97475L9.91912 5.36015Z" stroke="white"/>
<path d="M2.28039 5.36015C2.50144 5.1391 2.85983 5.1391 3.08088 5.36015L4.69548 6.97475C4.91653 7.1958 4.91653 7.5542 4.69548 7.77525L3.08088 9.38985C2.85983 9.6109 2.50144 9.6109 2.28038 9.38985L0.665788 7.77525C0.444737 7.5542 0.444737 7.1958 0.665789 6.97475L2.28039 5.36015Z" stroke="white"/>
<path d="M6.09975 9.17952C6.3208 8.95847 6.6792 8.95847 6.90025 9.17952L8.51485 10.7941C8.7359 11.0152 8.7359 11.3736 8.51485 11.5946L6.90025 13.2092C6.6792 13.4303 6.3208 13.4303 6.09975 13.2092L4.48515 11.5946C4.2641 11.3736 4.2641 11.0152 4.48515 10.7941L6.09975 9.17952Z" stroke="white"/>
</svg>
