<?xml version='1.0' encoding='utf-8'?>
<svg xmlns="http://www.w3.org/2000/svg" width="34" height="32" viewBox="0 0 34 32" fill="none">
<path fill-rule="evenodd" clip-rule="evenodd" d="M4.96875 2.875C3.76063 2.875 2.78125 3.85438 2.78125 5.0625V26.9375C2.78125 28.1456 3.76063 29.125 4.96875 29.125H29.0312C30.2394 29.125 31.2188 28.1456 31.2188 26.9375V5.0625C31.2188 3.85438 30.2394 2.875 29.0312 2.875H4.96875ZM0.59375 5.0625C0.59375 2.64625 2.5525 0.6875 4.96875 0.6875H29.0312C31.4475 0.6875 33.4062 2.64625 33.4062 5.0625V26.9375C33.4062 29.3537 31.4475 31.3125 29.0312 31.3125H4.96875C2.5525 31.3125 0.59375 29.3537 0.59375 26.9375V5.0625Z" fill="currentColor" />
<path fill-rule="evenodd" clip-rule="evenodd" d="M5.20843 5.47299C5.58578 5.0013 6.27407 4.92482 6.74576 5.30218L12.2145 9.67718C12.474 9.88474 12.625 10.199 12.625 10.5312C12.625 10.8635 12.474 11.1778 12.2145 11.3853L6.74576 15.7603C6.27407 16.1377 5.58578 16.0612 5.20843 15.5895C4.83107 15.1178 4.90755 14.4295 5.37924 14.0522L9.7804 10.5312L5.37924 7.01032C4.90755 6.63297 4.83107 5.94468 5.20843 5.47299Z" fill="currentColor" />
<path fill-rule="evenodd" clip-rule="evenodd" d="M11.5312 14.9062C11.5312 14.3022 12.0209 13.8125 12.625 13.8125H17C17.6041 13.8125 18.0938 14.3022 18.0938 14.9062C18.0938 15.5103 17.6041 16 17 16H12.625C12.0209 16 11.5312 15.5103 11.5312 14.9062Z" fill="currentColor" />
</svg>