<svg width="16" height="13" viewBox="0 0 16 13" fill="none" xmlns="http://www.w3.org/2000/svg">
<path d="M13.3969 7.76367C14.3474 8.47384 15.1969 10.2619 15.1969 11.3636C15.1969 11.7069 14.9465 11.9851 14.6375 11.9851H14.2969M10.6969 4.85275C11.3118 4.49706 11.7254 3.83225 11.7254 3.07081C11.7254 2.30938 11.3118 1.64457 10.6969 1.28888M1.3562 11.9851H11.209C11.5179 11.9851 11.7683 11.7069 11.7683 11.3636C11.7683 9.20617 9.96585 7.45721 6.28259 7.45721C2.59932 7.45721 0.796875 9.20617 0.796875 11.3636C0.796875 11.7069 1.04729 11.9851 1.3562 11.9851ZM8.33973 3.07081C8.33973 4.20694 7.41872 5.12796 6.28259 5.12796C5.14646 5.12796 4.22545 4.20694 4.22545 3.07081C4.22545 1.93469 5.14646 1.01367 6.28259 1.01367C7.41872 1.01367 8.33973 1.93469 8.33973 3.07081Z" stroke="#333333" stroke-linecap="round"/>
</svg>
