<svg width="14" height="18" viewBox="0 0 14 18" fill="none" xmlns="http://www.w3.org/2000/svg">
<path d="M14 15.5V17.5H0V15.5H14ZM11 8.715C10.9671 9.37498 10.7711 10.0165 10.4297 10.5823C10.0883 11.1481 9.61207 11.6205 9.04352 11.9572C8.47497 12.294 7.83184 12.4847 7.17161 12.5122C6.51138 12.5397 5.85461 12.4033 5.26 12.115C4.57464 11.8185 3.99341 11.3241 3.59077 10.6952C3.18813 10.0663 2.98242 9.33154 3 8.585V0.505H1V8.715C1.03383 9.65641 1.28885 10.5766 1.74442 11.4012C2.19998 12.2257 2.84329 12.9314 3.62227 13.4611C4.40125 13.9908 5.294 14.3296 6.22827 14.4502C7.16254 14.5707 8.11207 14.4696 9 14.155C10.1811 13.7613 11.2059 13.0012 11.9252 11.985C12.6446 10.9689 13.0211 9.74981 13 8.505V0.505H11V8.715ZM11 0.5H13H11ZM3 0.5H1H3Z" fill="#5C5C5C"/>
</svg>
