<svg width="18" height="19" viewBox="0 0 18 19" fill="none" xmlns="http://www.w3.org/2000/svg">
<path d="M17 14.0995V17.0995C17 17.3495 16.9103 17.562 16.7308 17.737C16.5513 17.912 16.3333 17.9995 16.0769 17.9995H1.92308C1.66667 17.9995 1.44872 17.912 1.26923 17.737C1.08974 17.562 1 17.3495 1 17.0995V14.0995C1 13.8495 1.08974 13.637 1.26923 13.462C1.44872 13.287 1.66667 13.1995 1.92308 13.1995H5.34205C5.75582 13.1995 6.10785 13.4753 6.38683 13.7809C6.48049 13.8835 6.58712 13.9772 6.70673 14.062C7.02404 14.287 7.3782 14.3995 7.76923 14.3995H10.2308C10.6218 14.3995 10.976 14.287 11.2933 14.062C11.4129 13.9772 11.5195 13.8835 11.6132 13.7809C11.8921 13.4753 12.2442 13.1995 12.658 13.1995H16.0769C16.3333 13.1995 16.5513 13.287 16.7308 13.462C16.9103 13.637 17 13.8495 17 14.0995ZM13.7497 6.1578C13.6407 6.4078 13.4516 6.5328 13.1824 6.5328H10.7208V10.7328C10.7208 10.8953 10.6599 11.0359 10.5381 11.1547C10.4163 11.2734 10.2721 11.3328 10.1054 11.3328H7.6439C7.47724 11.3328 7.33301 11.2734 7.21121 11.1547C7.08942 11.0359 7.02852 10.8953 7.02852 10.7328V6.5328H4.56698C4.29775 6.5328 4.10865 6.4078 3.99967 6.1578C3.8907 5.91405 3.93557 5.69843 4.13429 5.51093L8.44198 1.31093C8.55737 1.19218 8.7016 1.1328 8.87467 1.1328C9.04775 1.1328 9.19198 1.19218 9.30737 1.31093L13.6151 5.51093C13.8138 5.69843 13.8586 5.91405 13.7497 6.1578Z" stroke="#333333" stroke-width="1.5" stroke-linejoin="round"/>
</svg>
