<?xml version='1.0' encoding='utf-8'?>
<svg xmlns="http://www.w3.org/2000/svg" width="18" height="19" viewBox="0 0 18 19" fill="none">
<path d="M8 17.5H2.99999C1.89542 17.4999 0.999993 16.6045 1 15.4999L1.00008 3.49999C1.00008 2.39542 1.89551 1.5 3.00008 1.5H12.0003C13.1049 1.5 14.0003 2.39543 14.0003 3.5V7.5M13.5 13.9575V13.9048M4.50031 5.5H10.5003M4.50031 8.5H10.5003M4.50031 11.5H7.50031M17 14C17 14 16.1699 16.4497 13.5 16.4069C10.8301 16.3641 10 14 10 14C10 14 10.7965 11.5075 13.5 11.5075C16.2035 11.5075 17 14 17 14Z" stroke="currentColor" stroke-width="1.5" stroke-linecap="round" stroke-linejoin="round" />
</svg>