<?xml version='1.0' encoding='utf-8'?>
<svg xmlns="http://www.w3.org/2000/svg" width="12" height="12" viewBox="0 0 12 12" fill="none">
<path d="M7.39212 7.39212C6.62327 8.16096 5.37673 8.16096 4.60788 7.39212M7.39212 7.39212C8.16096 6.62327 8.16096 5.37673 7.39212 4.60788M7.39212 7.39212L9.48029 9.48029M4.60788 7.39212C3.83904 6.62327 3.83904 5.37673 4.60788 4.60788M4.60788 7.39212L2.51971 9.48029M4.60788 4.60788C5.37673 3.83904 6.62327 3.83904 7.39212 4.60788M4.60788 4.60788L2.51971 2.51971M7.39212 4.60788L9.48029 2.51971M9.71231 9.71231C7.66206 11.7626 4.33794 11.7626 2.28769 9.71231C0.237437 7.66206 0.237437 4.33794 2.28769 2.28769C4.33794 0.237437 7.66206 0.237437 9.71231 2.28769C11.7626 4.33794 11.7626 7.66206 9.71231 9.71231Z" stroke="currentColor" stroke-linecap="round" stroke-linejoin="round" />
</svg>