<?xml version='1.0' encoding='utf-8'?>
<svg xmlns="http://www.w3.org/2000/svg" width="21" height="14" viewBox="0 0 21 14" fill="none">
<path d="M3.6641 7.73086C4.02973 11.1797 6.95551 13.875 10.5 13.875C11.4623 13.8761 12.4139 13.6739 13.2926 13.2816C11.7184 12.6359 10.0094 11.7906 8.3016 10.8066C6.63285 9.84609 5.02504 8.77734 3.6641 7.73086Z" fill="currentColor" />
<path d="M19.7469 10.2621C19.4149 9.82031 18.9657 9.33242 18.4188 8.8168C18.3144 9.27116 18.1707 9.71555 17.9891 10.1449C19.111 11.2973 19.286 11.916 19.2457 12.0375C19.1676 12.1246 18.5797 12.3066 16.9743 11.8996C16.7443 11.8413 16.4927 11.7702 16.2196 11.6863C16.0435 11.6322 15.864 11.5737 15.6809 11.5109C15.9685 11.1811 16.2241 10.8247 16.4442 10.4465C16.4508 10.4352 16.4578 10.4238 16.4645 10.4121C17.061 9.37385 17.3749 8.1974 17.375 7C17.3752 6.75209 17.3622 6.50434 17.336 6.25781C16.9621 2.81367 14.0391 0.125001 10.5 0.125001C8.99841 0.124156 7.5381 0.616735 6.34378 1.52695C5.61991 2.0779 5.01159 2.76599 4.55355 3.55195C4.5473 3.56328 4.54027 3.57461 4.53363 3.58594C4.31593 3.96519 4.13503 4.36441 3.99339 4.77813C3.84782 4.6513 3.70733 4.52539 3.57191 4.40039C3.36136 4.20508 3.17464 4.02422 3.00863 3.85352C1.85355 2.67149 1.71605 2.07188 1.75238 1.96094C1.83675 1.86602 2.45941 1.70547 4.02308 2.09961C4.30546 1.72771 4.6191 1.38061 4.96058 1.06211C4.22386 0.84297 3.56253 0.696876 3.0055 0.632423C1.80511 0.494923 1.01957 0.731251 0.669956 1.33594C0.543394 1.55391 0.421909 1.92539 0.563706 2.45313C0.773472 3.23672 1.52113 4.1875 2.57933 5.18359C2.91644 5.50117 3.2848 5.82305 3.67777 6.14609C3.96371 6.38047 4.26371 6.61719 4.5723 6.85234C4.77829 7.00859 4.98858 7.16484 5.20316 7.32109C5.41774 7.47734 5.63519 7.63073 5.8555 7.78125C6.84808 8.46914 7.89691 9.12969 8.92542 9.72227C9.29886 9.93737 9.67178 10.1457 10.0442 10.3473C10.4166 10.5488 10.786 10.7417 11.1524 10.9258C12.0078 11.3555 12.8457 11.743 13.6469 12.0754C13.9904 12.2181 14.3265 12.3504 14.6551 12.4723C15.1196 12.6449 15.568 12.7969 15.9953 12.925L16.0383 12.9379C17.0434 13.2371 17.8907 13.3945 18.5571 13.4066H18.625C19.4703 13.4066 20.043 13.1574 20.3274 12.6645C20.6825 12.0543 20.4868 11.2457 19.7469 10.2621Z" fill="currentColor" />
</svg>