<?xml version='1.0' encoding='utf-8'?>
<svg xmlns="http://www.w3.org/2000/svg" width="21" height="14" viewBox="0 0 21 14" fill="none">
<path fill-rule="evenodd" clip-rule="evenodd" d="M1.75269 1.96209C1.7652 1.95002 1.81411 1.91282 1.95383 1.88203C2.15107 1.83856 2.45051 1.82788 2.86285 1.87529C3.6828 1.96958 4.80413 2.2755 6.13024 2.78263L6.57673 1.6151C5.20519 1.09059 3.97339 0.744756 3.00564 0.633475C2.52413 0.578106 2.07108 0.57619 1.6848 0.661322C1.2999 0.74615 0.900473 0.937863 0.67038 1.33537C0.487041 1.65231 0.470772 2.00109 0.532266 2.31645C0.592703 2.62639 0.733351 2.93835 0.914148 3.2397C1.27593 3.84271 1.86714 4.51529 2.61189 5.2143C4.10886 6.61933 6.33197 8.22895 8.92582 9.7236C11.5197 11.2183 14.0279 12.3348 15.9956 12.926C16.9745 13.2201 17.8536 13.3946 18.5575 13.4057C18.9092 13.4112 19.2499 13.3767 19.5486 13.2741C19.8524 13.1697 20.1463 12.9817 20.3296 12.665C20.5627 12.2618 20.5257 11.8137 20.4026 11.434C20.2789 11.0526 20.0442 10.6564 19.7475 10.2618C19.1509 9.46869 18.2114 8.56212 17.0427 7.62429L16.2604 8.59922C17.3913 9.5067 18.241 10.3384 18.7485 11.0132C19.0037 11.3525 19.1497 11.6226 19.2135 11.8195C19.2589 11.9596 19.2511 12.022 19.2468 12.0391C19.2377 12.0477 19.21 12.0687 19.1424 12.0919C19.0293 12.1308 18.8464 12.1601 18.5771 12.1558C18.0389 12.1474 17.2856 12.0083 16.3552 11.7288C14.5042 11.1727 12.0857 10.1017 9.5499 8.64054C7.01407 7.17932 4.87546 5.6245 3.46734 4.30287C2.75955 3.63855 2.26239 3.05724 1.98603 2.59662C1.84776 2.36615 1.78191 2.19386 1.75916 2.0772C1.74571 2.00823 1.74981 1.97421 1.75269 1.96209Z" fill="currentColor" />
<path fill-rule="evenodd" clip-rule="evenodd" d="M10.5 1.375C7.39338 1.375 4.87498 3.8934 4.87498 7C4.87498 10.1066 7.39338 12.625 10.5 12.625C13.6066 12.625 16.125 10.1066 16.125 7C16.125 3.8934 13.6066 1.375 10.5 1.375ZM3.62498 7C3.62498 3.20304 6.70302 0.125 10.5 0.125C14.2969 0.125 17.375 3.20304 17.375 7C17.375 10.797 14.2969 13.875 10.5 13.875C6.70302 13.875 3.62498 10.797 3.62498 7Z" fill="currentColor" />
</svg>