<?xml version='1.0' encoding='utf-8'?>
<svg xmlns="http://www.w3.org/2000/svg" width="18" height="14" viewBox="0 0 18 14" fill="none">
<path d="M6.4 8.99996L10 12.6L8.6 14L5 10.4L1.4 14L0 12.6L3.6 8.99996L0 5.39996L1.4 3.99996L5 7.59996L8.6 3.99996L10 5.39996L6.4 8.99996ZM15.3123 5.67396L16.3805 4.52746C16.5765 4.32605 16.7514 4.12007 16.9173 3.91866C17.077 3.72449 17.2214 3.5182 17.3493 3.30166C17.469 3.10149 17.567 2.88917 17.6418 2.66826C17.7128 2.45334 17.7488 2.2284 17.7484 2.00205C17.7514 1.72068 17.6994 1.44143 17.5953 1.17999C17.4968 0.934245 17.3427 0.714646 17.1451 0.538391C16.9353 0.35484 16.6899 0.216479 16.4242 0.131931C15.7861 -0.0581197 15.1044 -0.0424981 14.4757 0.176581C14.1887 0.28503 13.9282 0.453782 13.712 0.671451C13.5032 0.880029 13.3413 1.13078 13.2372 1.40693C13.1371 1.67341 13.0844 1.95531 13.0813 2.23993L13.0777 2.47693H14.617L14.6234 2.24996C14.625 2.1233 14.643 1.99738 14.6772 1.87538C14.7105 1.76831 14.7637 1.66845 14.8339 1.58101C14.905 1.50065 14.9935 1.43766 15.0928 1.39691C15.3173 1.30792 15.5665 1.30274 15.7946 1.38233C15.8768 1.41841 15.9501 1.47191 16.0096 1.53912C16.0704 1.61086 16.1171 1.69341 16.1473 1.78245C16.1829 1.89069 16.2014 2.00386 16.202 2.11783C16.2008 2.20742 16.1901 2.29664 16.17 2.38395C16.1409 2.48823 16.0993 2.5886 16.046 2.68288C15.9687 2.81909 15.8807 2.94891 15.7827 3.07111C15.6483 3.24576 15.505 3.41337 15.3534 3.57328L13.1971 5.92638V6.99996H18V5.67396H15.3123Z" fill="currentColor" />
</svg>